<svg xmlns="http://www.w3.org/2000/svg" xmlns:xlink="http://www.w3.org/1999/xlink" width="100" zoomAndPan="magnify" viewBox="0 0 75 37.5" height="50" preserveAspectRatio="xMidYMid meet" version="1.0"><defs><g/><clipPath id="4c03630da9"><path d="M 0.492188 0 L 74.503906 0 L 74.503906 37.007812 L 0.492188 37.007812 Z M 0.492188 0 " clip-rule="nonzero"/></clipPath></defs><g clip-path="url(#4c03630da9)"><path fill="#ffffff" d="M 0.492188 0 L 74.507812 0 L 74.507812 44.40625 L 0.492188 44.40625 Z M 0.492188 0 " fill-opacity="1" fill-rule="nonzero"/><path fill="#ffffff" d="M 0.492188 0 L 74.507812 0 L 74.507812 37.007812 L 0.492188 37.007812 Z M 0.492188 0 " fill-opacity="1" fill-rule="nonzero"/><path fill="#9c27b0" d="M 0.492188 0 L 74.507812 0 L 74.507812 37.007812 L 0.492188 37.007812 Z M 0.492188 0 " fill-opacity="1" fill-rule="nonzero"/></g><g fill="#ffffff" fill-opacity="1"><g transform="translate(3.512777, 16.482509)"><g><path d="M 5.71875 -3.34375 L 6.109375 -3.15625 C 5.609375 -2.28125 5.085938 -1.539062 4.546875 -0.9375 C 4.015625 -0.332031 3.507812 0.101562 3.03125 0.375 C 2.5625 0.644531 2.125 0.75 1.71875 0.6875 C 1.3125 0.625 0.96875 0.398438 0.6875 0.015625 C 0.414062 -0.367188 0.222656 -0.957031 0.109375 -1.75 C -0.00390625 -2.539062 -0.0195312 -3.492188 0.0625 -4.609375 C 0.15625 -5.703125 0.332031 -6.648438 0.59375 -7.453125 C 0.851562 -8.253906 1.140625 -8.847656 1.453125 -9.234375 C 1.765625 -9.628906 2.09375 -9.921875 2.4375 -10.109375 C 2.789062 -10.304688 3.101562 -10.398438 3.375 -10.390625 C 3.65625 -10.378906 3.890625 -10.3125 4.078125 -10.1875 C 4.878906 -9.695312 5.046875 -8.375 4.578125 -6.21875 L 4.1875 -6.515625 C 4.195312 -6.566406 4.207031 -6.632812 4.21875 -6.71875 C 4.226562 -6.800781 4.238281 -6.953125 4.25 -7.171875 C 4.257812 -7.390625 4.253906 -7.582031 4.234375 -7.75 C 4.222656 -7.914062 4.175781 -8.066406 4.09375 -8.203125 C 4.019531 -8.347656 3.910156 -8.425781 3.765625 -8.4375 C 3.691406 -8.445312 3.628906 -8.445312 3.578125 -8.4375 C 3.523438 -8.425781 3.429688 -8.359375 3.296875 -8.234375 C 3.160156 -8.117188 3.039062 -7.945312 2.9375 -7.71875 C 2.84375 -7.488281 2.738281 -7.117188 2.625 -6.609375 C 2.507812 -6.109375 2.425781 -5.503906 2.375 -4.796875 C 2.269531 -3.671875 2.265625 -2.816406 2.359375 -2.234375 C 2.460938 -1.648438 2.617188 -1.253906 2.828125 -1.046875 C 3.035156 -0.847656 3.296875 -0.832031 3.609375 -1 C 3.929688 -1.175781 4.265625 -1.457031 4.609375 -1.84375 C 4.960938 -2.238281 5.332031 -2.738281 5.71875 -3.34375 Z M 5.71875 -3.34375 "/></g></g></g><g fill="#ffffff" fill-opacity="1"><g transform="translate(14.659093, 16.482509)"><g><path d="M 5.453125 -8.3125 C 5.273438 -3.289062 5.390625 -0.660156 5.796875 -0.421875 C 5.722656 -0.179688 5.519531 0.0351562 5.1875 0.234375 C 4.851562 0.429688 4.550781 0.539062 4.28125 0.5625 C 3.738281 0.601562 3.378906 0.222656 3.203125 -0.578125 C 3.023438 -1.378906 2.972656 -2.472656 3.046875 -3.859375 C 2.867188 -3.867188 2.738281 -3.875 2.65625 -3.875 L 2.1875 -3.921875 C 1.976562 -3.941406 1.828125 -3.953125 1.734375 -3.953125 C 1.703125 -3.953125 1.660156 -3.957031 1.609375 -3.96875 C 1.554688 -3.976562 1.519531 -3.984375 1.5 -3.984375 C 1.488281 -3.984375 1.457031 -3.984375 1.40625 -3.984375 C 1.363281 -3.984375 1.328125 -3.984375 1.296875 -3.984375 C 1.203125 -3.992188 1.070312 -4.007812 0.90625 -4.03125 C 0.894531 -4.03125 0.878906 -4.03125 0.859375 -4.03125 C 0.847656 -4.039062 0.835938 -4.046875 0.828125 -4.046875 C 0.765625 -3.578125 0.6875 -2.9375 0.59375 -2.125 C 0.5 -1.3125 0.421875 -0.695312 0.359375 -0.28125 C 0.296875 0.125 0.234375 0.394531 0.171875 0.53125 C 0.0976562 0.78125 -0.109375 1.003906 -0.453125 1.203125 C -0.804688 1.398438 -1.113281 1.503906 -1.375 1.515625 C -1.164062 0.171875 -0.941406 -1.054688 -0.703125 -2.171875 C -0.460938 -3.285156 -0.226562 -4.234375 0 -5.015625 C 0.21875 -5.804688 0.457031 -6.503906 0.71875 -7.109375 C 0.976562 -7.722656 1.207031 -8.21875 1.40625 -8.59375 C 1.613281 -8.976562 1.84375 -9.296875 2.09375 -9.546875 C 2.34375 -9.804688 2.546875 -9.992188 2.703125 -10.109375 C 2.867188 -10.234375 3.0625 -10.316406 3.28125 -10.359375 C 3.507812 -10.398438 3.664062 -10.414062 3.75 -10.40625 C 3.84375 -10.40625 3.96875 -10.394531 4.125 -10.375 C 4.175781 -10.375 4.238281 -10.363281 4.3125 -10.34375 L 4.34375 -10.34375 C 5.0625 -10.164062 5.429688 -9.570312 5.453125 -8.5625 Z M 2.703125 -4.5 C 2.867188 -4.476562 2.992188 -4.46875 3.078125 -4.46875 C 3.085938 -4.613281 3.101562 -4.828125 3.125 -5.109375 C 3.144531 -5.398438 3.160156 -5.625 3.171875 -5.78125 C 3.179688 -5.84375 3.195312 -6.007812 3.21875 -6.28125 C 3.25 -6.550781 3.265625 -6.765625 3.265625 -6.921875 C 3.273438 -7.085938 3.285156 -7.304688 3.296875 -7.578125 C 3.316406 -7.847656 3.320312 -8.066406 3.3125 -8.234375 C 3.300781 -8.410156 3.28125 -8.582031 3.25 -8.75 C 3.226562 -8.925781 3.1875 -9.054688 3.125 -9.140625 C 3.0625 -9.222656 2.984375 -9.265625 2.890625 -9.265625 C 2.035156 -9.234375 1.378906 -7.710938 0.921875 -4.703125 C 0.953125 -4.703125 0.976562 -4.703125 1 -4.703125 L 1.375 -4.65625 C 1.382812 -4.644531 1.410156 -4.640625 1.453125 -4.640625 C 1.503906 -4.640625 1.539062 -4.632812 1.5625 -4.625 C 1.59375 -4.613281 1.628906 -4.601562 1.671875 -4.59375 C 1.722656 -4.59375 1.765625 -4.59375 1.796875 -4.59375 C 1.890625 -4.582031 2.035156 -4.570312 2.234375 -4.5625 C 2.347656 -4.539062 2.503906 -4.519531 2.703125 -4.5 Z M 2.703125 -4.5 "/></g></g></g><g fill="#ffffff" fill-opacity="1"><g transform="translate(26.495815, 16.482509)"><g><path d="M 9.515625 -7.546875 C 9.328125 -3.191406 9.441406 -0.910156 9.859375 -0.703125 C 9.785156 -0.503906 9.582031 -0.320312 9.25 -0.15625 C 8.914062 0.0078125 8.613281 0.101562 8.34375 0.125 C 8.0625 0.144531 7.820312 0.0625 7.625 -0.125 C 7.4375 -0.320312 7.304688 -0.601562 7.234375 -0.96875 C 7.160156 -1.332031 7.109375 -1.726562 7.078125 -2.15625 C 7.054688 -2.582031 7.066406 -3.078125 7.109375 -3.640625 C 7.148438 -4.210938 7.191406 -4.726562 7.234375 -5.1875 C 7.273438 -5.65625 7.328125 -6.171875 7.390625 -6.734375 C 7.453125 -7.304688 7.492188 -7.742188 7.515625 -8.046875 C 7.535156 -8.234375 7.492188 -8.351562 7.390625 -8.40625 C 7.285156 -8.46875 7.164062 -8.460938 7.03125 -8.390625 C 6.90625 -8.316406 6.800781 -8.222656 6.71875 -8.109375 C 6.675781 -8.054688 6.648438 -8.015625 6.640625 -7.984375 C 6.523438 -7.785156 6.429688 -7.597656 6.359375 -7.421875 C 6.191406 -7.035156 6.046875 -6.566406 5.921875 -6.015625 C 5.847656 -5.660156 5.800781 -5.390625 5.78125 -5.203125 C 5.71875 -4.929688 5.675781 -4.648438 5.65625 -4.359375 L 5.53125 -3.484375 C 5.53125 -3.429688 5.519531 -3.351562 5.5 -3.25 C 5.5 -3.238281 5.492188 -3.21875 5.484375 -3.1875 C 5.472656 -3.164062 5.46875 -3.144531 5.46875 -3.125 C 5.46875 -3.113281 5.457031 -3.085938 5.4375 -3.046875 C 5.4375 -3.023438 5.429688 -3.007812 5.421875 -3 C 5.421875 -2.988281 5.421875 -2.976562 5.421875 -2.96875 L 5.390625 -2.9375 L 5.390625 -2.921875 L 5.359375 -2.90625 C 5.335938 -2.882812 5.316406 -2.867188 5.296875 -2.859375 C 5.285156 -2.835938 5.257812 -2.828125 5.21875 -2.828125 L 5.140625 -2.828125 C 5.117188 -2.835938 5.09375 -2.847656 5.0625 -2.859375 C 5.0625 -2.867188 5.0625 -2.875 5.0625 -2.875 C 5.039062 -2.875 5.03125 -2.878906 5.03125 -2.890625 L 4.984375 -2.921875 C 4.972656 -2.921875 4.960938 -2.929688 4.953125 -2.953125 L 4.9375 -2.984375 L 4.9375 -3 C 4.9375 -3.007812 4.9375 -3.019531 4.9375 -3.03125 C 4.914062 -3.0625 4.898438 -3.082031 4.890625 -3.09375 C 4.890625 -3.101562 4.882812 -3.113281 4.875 -3.125 C 4.875 -3.144531 4.875 -3.15625 4.875 -3.15625 C 4.84375 -3.269531 4.820312 -3.347656 4.8125 -3.390625 C 4.800781 -3.460938 4.78125 -3.546875 4.75 -3.640625 C 4.726562 -3.742188 4.710938 -3.816406 4.703125 -3.859375 C 4.703125 -3.910156 4.691406 -3.984375 4.671875 -4.078125 C 4.660156 -4.179688 4.648438 -4.265625 4.640625 -4.328125 C 4.617188 -4.421875 4.59375 -4.566406 4.5625 -4.765625 C 4.53125 -4.972656 4.503906 -5.132812 4.484375 -5.25 C 4.472656 -5.34375 4.445312 -5.492188 4.40625 -5.703125 C 4.375 -5.910156 4.351562 -6.0625 4.34375 -6.15625 C 4.332031 -6.21875 4.3125 -6.296875 4.28125 -6.390625 C 4.257812 -6.492188 4.242188 -6.566406 4.234375 -6.609375 C 4.210938 -6.734375 4.175781 -6.878906 4.125 -7.046875 C 4.113281 -6.992188 4.109375 -6.960938 4.109375 -6.953125 C 4.097656 -6.921875 4.082031 -6.878906 4.0625 -6.828125 C 4.050781 -6.785156 4.039062 -6.753906 4.03125 -6.734375 L 3.984375 -6.53125 C 3.972656 -6.488281 3.957031 -6.421875 3.9375 -6.328125 C 3.84375 -5.835938 3.753906 -5.289062 3.671875 -4.6875 C 3.648438 -4.550781 3.625 -4.378906 3.59375 -4.171875 C 3.570312 -3.972656 3.550781 -3.789062 3.53125 -3.625 C 3.519531 -3.46875 3.503906 -3.316406 3.484375 -3.171875 C 3.378906 -2.367188 3.328125 -1.953125 3.328125 -1.921875 L 3.171875 -0.9375 C 3.171875 -0.914062 3.164062 -0.882812 3.15625 -0.84375 C 3.15625 -0.800781 3.15625 -0.773438 3.15625 -0.765625 C 3.132812 -0.671875 3.125 -0.609375 3.125 -0.578125 C 3.113281 -0.554688 3.09375 -0.46875 3.0625 -0.3125 C 3.0625 -0.269531 3.054688 -0.238281 3.046875 -0.21875 L 3.046875 -0.203125 C 2.984375 0.0976562 2.835938 0.335938 2.609375 0.515625 C 2.378906 0.703125 2.160156 0.820312 1.953125 0.875 C 1.753906 0.925781 1.554688 0.953125 1.359375 0.953125 C 1.023438 0.960938 0.753906 0.785156 0.546875 0.421875 C 0.347656 0.0546875 0.21875 -0.414062 0.15625 -1 C 0.101562 -1.59375 0.078125 -2.257812 0.078125 -3 C 0.078125 -3.75 0.113281 -4.503906 0.1875 -5.265625 C 0.257812 -6.023438 0.316406 -6.753906 0.359375 -7.453125 C 0.410156 -8.148438 0.453125 -8.742188 0.484375 -9.234375 C 0.523438 -9.722656 0.515625 -10.078125 0.453125 -10.296875 C 0.492188 -10.304688 0.546875 -10.316406 0.609375 -10.328125 C 0.671875 -10.335938 0.789062 -10.347656 0.96875 -10.359375 C 1.15625 -10.367188 1.328125 -10.359375 1.484375 -10.328125 C 1.648438 -10.304688 1.828125 -10.253906 2.015625 -10.171875 C 2.210938 -10.097656 2.375 -9.988281 2.5 -9.84375 C 2.632812 -9.707031 2.738281 -9.507812 2.8125 -9.25 C 2.894531 -9 2.925781 -8.695312 2.90625 -8.34375 C 2.789062 -7.082031 2.71875 -5.660156 2.6875 -4.078125 C 2.71875 -4.171875 2.753906 -4.300781 2.796875 -4.46875 C 2.835938 -4.632812 2.867188 -4.753906 2.890625 -4.828125 C 2.984375 -5.179688 3.054688 -5.453125 3.109375 -5.640625 C 3.128906 -5.734375 3.164062 -5.867188 3.21875 -6.046875 L 3.34375 -6.484375 C 3.34375 -6.492188 3.347656 -6.523438 3.359375 -6.578125 C 3.378906 -6.628906 3.390625 -6.671875 3.390625 -6.703125 C 3.429688 -6.796875 3.457031 -6.863281 3.46875 -6.90625 C 3.488281 -6.957031 3.515625 -7.03125 3.546875 -7.125 C 3.578125 -7.207031 3.609375 -7.285156 3.640625 -7.359375 C 3.660156 -7.410156 3.679688 -7.453125 3.703125 -7.484375 C 3.710938 -7.515625 3.734375 -7.554688 3.765625 -7.609375 L 3.84375 -7.6875 C 3.875 -7.71875 3.90625 -7.742188 3.9375 -7.765625 C 3.96875 -7.785156 4 -7.796875 4.03125 -7.796875 C 4.039062 -7.804688 4.066406 -7.8125 4.109375 -7.8125 L 4.15625 -7.8125 C 4.207031 -7.8125 4.25 -7.800781 4.28125 -7.78125 C 4.320312 -7.769531 4.347656 -7.753906 4.359375 -7.734375 C 4.398438 -7.703125 4.429688 -7.675781 4.453125 -7.65625 C 4.460938 -7.632812 4.476562 -7.601562 4.5 -7.5625 C 4.519531 -7.53125 4.539062 -7.488281 4.5625 -7.4375 C 4.601562 -7.34375 4.628906 -7.265625 4.640625 -7.203125 C 4.703125 -6.953125 4.738281 -6.796875 4.75 -6.734375 C 4.769531 -6.617188 4.796875 -6.457031 4.828125 -6.25 C 4.867188 -6.039062 4.914062 -5.734375 4.96875 -5.328125 C 4.976562 -5.285156 4.988281 -5.207031 5 -5.09375 C 5.019531 -4.988281 5.035156 -4.910156 5.046875 -4.859375 C 5.054688 -4.804688 5.066406 -4.726562 5.078125 -4.625 C 5.085938 -4.519531 5.097656 -4.445312 5.109375 -4.40625 L 5.15625 -4.078125 C 5.164062 -4.117188 5.175781 -4.175781 5.1875 -4.25 C 5.195312 -4.320312 5.203125 -4.378906 5.203125 -4.421875 L 5.328125 -5.28125 C 5.347656 -5.4375 5.398438 -5.710938 5.484375 -6.109375 C 5.503906 -6.179688 5.535156 -6.300781 5.578125 -6.46875 C 5.617188 -6.644531 5.648438 -6.78125 5.671875 -6.875 C 5.804688 -7.25 5.890625 -7.484375 5.921875 -7.578125 C 5.984375 -7.765625 6.085938 -7.976562 6.234375 -8.21875 C 6.328125 -8.40625 6.453125 -8.582031 6.609375 -8.75 C 6.765625 -8.90625 6.914062 -9.023438 7.0625 -9.109375 C 7.070312 -9.109375 7.078125 -9.109375 7.078125 -9.109375 C 7.085938 -9.109375 7.09375 -9.113281 7.09375 -9.125 C 7.25 -9.195312 7.421875 -9.253906 7.609375 -9.296875 C 7.628906 -9.296875 7.644531 -9.300781 7.65625 -9.3125 C 7.695312 -9.320312 7.757812 -9.328125 7.84375 -9.328125 C 7.925781 -9.335938 8.070312 -9.332031 8.28125 -9.3125 C 8.5 -9.289062 8.6875 -9.234375 8.84375 -9.140625 C 9.007812 -9.054688 9.160156 -8.894531 9.296875 -8.65625 C 9.429688 -8.414062 9.503906 -8.117188 9.515625 -7.765625 Z M 4 -7.328125 L 4.015625 -7.328125 Z M 5.015625 -3.1875 Z M 5.015625 -3.1875 "/></g></g></g><g fill="#ffffff" fill-opacity="1"><g transform="translate(42.115953, 16.482509)"><g><path d="M 5.453125 -8.3125 C 5.273438 -3.289062 5.390625 -0.660156 5.796875 -0.421875 C 5.722656 -0.179688 5.519531 0.0351562 5.1875 0.234375 C 4.851562 0.429688 4.550781 0.539062 4.28125 0.5625 C 3.738281 0.601562 3.378906 0.222656 3.203125 -0.578125 C 3.023438 -1.378906 2.972656 -2.472656 3.046875 -3.859375 C 2.867188 -3.867188 2.738281 -3.875 2.65625 -3.875 L 2.1875 -3.921875 C 1.976562 -3.941406 1.828125 -3.953125 1.734375 -3.953125 C 1.703125 -3.953125 1.660156 -3.957031 1.609375 -3.96875 C 1.554688 -3.976562 1.519531 -3.984375 1.5 -3.984375 C 1.488281 -3.984375 1.457031 -3.984375 1.40625 -3.984375 C 1.363281 -3.984375 1.328125 -3.984375 1.296875 -3.984375 C 1.203125 -3.992188 1.070312 -4.007812 0.90625 -4.03125 C 0.894531 -4.03125 0.878906 -4.03125 0.859375 -4.03125 C 0.847656 -4.039062 0.835938 -4.046875 0.828125 -4.046875 C 0.765625 -3.578125 0.6875 -2.9375 0.59375 -2.125 C 0.5 -1.3125 0.421875 -0.695312 0.359375 -0.28125 C 0.296875 0.125 0.234375 0.394531 0.171875 0.53125 C 0.0976562 0.78125 -0.109375 1.003906 -0.453125 1.203125 C -0.804688 1.398438 -1.113281 1.503906 -1.375 1.515625 C -1.164062 0.171875 -0.941406 -1.054688 -0.703125 -2.171875 C -0.460938 -3.285156 -0.226562 -4.234375 0 -5.015625 C 0.21875 -5.804688 0.457031 -6.503906 0.71875 -7.109375 C 0.976562 -7.722656 1.207031 -8.21875 1.40625 -8.59375 C 1.613281 -8.976562 1.84375 -9.296875 2.09375 -9.546875 C 2.34375 -9.804688 2.546875 -9.992188 2.703125 -10.109375 C 2.867188 -10.234375 3.0625 -10.316406 3.28125 -10.359375 C 3.507812 -10.398438 3.664062 -10.414062 3.75 -10.40625 C 3.84375 -10.40625 3.96875 -10.394531 4.125 -10.375 C 4.175781 -10.375 4.238281 -10.363281 4.3125 -10.34375 L 4.34375 -10.34375 C 5.0625 -10.164062 5.429688 -9.570312 5.453125 -8.5625 Z M 2.703125 -4.5 C 2.867188 -4.476562 2.992188 -4.46875 3.078125 -4.46875 C 3.085938 -4.613281 3.101562 -4.828125 3.125 -5.109375 C 3.144531 -5.398438 3.160156 -5.625 3.171875 -5.78125 C 3.179688 -5.84375 3.195312 -6.007812 3.21875 -6.28125 C 3.25 -6.550781 3.265625 -6.765625 3.265625 -6.921875 C 3.273438 -7.085938 3.285156 -7.304688 3.296875 -7.578125 C 3.316406 -7.847656 3.320312 -8.066406 3.3125 -8.234375 C 3.300781 -8.410156 3.28125 -8.582031 3.25 -8.75 C 3.226562 -8.925781 3.1875 -9.054688 3.125 -9.140625 C 3.0625 -9.222656 2.984375 -9.265625 2.890625 -9.265625 C 2.035156 -9.234375 1.378906 -7.710938 0.921875 -4.703125 C 0.953125 -4.703125 0.976562 -4.703125 1 -4.703125 L 1.375 -4.65625 C 1.382812 -4.644531 1.410156 -4.640625 1.453125 -4.640625 C 1.503906 -4.640625 1.539062 -4.632812 1.5625 -4.625 C 1.59375 -4.613281 1.628906 -4.601562 1.671875 -4.59375 C 1.722656 -4.59375 1.765625 -4.59375 1.796875 -4.59375 C 1.890625 -4.582031 2.035156 -4.570312 2.234375 -4.5625 C 2.347656 -4.539062 2.503906 -4.519531 2.703125 -4.5 Z M 2.703125 -4.5 "/></g></g></g><g fill="#ffffff" fill-opacity="1"><g transform="translate(53.952676, 16.482509)"><g><path d="M 6.875 -3.484375 L 7.1875 -3.328125 C 7.175781 -3.304688 7.164062 -3.28125 7.15625 -3.25 L 7.046875 -3.03125 C 6.941406 -2.832031 6.796875 -2.578125 6.609375 -2.265625 C 6.535156 -2.140625 6.425781 -1.972656 6.28125 -1.765625 C 6.175781 -1.597656 6.046875 -1.425781 5.890625 -1.25 C 5.710938 -1.039062 5.539062 -0.867188 5.375 -0.734375 C 5.289062 -0.660156 5.179688 -0.585938 5.046875 -0.515625 C 4.953125 -0.472656 4.878906 -0.445312 4.828125 -0.4375 C 4.753906 -0.414062 4.675781 -0.40625 4.59375 -0.40625 C 4.539062 -0.40625 4.457031 -0.410156 4.34375 -0.421875 C 4.332031 -0.429688 4.296875 -0.445312 4.234375 -0.46875 L 4.234375 -0.484375 L 4.21875 -0.484375 L 4.203125 -0.5 L 4.1875 -0.5 L 4.171875 -0.515625 L 4.15625 -0.515625 L 4.140625 -0.53125 C 4.117188 -0.53125 4.097656 -0.535156 4.078125 -0.546875 C 4.066406 -0.566406 4.054688 -0.578125 4.046875 -0.578125 C 4.035156 -0.578125 4.019531 -0.585938 4 -0.609375 C 3.988281 -0.628906 3.976562 -0.640625 3.96875 -0.640625 C 3.894531 -0.691406 3.84375 -0.734375 3.8125 -0.765625 C 3.6875 -0.867188 3.59375 -0.953125 3.53125 -1.015625 C 3.382812 -1.191406 3.304688 -1.285156 3.296875 -1.296875 C 3.140625 -1.503906 3.015625 -1.6875 2.921875 -1.84375 C 2.878906 -1.90625 2.828125 -1.992188 2.765625 -2.109375 C 2.703125 -2.222656 2.648438 -2.304688 2.609375 -2.359375 L 2.515625 -2.5625 C 2.492188 -0.894531 2.59375 0.0078125 2.8125 0.15625 C 2.738281 0.375 2.53125 0.566406 2.1875 0.734375 C 1.84375 0.910156 1.535156 1.003906 1.265625 1.015625 C 0.941406 1.015625 0.675781 0.832031 0.46875 0.46875 C 0.269531 0.113281 0.140625 -0.359375 0.078125 -0.953125 C 0.0234375 -1.546875 0 -2.210938 0 -2.953125 C 0 -3.703125 0.03125 -4.457031 0.09375 -5.21875 C 0.164062 -5.976562 0.222656 -6.707031 0.265625 -7.40625 C 0.316406 -8.101562 0.359375 -8.695312 0.390625 -9.1875 C 0.429688 -9.6875 0.421875 -10.046875 0.359375 -10.265625 C 0.398438 -10.273438 0.453125 -10.28125 0.515625 -10.28125 C 0.578125 -10.289062 0.695312 -10.300781 0.875 -10.3125 C 1.050781 -10.320312 1.21875 -10.316406 1.375 -10.296875 C 1.539062 -10.273438 1.71875 -10.222656 1.90625 -10.140625 C 2.101562 -10.054688 2.269531 -9.941406 2.40625 -9.796875 C 2.539062 -9.660156 2.644531 -9.460938 2.71875 -9.203125 C 2.800781 -8.953125 2.828125 -8.648438 2.796875 -8.296875 C 2.773438 -7.941406 2.75 -7.519531 2.71875 -7.03125 C 3.3125 -8.3125 4.003906 -8.894531 4.796875 -8.78125 C 5.347656 -8.71875 5.601562 -8.320312 5.5625 -7.59375 C 5.53125 -6.78125 5.179688 -5.90625 4.515625 -4.96875 C 4.054688 -4.3125 3.523438 -3.785156 2.921875 -3.390625 C 3.003906 -3.160156 3.101562 -2.914062 3.21875 -2.65625 C 3.332031 -2.394531 3.410156 -2.226562 3.453125 -2.15625 C 3.546875 -1.96875 3.644531 -1.789062 3.75 -1.625 C 3.84375 -1.476562 3.972656 -1.3125 4.140625 -1.125 C 4.148438 -1.125 4.164062 -1.109375 4.1875 -1.078125 C 4.21875 -1.054688 4.242188 -1.035156 4.265625 -1.015625 C 4.285156 -1.003906 4.304688 -0.992188 4.328125 -0.984375 C 4.335938 -0.972656 4.351562 -0.957031 4.375 -0.9375 L 4.390625 -0.921875 L 4.40625 -0.921875 L 4.40625 -0.90625 L 4.4375 -0.90625 L 4.4375 -0.890625 C 4.445312 -0.890625 4.453125 -0.890625 4.453125 -0.890625 C 4.460938 -0.890625 4.472656 -0.890625 4.484375 -0.890625 C 4.503906 -0.878906 4.539062 -0.875 4.59375 -0.875 C 4.675781 -0.875 4.757812 -0.890625 4.84375 -0.921875 C 4.875 -0.929688 4.898438 -0.945312 4.921875 -0.96875 C 4.953125 -0.988281 4.984375 -1.007812 5.015625 -1.03125 C 5.046875 -1.050781 5.078125 -1.066406 5.109375 -1.078125 C 5.253906 -1.191406 5.40625 -1.335938 5.5625 -1.515625 C 5.59375 -1.554688 5.726562 -1.71875 5.96875 -2 C 6 -2.039062 6.050781 -2.113281 6.125 -2.21875 C 6.195312 -2.332031 6.25 -2.414062 6.28125 -2.46875 C 6.351562 -2.59375 6.441406 -2.742188 6.546875 -2.921875 C 6.660156 -3.097656 6.722656 -3.191406 6.734375 -3.203125 C 6.742188 -3.234375 6.757812 -3.269531 6.78125 -3.3125 C 6.8125 -3.363281 6.832031 -3.394531 6.84375 -3.40625 Z M 4.3125 -8.21875 C 4.101562 -8.226562 3.894531 -8.054688 3.6875 -7.703125 C 3.476562 -7.359375 3.296875 -6.914062 3.140625 -6.375 C 2.984375 -5.84375 2.859375 -5.390625 2.765625 -5.015625 C 2.671875 -4.648438 2.601562 -4.328125 2.5625 -4.046875 L 2.5625 -3.953125 C 3.238281 -4.421875 3.796875 -5.171875 4.234375 -6.203125 C 4.597656 -7.046875 4.710938 -7.648438 4.578125 -8.015625 C 4.515625 -8.140625 4.425781 -8.207031 4.3125 -8.21875 Z M 4.3125 -8.21875 "/></g></g></g><g fill="#ffffff" fill-opacity="1"><g transform="translate(65.927474, 16.482509)"><g><path d="M 5.90625 -2.984375 L 6.296875 -2.796875 C 5.785156 -1.910156 5.242188 -1.164062 4.671875 -0.5625 C 4.097656 0.0390625 3.554688 0.457031 3.046875 0.6875 C 2.535156 0.925781 2.054688 1 1.609375 0.90625 C 1.160156 0.820312 0.800781 0.5625 0.53125 0.125 C 0.289062 -0.226562 0.132812 -0.84375 0.0625 -1.71875 C 0 -2.59375 -0.015625 -3.394531 0.015625 -4.125 C 0.046875 -4.851562 0.113281 -5.835938 0.21875 -7.078125 C 0.320312 -8.328125 0.382812 -9.101562 0.40625 -9.40625 C 0.414062 -9.84375 0.585938 -10.171875 0.921875 -10.390625 C 1.265625 -10.609375 1.679688 -10.722656 2.171875 -10.734375 C 2.671875 -10.753906 3.164062 -10.738281 3.65625 -10.6875 C 4.15625 -10.632812 4.613281 -10.578125 5.03125 -10.515625 C 5.457031 -10.453125 5.71875 -10.4375 5.8125 -10.46875 C 5.820312 -10.4375 5.828125 -10.390625 5.828125 -10.328125 C 5.835938 -10.273438 5.84375 -10.164062 5.84375 -10 C 5.851562 -9.84375 5.851562 -9.691406 5.84375 -9.546875 C 5.832031 -9.410156 5.796875 -9.253906 5.734375 -9.078125 C 5.679688 -8.910156 5.609375 -8.769531 5.515625 -8.65625 C 5.429688 -8.539062 5.300781 -8.445312 5.125 -8.375 C 4.957031 -8.3125 4.757812 -8.300781 4.53125 -8.34375 C 3.695312 -8.457031 3.117188 -8.523438 2.796875 -8.546875 C 2.710938 -7.734375 2.644531 -6.800781 2.59375 -5.75 C 2.664062 -5.71875 2.773438 -5.6875 2.921875 -5.65625 C 2.953125 -5.644531 2.984375 -5.632812 3.015625 -5.625 C 3.054688 -5.613281 3.09375 -5.609375 3.125 -5.609375 C 3.144531 -5.597656 3.171875 -5.59375 3.203125 -5.59375 C 3.210938 -5.582031 3.226562 -5.578125 3.25 -5.578125 C 3.269531 -5.578125 3.28125 -5.570312 3.28125 -5.5625 C 3.300781 -5.5625 3.328125 -5.554688 3.359375 -5.546875 C 3.398438 -5.546875 3.429688 -5.546875 3.453125 -5.546875 C 3.472656 -5.535156 3.492188 -5.53125 3.515625 -5.53125 C 3.554688 -5.53125 3.582031 -5.53125 3.59375 -5.53125 L 3.875 -5.53125 L 3.9375 -4.96875 L 3.875 -4.96875 C 3.863281 -4.957031 3.847656 -4.953125 3.828125 -4.953125 L 3.390625 -4.953125 C 3.378906 -4.960938 3.347656 -4.96875 3.296875 -4.96875 C 3.253906 -4.96875 3.222656 -4.972656 3.203125 -4.984375 L 3.109375 -4.984375 C 3.085938 -4.992188 3.054688 -5 3.015625 -5 L 2.796875 -5.046875 C 2.773438 -5.054688 2.738281 -5.0625 2.6875 -5.0625 C 2.632812 -5.070312 2.59375 -5.078125 2.5625 -5.078125 C 2.46875 -2.960938 2.488281 -1.53125 2.625 -0.78125 C 2.75 -0.101562 3.171875 -0.0390625 3.890625 -0.59375 C 4.515625 -1.070312 5.1875 -1.867188 5.90625 -2.984375 Z M 5.90625 -2.984375 "/></g></g></g><g fill="#ffffff" fill-opacity="1"><g transform="translate(19.414041, 31.285139)"><g><path d="M 1.171875 0.109375 C 0.867188 0.109375 0.644531 -0.0234375 0.5 -0.296875 C 0.351562 -0.566406 0.28125 -0.882812 0.28125 -1.25 C 0.28125 -1.78125 0.40625 -2.332031 0.65625 -2.90625 C 0.914062 -3.488281 1.242188 -3.972656 1.640625 -4.359375 C 2.046875 -4.753906 2.460938 -4.953125 2.890625 -4.953125 C 3.078125 -4.953125 3.222656 -4.914062 3.328125 -4.84375 C 3.441406 -4.769531 3.5 -4.675781 3.5 -4.5625 C 3.5 -4.445312 3.457031 -4.316406 3.375 -4.171875 C 3.320312 -4.085938 3.273438 -4.046875 3.234375 -4.046875 C 3.203125 -4.046875 3.175781 -4.0625 3.15625 -4.09375 C 3.007812 -4.300781 2.820312 -4.40625 2.59375 -4.40625 C 2.3125 -4.40625 2.050781 -4.285156 1.8125 -4.046875 C 1.570312 -3.816406 1.382812 -3.507812 1.25 -3.125 C 1.113281 -2.738281 1.046875 -2.316406 1.046875 -1.859375 C 1.046875 -1.085938 1.257812 -0.703125 1.6875 -0.703125 C 1.90625 -0.703125 2.09375 -0.785156 2.25 -0.953125 C 2.414062 -1.117188 2.566406 -1.320312 2.703125 -1.5625 C 2.710938 -1.582031 2.726562 -1.609375 2.75 -1.640625 C 2.769531 -1.679688 2.789062 -1.707031 2.8125 -1.71875 C 2.832031 -1.726562 2.851562 -1.734375 2.875 -1.734375 C 2.894531 -1.734375 2.910156 -1.722656 2.921875 -1.703125 C 2.941406 -1.679688 2.953125 -1.648438 2.953125 -1.609375 C 2.953125 -1.410156 2.859375 -1.171875 2.671875 -0.890625 C 2.484375 -0.617188 2.25 -0.382812 1.96875 -0.1875 C 1.6875 0.0078125 1.421875 0.109375 1.171875 0.109375 Z M 1.171875 0.109375 "/></g></g></g><g fill="#ffffff" fill-opacity="1"><g transform="translate(27.423617, 31.285139)"><g><path d="M 0.8125 0.109375 C 0.457031 0.109375 0.28125 -0.226562 0.28125 -0.90625 C 0.28125 -1.550781 0.421875 -2.1875 0.703125 -2.8125 C 0.984375 -3.4375 1.363281 -3.945312 1.84375 -4.34375 C 2.320312 -4.75 2.835938 -4.953125 3.390625 -4.953125 C 3.671875 -4.953125 3.914062 -4.90625 4.125 -4.8125 C 4.039062 -4.457031 3.976562 -4.195312 3.9375 -4.03125 L 3.71875 -2.90625 C 3.53125 -2.019531 3.414062 -1.410156 3.375 -1.078125 C 3.363281 -1.023438 3.359375 -0.960938 3.359375 -0.890625 C 3.359375 -0.742188 3.40625 -0.671875 3.5 -0.671875 C 3.601562 -0.671875 3.703125 -0.738281 3.796875 -0.875 C 3.898438 -1.019531 4.015625 -1.222656 4.140625 -1.484375 C 4.148438 -1.492188 4.160156 -1.515625 4.171875 -1.546875 C 4.191406 -1.585938 4.21875 -1.609375 4.25 -1.609375 C 4.289062 -1.609375 4.3125 -1.566406 4.3125 -1.484375 L 4.28125 -1.3125 C 4.238281 -1.082031 4.140625 -0.851562 3.984375 -0.625 C 3.835938 -0.40625 3.671875 -0.226562 3.484375 -0.09375 C 3.304688 0.0390625 3.144531 0.109375 3 0.109375 C 2.75 0.109375 2.625 -0.0859375 2.625 -0.484375 C 2.625 -0.640625 2.644531 -0.796875 2.6875 -0.953125 L 2.859375 -1.859375 L 2.84375 -1.859375 C 2.519531 -1.273438 2.164062 -0.800781 1.78125 -0.4375 C 1.40625 -0.0703125 1.082031 0.109375 0.8125 0.109375 Z M 1.296875 -0.75 C 1.492188 -0.75 1.71875 -0.898438 1.96875 -1.203125 C 2.226562 -1.503906 2.460938 -1.875 2.671875 -2.3125 C 2.890625 -2.75 3.039062 -3.140625 3.125 -3.484375 L 3.296875 -4.15625 C 3.085938 -4.289062 2.867188 -4.359375 2.640625 -4.359375 C 2.347656 -4.359375 2.078125 -4.1875 1.828125 -3.84375 C 1.578125 -3.5 1.382812 -3.082031 1.25 -2.59375 C 1.113281 -2.101562 1.046875 -1.660156 1.046875 -1.265625 C 1.046875 -1.097656 1.0625 -0.96875 1.09375 -0.875 C 1.132812 -0.789062 1.203125 -0.75 1.296875 -0.75 Z M 1.296875 -0.75 "/></g></g></g><g fill="#ffffff" fill-opacity="1"><g transform="translate(36.48324, 31.285139)"><g><path d="M 0.328125 0.109375 C 0.285156 0.109375 0.265625 0.0859375 0.265625 0.046875 C 0.265625 0.015625 0.285156 -0.0625 0.328125 -0.1875 C 0.378906 -0.320312 0.410156 -0.441406 0.421875 -0.546875 L 1.09375 -4.671875 C 1.351562 -6.410156 1.84375 -7.628906 2.5625 -8.328125 C 2.78125 -8.535156 2.992188 -8.679688 3.203125 -8.765625 C 3.421875 -8.859375 3.644531 -8.921875 3.875 -8.953125 C 3.976562 -8.972656 4.070312 -9 4.15625 -9.03125 C 4.238281 -9.0625 4.289062 -9.078125 4.3125 -9.078125 C 4.363281 -9.078125 4.390625 -9.046875 4.390625 -8.984375 C 4.390625 -8.898438 4.320312 -8.800781 4.1875 -8.6875 C 4.113281 -8.625 4.046875 -8.582031 3.984375 -8.5625 C 3.929688 -8.539062 3.875 -8.523438 3.8125 -8.515625 C 3.757812 -8.515625 3.722656 -8.507812 3.703125 -8.5 C 3.503906 -8.46875 3.335938 -8.410156 3.203125 -8.328125 C 3.066406 -8.242188 2.925781 -8.117188 2.78125 -7.953125 C 2.5 -7.597656 2.289062 -7.175781 2.15625 -6.6875 C 2.019531 -6.207031 1.90625 -5.617188 1.8125 -4.921875 L 1.765625 -4.5625 L 1.453125 -2.625 L 1.46875 -2.625 L 1.71875 -3.046875 C 2.132812 -3.773438 2.5 -4.273438 2.8125 -4.546875 C 3.125 -4.816406 3.425781 -4.953125 3.71875 -4.953125 C 3.894531 -4.953125 4.035156 -4.910156 4.140625 -4.828125 C 4.253906 -4.753906 4.3125 -4.648438 4.3125 -4.515625 C 4.3125 -4.410156 4.285156 -4.304688 4.234375 -4.203125 C 4.179688 -4.097656 4.128906 -4.046875 4.078125 -4.046875 C 4.066406 -4.046875 4.050781 -4.050781 4.03125 -4.0625 C 4.019531 -4.082031 4.007812 -4.09375 4 -4.09375 C 3.914062 -4.175781 3.835938 -4.238281 3.765625 -4.28125 C 3.703125 -4.320312 3.628906 -4.34375 3.546875 -4.34375 C 3.328125 -4.34375 3.113281 -4.242188 2.90625 -4.046875 C 2.707031 -3.847656 2.484375 -3.554688 2.234375 -3.171875 L 1.890625 -2.65625 C 2.171875 -2.082031 2.4375 -1.609375 2.6875 -1.234375 C 2.9375 -0.867188 3.132812 -0.6875 3.28125 -0.6875 C 3.394531 -0.6875 3.578125 -0.863281 3.828125 -1.21875 C 3.878906 -1.28125 3.914062 -1.3125 3.9375 -1.3125 C 3.988281 -1.3125 4.015625 -1.273438 4.015625 -1.203125 L 4 -1.078125 C 3.976562 -0.953125 3.910156 -0.796875 3.796875 -0.609375 C 3.679688 -0.421875 3.550781 -0.253906 3.40625 -0.109375 C 3.257812 0.0351562 3.125 0.109375 3 0.109375 C 2.851562 0.109375 2.695312 -0.0078125 2.53125 -0.25 C 2.375 -0.488281 2.140625 -0.890625 1.828125 -1.453125 L 1.515625 -2.046875 C 1.484375 -1.984375 1.4375 -1.898438 1.375 -1.796875 C 1.320312 -1.691406 1.296875 -1.625 1.296875 -1.59375 L 1.140625 -0.65625 C 1.117188 -0.476562 1.015625 -0.304688 0.828125 -0.140625 C 0.648438 0.0234375 0.484375 0.109375 0.328125 0.109375 Z M 0.328125 0.109375 "/></g></g></g><g fill="#ffffff" fill-opacity="1"><g transform="translate(45.459698, 31.285139)"><g><path d="M 1.296875 0.109375 C 0.984375 0.109375 0.734375 -0.0078125 0.546875 -0.25 C 0.367188 -0.488281 0.28125 -0.820312 0.28125 -1.25 C 0.28125 -1.757812 0.398438 -2.304688 0.640625 -2.890625 C 0.890625 -3.484375 1.207031 -3.972656 1.59375 -4.359375 C 1.988281 -4.753906 2.382812 -4.953125 2.78125 -4.953125 C 3.132812 -4.953125 3.3125 -4.734375 3.3125 -4.296875 C 3.3125 -3.941406 3.207031 -3.59375 3 -3.25 C 2.789062 -2.914062 2.507812 -2.617188 2.15625 -2.359375 C 1.8125 -2.097656 1.429688 -1.898438 1.015625 -1.765625 C 1.015625 -1.390625 1.078125 -1.117188 1.203125 -0.953125 C 1.328125 -0.785156 1.503906 -0.703125 1.734375 -0.703125 C 1.984375 -0.703125 2.210938 -0.78125 2.421875 -0.9375 C 2.628906 -1.09375 2.804688 -1.3125 2.953125 -1.59375 C 2.972656 -1.632812 2.992188 -1.664062 3.015625 -1.6875 C 3.035156 -1.71875 3.0625 -1.734375 3.09375 -1.734375 C 3.15625 -1.734375 3.1875 -1.691406 3.1875 -1.609375 C 3.1875 -1.421875 3.09375 -1.1875 2.90625 -0.90625 C 2.71875 -0.632812 2.476562 -0.394531 2.1875 -0.1875 C 1.894531 0.0078125 1.597656 0.109375 1.296875 0.109375 Z M 1.359375 -2.3125 C 1.535156 -2.3125 1.722656 -2.375 1.921875 -2.5 C 2.128906 -2.625 2.300781 -2.796875 2.4375 -3.015625 C 2.582031 -3.242188 2.65625 -3.5 2.65625 -3.78125 C 2.65625 -4.101562 2.539062 -4.265625 2.3125 -4.265625 C 2.125 -4.265625 1.941406 -4.160156 1.765625 -3.953125 C 1.597656 -3.753906 1.457031 -3.503906 1.34375 -3.203125 C 1.226562 -2.910156 1.148438 -2.628906 1.109375 -2.359375 C 1.148438 -2.328125 1.234375 -2.3125 1.359375 -2.3125 Z M 1.359375 -2.3125 "/></g></g></g><g fill="#ffffff" fill-opacity="1"><g transform="translate(53.396499, 31.285139)"><g><path d="M 0.921875 0.109375 C 0.710938 0.109375 0.53125 0.0507812 0.375 -0.0625 C 0.21875 -0.1875 0.117188 -0.347656 0.078125 -0.546875 C 0.0546875 -0.597656 0.078125 -0.679688 0.140625 -0.796875 C 0.203125 -0.921875 0.28125 -1.046875 0.375 -1.171875 C 0.425781 -1.234375 0.472656 -1.265625 0.515625 -1.265625 C 0.546875 -1.265625 0.570312 -1.234375 0.59375 -1.171875 C 0.800781 -0.691406 1.085938 -0.453125 1.453125 -0.453125 C 1.640625 -0.453125 1.785156 -0.507812 1.890625 -0.625 C 2.003906 -0.738281 2.0625 -0.890625 2.0625 -1.078125 C 2.0625 -1.347656 1.910156 -1.691406 1.609375 -2.109375 L 1.390625 -2.421875 C 1.222656 -2.648438 1.109375 -2.835938 1.046875 -2.984375 C 0.984375 -3.140625 0.953125 -3.304688 0.953125 -3.484375 C 0.953125 -3.765625 1.023438 -4.015625 1.171875 -4.234375 C 1.316406 -4.453125 1.507812 -4.625 1.75 -4.75 C 2 -4.882812 2.253906 -4.953125 2.515625 -4.953125 C 3.015625 -4.953125 3.265625 -4.78125 3.265625 -4.4375 C 3.265625 -4.3125 3.21875 -4.1875 3.125 -4.0625 C 3.082031 -3.976562 3.039062 -3.9375 3 -3.9375 C 2.957031 -3.9375 2.921875 -3.976562 2.890625 -4.0625 C 2.816406 -4.195312 2.722656 -4.289062 2.609375 -4.34375 C 2.503906 -4.40625 2.367188 -4.4375 2.203125 -4.4375 C 2.015625 -4.4375 1.859375 -4.382812 1.734375 -4.28125 C 1.617188 -4.175781 1.5625 -4.046875 1.5625 -3.890625 C 1.5625 -3.796875 1.585938 -3.691406 1.640625 -3.578125 C 1.703125 -3.460938 1.816406 -3.289062 1.984375 -3.0625 L 2.203125 -2.75 C 2.398438 -2.5 2.535156 -2.28125 2.609375 -2.09375 C 2.679688 -1.914062 2.71875 -1.722656 2.71875 -1.515625 C 2.71875 -1.265625 2.632812 -1.007812 2.46875 -0.75 C 2.3125 -0.5 2.09375 -0.289062 1.8125 -0.125 C 1.53125 0.03125 1.234375 0.109375 0.921875 0.109375 Z M 0.921875 0.109375 "/></g></g></g></svg>