<svg xmlns="http://www.w3.org/2000/svg" xmlns:xlink="http://www.w3.org/1999/xlink" width="220" zoomAndPan="magnify" viewBox="0 0 165 52.499999" height="70" preserveAspectRatio="xMidYMid meet" version="1.0"><defs><g/><clipPath id="b118e4a187"><path d="M 79 8.769531 L 83 8.769531 L 83 13 L 79 13 Z M 79 8.769531 " clip-rule="nonzero"/></clipPath><clipPath id="34d0c2a799"><path d="M 82.1875 10.617188 L 84.207031 10.617188 L 84.207031 12.078125 L 82.1875 12.078125 Z M 82.1875 10.617188 " clip-rule="nonzero"/></clipPath><clipPath id="6dc7cacaa6"><path d="M 83.234375 11.238281 C 83.347656 11.183594 83.410156 11.167969 83.410156 11.167969 C 83.359375 11.175781 83.300781 11.203125 83.234375 11.238281 C 83.027344 11.335938 82.652344 11.566406 82.214844 12.0625 C 82.273438 11.886719 82.808594 10.4375 84.15625 10.675781 C 84.15625 10.675781 83.746094 11.859375 82.265625 12.074219 C 82.433594 11.898438 82.90625 11.421875 83.234375 11.238281 Z M 83.234375 11.238281 " clip-rule="nonzero"/></clipPath><clipPath id="5fb7f04b76"><path d="M 83.234375 11.238281 C 83.347656 11.183594 83.410156 11.167969 83.410156 11.167969 C 83.359375 11.175781 83.300781 11.203125 83.234375 11.238281 C 83.027344 11.335938 82.652344 11.566406 82.214844 12.0625 C 82.273438 11.886719 82.808594 10.4375 84.15625 10.675781 C 84.15625 10.675781 83.746094 11.859375 82.265625 12.074219 C 82.433594 11.898438 82.90625 11.421875 83.234375 11.238281 " clip-rule="nonzero"/></clipPath><clipPath id="7f8a9ee630"><path d="M 83.0625 13.042969 L 81.410156 11.152344 L 83.304688 9.46875 L 84.960938 11.359375 Z M 83.0625 13.042969 " clip-rule="nonzero"/></clipPath><linearGradient x1="0.237467" gradientTransform="matrix(3.110237, -2.762699, -2.743394, -3.132123, 81.517249, 12.777471)" y1="0" x2="0.818961" gradientUnits="userSpaceOnUse" y2="0" id="e506f99c5c"><stop stop-opacity="1" stop-color="rgb(18.399048%, 66.699219%, 30.198669%)" offset="0"/><stop stop-opacity="1" stop-color="rgb(18.548584%, 66.699219%, 30.198669%)" offset="0.015625"/><stop stop-opacity="1" stop-color="rgb(18.748474%, 66.854858%, 30.04303%)" offset="0.0234375"/><stop stop-opacity="1" stop-color="rgb(18.946838%, 67.054749%, 29.84314%)" offset="0.03125"/><stop stop-opacity="1" stop-color="rgb(19.267273%, 67.098999%, 29.798889%)" offset="0.046875"/><stop stop-opacity="1" stop-color="rgb(19.625854%, 67.098999%, 29.798889%)" offset="0.0546875"/><stop stop-opacity="1" stop-color="rgb(19.90509%, 67.098999%, 29.798889%)" offset="0.0625"/><stop stop-opacity="1" stop-color="rgb(20.089722%, 67.189026%, 29.798889%)" offset="0.0703125"/><stop stop-opacity="1" stop-color="rgb(20.289612%, 67.388916%, 29.708862%)" offset="0.078125"/><stop stop-opacity="1" stop-color="rgb(20.475769%, 67.498779%, 29.508972%)" offset="0.0859375"/><stop stop-opacity="1" stop-color="rgb(20.675659%, 67.498779%, 29.399109%)" offset="0.09375"/><stop stop-opacity="1" stop-color="rgb(20.848083%, 67.498779%, 29.399109%)" offset="0.101562"/><stop stop-opacity="1" stop-color="rgb(21.047974%, 67.498779%, 29.399109%)" offset="0.109375"/><stop stop-opacity="1" stop-color="rgb(21.244812%, 67.532349%, 29.399109%)" offset="0.117188"/><stop stop-opacity="1" stop-color="rgb(21.444702%, 67.683411%, 29.399109%)" offset="0.125"/><stop stop-opacity="1" stop-color="rgb(21.617126%, 67.799377%, 29.380798%)" offset="0.132812"/><stop stop-opacity="1" stop-color="rgb(21.817017%, 67.799377%, 29.180908%)" offset="0.140625"/><stop stop-opacity="1" stop-color="rgb(21.998596%, 67.799377%, 28.999329%)" offset="0.148438"/><stop stop-opacity="1" stop-color="rgb(22.200012%, 67.799377%, 28.999329%)" offset="0.152344"/><stop stop-opacity="1" stop-color="rgb(22.401428%, 67.799377%, 28.999329%)" offset="0.15625"/><stop stop-opacity="1" stop-color="rgb(22.549438%, 67.973328%, 28.999329%)" offset="0.171875"/><stop stop-opacity="1" stop-color="rgb(22.859192%, 68.173218%, 28.999329%)" offset="0.179688"/><stop stop-opacity="1" stop-color="rgb(23.059082%, 68.199158%, 28.999329%)" offset="0.1875"/><stop stop-opacity="1" stop-color="rgb(23.231506%, 68.199158%, 28.866577%)" offset="0.195312"/><stop stop-opacity="1" stop-color="rgb(23.431396%, 68.199158%, 28.666687%)" offset="0.203125"/><stop stop-opacity="1" stop-color="rgb(23.628235%, 68.199158%, 28.599548%)" offset="0.210938"/><stop stop-opacity="1" stop-color="rgb(23.829651%, 68.199158%, 28.599548%)" offset="0.21875"/><stop stop-opacity="1" stop-color="rgb(24.002075%, 68.301392%, 28.599548%)" offset="0.226562"/><stop stop-opacity="1" stop-color="rgb(24.201965%, 68.501282%, 28.599548%)" offset="0.234375"/><stop stop-opacity="1" stop-color="rgb(24.385071%, 68.598938%, 28.599548%)" offset="0.242188"/><stop stop-opacity="1" stop-color="rgb(24.584961%, 68.598938%, 28.512573%)" offset="0.25"/><stop stop-opacity="1" stop-color="rgb(24.771118%, 68.598938%, 28.312683%)" offset="0.257812"/><stop stop-opacity="1" stop-color="rgb(25.030518%, 68.598938%, 28.199768%)" offset="0.265625"/><stop stop-opacity="1" stop-color="rgb(25.357056%, 68.643188%, 28.199768%)" offset="0.273438"/><stop stop-opacity="1" stop-color="rgb(25.534058%, 68.843079%, 28.199768%)" offset="0.28125"/><stop stop-opacity="1" stop-color="rgb(25.761414%, 68.998718%, 28.199768%)" offset="0.296875"/><stop stop-opacity="1" stop-color="rgb(26.126099%, 68.998718%, 28.184509%)" offset="0.304688"/><stop stop-opacity="1" stop-color="rgb(26.298523%, 68.998718%, 27.984619%)" offset="0.3125"/><stop stop-opacity="1" stop-color="rgb(26.486206%, 68.998718%, 27.799988%)" offset="0.320312"/><stop stop-opacity="1" stop-color="rgb(26.686096%, 69.171143%, 27.799988%)" offset="0.328125"/><stop stop-opacity="1" stop-color="rgb(26.881409%, 69.371033%, 27.799988%)" offset="0.335938"/><stop stop-opacity="1" stop-color="rgb(27.081299%, 69.398499%, 27.799988%)" offset="0.34375"/><stop stop-opacity="1" stop-color="rgb(27.255249%, 69.398499%, 27.799988%)" offset="0.351562"/><stop stop-opacity="1" stop-color="rgb(27.455139%, 69.398499%, 27.799988%)" offset="0.359375"/><stop stop-opacity="1" stop-color="rgb(27.648926%, 69.529724%, 27.648926%)" offset="0.375"/><stop stop-opacity="1" stop-color="rgb(27.92511%, 69.73114%, 27.49939%)" offset="0.382812"/><stop stop-opacity="1" stop-color="rgb(28.237915%, 69.799805%, 27.49939%)" offset="0.390625"/><stop stop-opacity="1" stop-color="rgb(28.596497%, 69.799805%, 27.49939%)" offset="0.40625"/><stop stop-opacity="1" stop-color="rgb(28.883362%, 69.799805%, 27.49939%)" offset="0.414062"/><stop stop-opacity="1" stop-color="rgb(29.081726%, 69.880676%, 27.416992%)" offset="0.421875"/><stop stop-opacity="1" stop-color="rgb(29.336548%, 70.080566%, 27.217102%)" offset="0.4375"/><stop stop-opacity="1" stop-color="rgb(29.679871%, 70.199585%, 27.099609%)" offset="0.453125"/><stop stop-opacity="1" stop-color="rgb(30.024719%, 70.213318%, 27.099609%)" offset="0.460937"/><stop stop-opacity="1" stop-color="rgb(30.223083%, 70.413208%, 27.099609%)" offset="0.46875"/><stop stop-opacity="1" stop-color="rgb(30.422974%, 70.599365%, 27.088928%)" offset="0.476562"/><stop stop-opacity="1" stop-color="rgb(30.599976%, 70.599365%, 26.89209%)" offset="0.484375"/><stop stop-opacity="1" stop-color="rgb(30.781555%, 70.599365%, 26.702881%)" offset="0.492188"/><stop stop-opacity="1" stop-color="rgb(31.150818%, 70.599365%, 26.699829%)" offset="0.5"/><stop stop-opacity="1" stop-color="rgb(31.367493%, 70.599365%, 26.699829%)" offset="0.507812"/><stop stop-opacity="1" stop-color="rgb(31.565857%, 70.765686%, 26.699829%)" offset="0.515625"/><stop stop-opacity="1" stop-color="rgb(31.904602%, 70.965576%, 26.699829%)" offset="0.53125"/><stop stop-opacity="1" stop-color="rgb(32.138062%, 70.999146%, 26.574707%)" offset="0.539062"/><stop stop-opacity="1" stop-color="rgb(32.293701%, 70.999146%, 26.373291%)" offset="0.546875"/><stop stop-opacity="1" stop-color="rgb(32.553101%, 71.107483%, 26.298523%)" offset="0.5625"/><stop stop-opacity="1" stop-color="rgb(32.888794%, 71.307373%, 26.298523%)" offset="0.578125"/><stop stop-opacity="1" stop-color="rgb(33.241272%, 71.398926%, 26.237488%)" offset="0.59375"/><stop stop-opacity="1" stop-color="rgb(33.624268%, 71.398926%, 26.037598%)" offset="0.597656"/><stop stop-opacity="1" stop-color="rgb(33.828735%, 71.398926%, 25.898743%)" offset="0.601562"/><stop stop-opacity="1" stop-color="rgb(33.963013%, 71.44928%, 25.898743%)" offset="0.609375"/><stop stop-opacity="1" stop-color="rgb(34.135437%, 71.64917%, 25.898743%)" offset="0.617188"/><stop stop-opacity="1" stop-color="rgb(34.335327%, 71.798706%, 25.898743%)" offset="0.625"/><stop stop-opacity="1" stop-color="rgb(34.509277%, 71.798706%, 25.898743%)" offset="0.632812"/><stop stop-opacity="1" stop-color="rgb(34.709167%, 71.798706%, 25.898743%)" offset="0.640625"/><stop stop-opacity="1" stop-color="rgb(35.092163%, 71.798706%, 25.706482%)" offset="0.65625"/><stop stop-opacity="1" stop-color="rgb(35.292053%, 71.977234%, 25.506592%)" offset="0.664063"/><stop stop-opacity="1" stop-color="rgb(35.464478%, 72.177124%, 25.498962%)" offset="0.671875"/><stop stop-opacity="1" stop-color="rgb(35.664368%, 72.198486%, 25.498962%)" offset="0.679688"/><stop stop-opacity="1" stop-color="rgb(35.861206%, 72.198486%, 25.498962%)" offset="0.6875"/><stop stop-opacity="1" stop-color="rgb(36.196899%, 72.198486%, 25.498962%)" offset="0.703125"/><stop stop-opacity="1" stop-color="rgb(36.555481%, 72.288513%, 25.378418%)" offset="0.710937"/><stop stop-opacity="1" stop-color="rgb(36.819458%, 72.439575%, 25.178528%)" offset="0.71875"/><stop stop-opacity="1" stop-color="rgb(37.005615%, 72.499084%, 25.099182%)" offset="0.726562"/><stop stop-opacity="1" stop-color="rgb(37.205505%, 72.499084%, 25.099182%)" offset="0.734375"/><stop stop-opacity="1" stop-color="rgb(37.44812%, 72.499084%, 25.099182%)" offset="0.75"/><stop stop-opacity="1" stop-color="rgb(37.661743%, 72.561646%, 25.099182%)" offset="0.757812"/><stop stop-opacity="1" stop-color="rgb(37.861633%, 72.761536%, 25.042725%)" offset="0.765625"/><stop stop-opacity="1" stop-color="rgb(38.058472%, 72.898865%, 24.842834%)" offset="0.773438"/><stop stop-opacity="1" stop-color="rgb(38.258362%, 72.898865%, 24.699402%)" offset="0.78125"/><stop stop-opacity="1" stop-color="rgb(38.430786%, 72.898865%, 24.699402%)" offset="0.789063"/><stop stop-opacity="1" stop-color="rgb(38.630676%, 72.898865%, 24.699402%)" offset="0.796875"/><stop stop-opacity="1" stop-color="rgb(38.804626%, 72.904968%, 24.699402%)" offset="0.804687"/><stop stop-opacity="1" stop-color="rgb(39.021301%, 73.104858%, 24.699402%)" offset="0.808594"/><stop stop-opacity="1" stop-color="rgb(39.231873%, 73.298645%, 24.699402%)" offset="0.8125"/><stop stop-opacity="1" stop-color="rgb(39.414978%, 73.298645%, 24.510193%)" offset="0.828125"/><stop stop-opacity="1" stop-color="rgb(39.77356%, 73.298645%, 24.310303%)" offset="0.835938"/><stop stop-opacity="1" stop-color="rgb(39.97345%, 73.298645%, 24.299622%)" offset="0.84375"/><stop stop-opacity="1" stop-color="rgb(40.145874%, 73.298645%, 24.299622%)" offset="0.851562"/><stop stop-opacity="1" stop-color="rgb(40.345764%, 73.451233%, 24.299622%)" offset="0.859375"/><stop stop-opacity="1" stop-color="rgb(40.544128%, 73.651123%, 24.299622%)" offset="0.867188"/><stop stop-opacity="1" stop-color="rgb(40.744019%, 73.699951%, 24.299622%)" offset="0.875"/><stop stop-opacity="1" stop-color="rgb(40.916443%, 73.699951%, 24.182129%)" offset="0.882813"/><stop stop-opacity="1" stop-color="rgb(41.116333%, 73.699951%, 23.982239%)" offset="0.890625"/><stop stop-opacity="1" stop-color="rgb(41.300964%, 73.699951%, 23.899841%)" offset="0.898437"/><stop stop-opacity="1" stop-color="rgb(41.500854%, 73.799133%, 23.899841%)" offset="0.90625"/><stop stop-opacity="1" stop-color="rgb(41.685486%, 73.999023%, 23.899841%)" offset="0.914062"/><stop stop-opacity="1" stop-color="rgb(41.958618%, 74.099731%, 23.899841%)" offset="0.921875"/><stop stop-opacity="1" stop-color="rgb(42.311096%, 74.099731%, 23.847961%)" offset="0.9375"/><stop stop-opacity="1" stop-color="rgb(42.58728%, 74.156189%, 23.646545%)" offset="0.945312"/><stop stop-opacity="1" stop-color="rgb(42.741394%, 74.356079%, 23.498535%)" offset="0.953125"/><stop stop-opacity="1" stop-color="rgb(42.956543%, 74.499512%, 23.498535%)" offset="0.96875"/><stop stop-opacity="1" stop-color="rgb(43.313599%, 74.499512%, 23.498535%)" offset="0.984375"/><stop stop-opacity="1" stop-color="rgb(43.69812%, 74.499512%, 23.498535%)" offset="0.988281"/><stop stop-opacity="1" stop-color="rgb(43.896484%, 74.499512%, 23.498535%)" offset="0.992188"/><stop stop-opacity="1" stop-color="rgb(43.89801%, 74.684143%, 23.313904%)" offset="1"/></linearGradient><clipPath id="31e480442f"><path d="M 65.675781 26 L 99 26 L 99 38.488281 L 65.675781 38.488281 Z M 65.675781 26 " clip-rule="nonzero"/></clipPath></defs><g fill="#ffffff" fill-opacity="1"><g transform="translate(8.730176, 29.620636)"><g><path d="M -0.25 1.632812 C -0.25 4.792969 0.578125 10.566406 4.792969 10.566406 C 7.90625 10.566406 11.519531 6.699219 12.949219 4.792969 C 13.449219 4.117188 13.878906 3.464844 14.355469 2.761719 L 18.09375 -4.066406 C 18.09375 -4.242188 17.941406 -4.441406 17.71875 -4.441406 C 17.492188 -4.441406 17.191406 -4.265625 16.890625 -3.6875 C 15.058594 -0.199219 13.199219 3.511719 10.464844 6.296875 C 10.136719 6.625 9.886719 6.777344 9.5625 7.078125 L 8.707031 7.828125 C 7.703125 8.609375 6.25 9.535156 4.816406 9.535156 C 3.210938 9.535156 2.234375 8.304688 1.808594 6.902344 C 0.527344 3.539062 1.179688 -0.980469 1.882812 -4.316406 C 2.710938 -8.355469 4.71875 -14.304688 7.605469 -17.191406 C 8.457031 -18.042969 9.410156 -18.496094 10.238281 -18.496094 C 11.265625 -18.496094 12.070312 -17.742188 12.070312 -16.035156 C 12.070312 -13.324219 11.042969 -10.941406 10.039062 -8.632812 C 9.914062 -8.304688 9.761719 -8.003906 9.636719 -7.652344 C 9.386719 -7.175781 9.335938 -7.027344 9.761719 -6.726562 C 10.265625 -6.824219 10.289062 -7.027344 10.464844 -7.429688 C 11.46875 -9.460938 13.050781 -13.125 13.050781 -15.332031 C 13.050781 -16.613281 13.125 -17.492188 12.347656 -18.59375 C 11.769531 -19.375 11.015625 -19.699219 10.214844 -19.699219 C 9.132812 -19.699219 7.953125 -19.121094 7.027344 -18.394531 C 4.992188 -16.789062 3.414062 -13.675781 2.460938 -11.265625 C 1.105469 -7.828125 -0.25 -3.113281 -0.25 1.632812 Z M -0.25 1.632812 "/></g></g></g><g fill="#ffffff" fill-opacity="1"><g transform="translate(25.815908, 29.620636)"><g><path d="M 0 -2.535156 C 0 -1.632812 0.0742188 -1.203125 1.003906 -1.203125 C 1.730469 -1.203125 2.507812 -3.5625 2.984375 -3.890625 C 2.984375 -2.8125 3.789062 -1.503906 5.042969 -1.503906 C 5.46875 -1.503906 5.949219 -1.65625 6.449219 -2.007812 L 7.203125 -2.609375 C 8.480469 -3.839844 8.332031 -4.46875 7.953125 -4.46875 C 7.804688 -4.46875 7.628906 -4.390625 7.503906 -4.214844 C 7.152344 -3.839844 7.078125 -3.613281 6.601562 -3.1875 C 6.046875 -2.636719 5.519531 -2.332031 5.042969 -2.332031 C 4.515625 -2.332031 4.066406 -2.734375 3.863281 -3.640625 C 3.640625 -4.59375 4.066406 -5.722656 3.1875 -5.722656 C 2.859375 -5.722656 1.832031 -3.589844 1.328125 -2.8125 L 1.128906 -2.507812 C 1.003906 -2.359375 1.078125 -2.460938 1.003906 -2.382812 C 1.003906 -3.210938 1.355469 -4.164062 1.679688 -4.691406 C 2.410156 -5.949219 2.910156 -6.296875 3.289062 -6.296875 C 3.765625 -6.296875 4.066406 -5.722656 4.417969 -5.722656 C 5.070312 -5.722656 4.417969 -7.152344 3.238281 -7.152344 C 1.480469 -7.152344 0 -3.964844 0 -2.535156 Z M 0 -2.535156 "/></g></g></g><g fill="#ffffff" fill-opacity="1"><g transform="translate(33.091765, 29.620636)"><g><path d="M 1.328125 -2.03125 L 1.378906 -2.03125 C 2.484375 -2.109375 3.4375 -5.671875 4.566406 -6.425781 C 4.566406 -5.671875 4.792969 -4.769531 5.570312 -4.769531 C 6.25 -4.769531 7.152344 -6.074219 7.652344 -6.425781 C 7.652344 -4.96875 6.953125 -2.585938 7.679688 -0.753906 C 7.953125 -0.0234375 8.40625 0.25 8.882812 0.25 C 9.710938 0.25 10.664062 -0.550781 11.316406 -1.503906 C 11.492188 -1.757812 11.59375 -1.882812 11.746094 -2.082031 C 11.894531 -2.332031 11.96875 -2.484375 12.121094 -2.710938 C 12.296875 -2.984375 12.847656 -3.789062 12.847656 -4.089844 C 12.847656 -4.265625 12.699219 -4.417969 12.597656 -4.417969 C 12.046875 -4.417969 11.921875 -3.941406 11.695312 -3.589844 C 11.042969 -2.507812 9.863281 -0.675781 9.132812 -0.675781 C 8.707031 -0.675781 8.433594 -1.230469 8.433594 -2.761719 C 8.433594 -4.164062 8.882812 -6.851562 8.433594 -7.378906 C 8.304688 -7.527344 8.15625 -7.578125 8.003906 -7.578125 C 7.855469 -7.578125 7.703125 -7.527344 7.554688 -7.453125 C 7.277344 -7.300781 7.125 -7.101562 6.902344 -6.851562 C 6.449219 -6.449219 5.871094 -5.722656 5.496094 -5.671875 C 5.496094 -6.472656 5.320312 -7.453125 4.566406 -7.453125 C 3.964844 -7.453125 3.238281 -6.171875 2.960938 -5.695312 L 1.78125 -3.714844 C 1.730469 -3.664062 1.707031 -3.640625 1.65625 -3.589844 C 1.65625 -6.125 2.859375 -7.253906 1.582031 -7.253906 C 0.675781 -7.253906 -0.425781 -2.03125 1.328125 -2.03125 Z M 1.328125 -2.03125 "/></g></g></g><g fill="#ffffff" fill-opacity="1"><g transform="translate(44.808416, 29.620636)"><g><path d="M 0 -2.535156 C 0 -1.632812 0.0742188 -1.203125 1.003906 -1.203125 C 1.730469 -1.203125 2.507812 -3.5625 2.984375 -3.890625 C 2.984375 -2.8125 3.789062 -1.503906 5.042969 -1.503906 C 5.46875 -1.503906 5.949219 -1.65625 6.449219 -2.007812 L 7.203125 -2.609375 C 8.480469 -3.839844 8.332031 -4.46875 7.953125 -4.46875 C 7.804688 -4.46875 7.628906 -4.390625 7.503906 -4.214844 C 7.152344 -3.839844 7.078125 -3.613281 6.601562 -3.1875 C 6.046875 -2.636719 5.519531 -2.332031 5.042969 -2.332031 C 4.515625 -2.332031 4.066406 -2.734375 3.863281 -3.640625 C 3.640625 -4.59375 4.066406 -5.722656 3.1875 -5.722656 C 2.859375 -5.722656 1.832031 -3.589844 1.328125 -2.8125 L 1.128906 -2.507812 C 1.003906 -2.359375 1.078125 -2.460938 1.003906 -2.382812 C 1.003906 -3.210938 1.355469 -4.164062 1.679688 -4.691406 C 2.410156 -5.949219 2.910156 -6.296875 3.289062 -6.296875 C 3.765625 -6.296875 4.066406 -5.722656 4.417969 -5.722656 C 5.070312 -5.722656 4.417969 -7.152344 3.238281 -7.152344 C 1.480469 -7.152344 0 -3.964844 0 -2.535156 Z M 0 -2.535156 "/></g></g></g><g fill="#ffffff" fill-opacity="1"><g transform="translate(52.084273, 29.620636)"><g><path d="M 0.351562 -0.101562 C 1.128906 -0.101562 0.828125 -0.953125 0.980469 -1.605469 C 1.078125 -2.207031 1.304688 -2.710938 1.554688 -3.136719 C 1.957031 -3.789062 2.082031 -3.789062 3.035156 -3.789062 C 3.3125 -3.789062 3.6875 -3.765625 4.015625 -3.765625 C 4.515625 -3.765625 4.917969 -3.8125 4.917969 -4.164062 C 4.917969 -4.492188 4.140625 -4.542969 3.414062 -4.542969 C 2.984375 -4.542969 2.558594 -4.515625 2.332031 -4.515625 C 1.554688 -4.515625 1.40625 -4.039062 1.027344 -3.789062 C 1.027344 -4.117188 1.078125 -4.089844 1.078125 -4.441406 C 1.078125 -4.691406 1.078125 -4.992188 1.105469 -5.246094 C 1.179688 -5.949219 1.304688 -6.425781 0.628906 -6.425781 C 0.0742188 -6.425781 0.0234375 -3.8125 0.0234375 -3.363281 C 0.0507812 -2.734375 0.0234375 -2.109375 0.0507812 -1.503906 C 0.0507812 -1.328125 -0.152344 -0.101562 0.351562 -0.101562 Z M 0.351562 -0.101562 "/></g></g></g><g fill="#ffffff" fill-opacity="1"><g transform="translate(56.173805, 29.620636)"><g><path d="M 1.15625 -4.542969 C 1.328125 -5.167969 2.15625 -6.148438 2.835938 -6.273438 C 2.761719 -5.46875 1.78125 -4.867188 1.15625 -4.542969 Z M 0.0234375 -3.941406 C 0.0234375 -3.238281 0 -2.609375 0.601562 -2.007812 C 1.027344 -1.582031 1.53125 -1.40625 2.058594 -1.40625 C 3.589844 -1.40625 5.320312 -2.9375 6.25 -3.863281 C 6.472656 -4.140625 6.472656 -4.164062 6.398438 -4.542969 C 5.644531 -4.542969 6.046875 -4.441406 5.019531 -3.640625 C 4.84375 -3.511719 4.769531 -3.414062 4.566406 -3.261719 C 4.066406 -2.886719 3.011719 -2.15625 2.132812 -2.15625 C 1.832031 -2.15625 1.53125 -2.257812 1.304688 -2.484375 C 0.878906 -2.910156 0.929688 -3.3125 0.929688 -3.839844 C 1.707031 -3.890625 2.609375 -4.617188 3.011719 -5.070312 C 3.789062 -6.046875 3.789062 -7.050781 2.683594 -7.050781 C 1.480469 -7.050781 0.0234375 -5.195312 0.0234375 -3.941406 Z M 0.0234375 -3.941406 "/></g></g></g><g fill="#ffffff" fill-opacity="1"><g transform="translate(61.609825, 29.620636)"><g/></g></g><g fill="#ffffff" fill-opacity="1"><g transform="translate(109.292574, 29.345517)"><g><path d="M -0.25 1.628906 C -0.25 4.785156 0.578125 10.550781 4.785156 10.550781 C 7.894531 10.550781 11.503906 6.691406 12.929688 4.785156 C 13.429688 4.109375 13.859375 3.457031 14.332031 2.757812 L 18.066406 -4.058594 C 18.066406 -4.234375 17.917969 -4.433594 17.691406 -4.433594 C 17.464844 -4.433594 17.164062 -4.261719 16.863281 -3.683594 C 15.035156 -0.199219 13.179688 3.507812 10.449219 6.289062 C 10.125 6.617188 9.875 6.765625 9.546875 7.066406 L 8.695312 7.816406 C 7.691406 8.59375 6.238281 9.523438 4.8125 9.523438 C 3.207031 9.523438 2.230469 8.292969 1.804688 6.890625 C 0.527344 3.535156 1.179688 -0.976562 1.878906 -4.308594 C 2.707031 -8.34375 4.710938 -14.285156 7.59375 -17.164062 C 8.445312 -18.015625 9.398438 -18.46875 10.222656 -18.46875 C 11.25 -18.46875 12.054688 -17.714844 12.054688 -16.011719 C 12.054688 -13.304688 11.027344 -10.925781 10.023438 -8.621094 C 9.898438 -8.292969 9.746094 -7.992188 9.621094 -7.644531 C 9.371094 -7.167969 9.320312 -7.015625 9.746094 -6.714844 C 10.25 -6.816406 10.273438 -7.015625 10.449219 -7.417969 C 11.453125 -9.445312 13.03125 -13.105469 13.03125 -15.3125 C 13.03125 -16.589844 13.105469 -17.464844 12.328125 -18.570312 C 11.753906 -19.34375 11 -19.671875 10.199219 -19.671875 C 9.121094 -19.671875 7.945312 -19.09375 7.015625 -18.367188 C 4.988281 -16.765625 3.40625 -13.65625 2.457031 -11.25 C 1.101562 -7.816406 -0.25 -3.105469 -0.25 1.628906 Z M -0.25 1.628906 "/></g></g></g><g fill="#ffffff" fill-opacity="1"><g transform="translate(126.351995, 29.345517)"><g><path d="M 0 -2.53125 C 0 -1.628906 0.0742188 -1.203125 1.003906 -1.203125 C 1.730469 -1.203125 2.507812 -3.558594 2.980469 -3.882812 C 2.980469 -2.804688 3.785156 -1.503906 5.035156 -1.503906 C 5.460938 -1.503906 5.9375 -1.652344 6.441406 -2.003906 L 7.191406 -2.605469 C 8.46875 -3.835938 8.320312 -4.460938 7.945312 -4.460938 C 7.792969 -4.460938 7.617188 -4.386719 7.492188 -4.210938 C 7.140625 -3.835938 7.066406 -3.609375 6.589844 -3.183594 C 6.039062 -2.632812 5.511719 -2.332031 5.035156 -2.332031 C 4.511719 -2.332031 4.058594 -2.730469 3.859375 -3.632812 C 3.632812 -4.585938 4.058594 -5.714844 3.183594 -5.714844 C 2.855469 -5.714844 1.828125 -3.582031 1.328125 -2.804688 L 1.128906 -2.507812 C 1.003906 -2.355469 1.078125 -2.457031 1.003906 -2.378906 C 1.003906 -3.207031 1.351562 -4.160156 1.679688 -4.6875 C 2.40625 -5.9375 2.90625 -6.289062 3.28125 -6.289062 C 3.757812 -6.289062 4.058594 -5.714844 4.410156 -5.714844 C 5.0625 -5.714844 4.410156 -7.140625 3.234375 -7.140625 C 1.476562 -7.140625 0 -3.960938 0 -2.53125 Z M 0 -2.53125 "/></g></g></g><g fill="#ffffff" fill-opacity="1"><g transform="translate(133.61665, 29.345517)"><g><path d="M 0 -1.90625 L 0 0.226562 C 0 0.703125 0.0507812 0.777344 0.0742188 1.152344 C 0.125 1.777344 -0.101562 2.632812 0.578125 2.632812 C 1.078125 2.632812 1.226562 1.203125 1.605469 0.101562 L 2.707031 -2.304688 C 2.980469 -1.152344 3.15625 0 3.535156 1.101562 C 3.734375 1.703125 4.007812 2.855469 4.636719 3.15625 C 4.710938 3.183594 4.785156 3.207031 4.835938 3.207031 C 5.035156 3.207031 5.164062 3.03125 5.289062 2.882812 C 5.210938 2.554688 4.988281 2.332031 4.734375 1.703125 C 4.359375 0.703125 3.835938 -1.527344 3.734375 -2.582031 C 3.582031 -4.007812 3.558594 -3.984375 4.007812 -4.734375 C 4.132812 -4.9375 4.261719 -5.113281 4.386719 -5.3125 C 5.113281 -6.539062 6.113281 -7.367188 5.035156 -7.367188 C 4.210938 -7.367188 1.128906 -0.902344 0.976562 -0.75 C 0.976562 -4.308594 1.429688 -9.246094 2.105469 -12.957031 C 2.304688 -14.082031 2.78125 -14.960938 1.804688 -14.960938 C 0.925781 -14.960938 0.402344 -9.574219 0.324219 -8.996094 C 0.125 -6.765625 0 -4.308594 0 -1.90625 Z M 0 -1.90625 "/></g></g></g><g fill="#ffffff" fill-opacity="1"><g transform="translate(139.303124, 29.345517)"><g><path d="M 1.152344 -4.535156 C 1.328125 -5.164062 2.15625 -6.140625 2.832031 -6.265625 C 2.757812 -5.460938 1.777344 -4.863281 1.152344 -4.535156 Z M 0.0234375 -3.933594 C 0.0234375 -3.234375 0 -2.605469 0.601562 -2.003906 C 1.027344 -1.578125 1.527344 -1.402344 2.054688 -1.402344 C 3.582031 -1.402344 5.3125 -2.933594 6.238281 -3.859375 C 6.464844 -4.132812 6.464844 -4.160156 6.390625 -4.535156 C 5.636719 -4.535156 6.039062 -4.433594 5.011719 -3.632812 C 4.835938 -3.507812 4.761719 -3.40625 4.5625 -3.257812 C 4.058594 -2.882812 3.007812 -2.15625 2.128906 -2.15625 C 1.828125 -2.15625 1.527344 -2.253906 1.304688 -2.480469 C 0.878906 -2.90625 0.925781 -3.308594 0.925781 -3.835938 C 1.703125 -3.882812 2.605469 -4.609375 3.007812 -5.0625 C 3.785156 -6.039062 3.785156 -7.042969 2.679688 -7.042969 C 1.476562 -7.042969 0.0234375 -5.1875 0.0234375 -3.933594 Z M 0.0234375 -3.933594 "/></g></g></g><g fill="#ffffff" fill-opacity="1"><g transform="translate(144.739092, 29.345517)"><g><path d="M 0.300781 4.132812 C 0.300781 3.132812 1.027344 2.003906 1.628906 1.277344 C 1.929688 0.925781 2.53125 0.175781 2.933594 -0.0507812 C 2.933594 0.652344 2.957031 1.203125 2.78125 1.777344 C 2.554688 2.605469 2.003906 3.808594 1.328125 4.308594 C 1.152344 4.460938 0.851562 4.660156 0.625 4.660156 C 0.449219 4.660156 0.300781 4.511719 0.300781 4.132812 Z M 0.0742188 -4.058594 C 0.0742188 -2.730469 1.828125 -2.304688 2.605469 -0.878906 C 2.230469 -0.277344 -0.5 1.878906 -0.5 4.132812 C -0.5 5.035156 0 5.511719 0.703125 5.511719 C 1.453125 5.511719 2.40625 4.9375 3.132812 3.707031 C 4.8125 0.851562 3.785156 -0.601562 3.882812 -0.953125 C 3.933594 -1.152344 5.714844 -2.480469 5.988281 -2.632812 L 7.691406 -3.808594 C 8.269531 -4.132812 8.320312 -4.5625 7.917969 -4.5625 C 7.691406 -4.5625 7.367188 -4.460938 6.941406 -4.160156 L 4.609375 -2.53125 C 4.234375 -2.207031 3.882812 -1.929688 3.484375 -1.652344 C 2.179688 -3.609375 0.300781 -3.535156 1.628906 -5.035156 C 2.003906 -5.460938 1.929688 -5.335938 2.53125 -5.488281 C 2.679688 -6.113281 2.457031 -6.363281 2.105469 -6.363281 C 1.378906 -6.363281 0.0742188 -5.335938 0.0742188 -4.058594 Z M 0.0742188 -4.058594 "/></g></g></g><g clip-path="url(#b118e4a187)"><path fill="#00a650" d="M 79.226562 8.792969 C 79.945312 8.773438 80.542969 8.992188 81 9.445312 C 81.5625 10.003906 81.808594 10.820312 81.914062 11.410156 C 81.976562 11.75 82 12.050781 82.011719 12.257812 C 82 12.257812 81.992188 12.257812 81.984375 12.257812 C 81.941406 12.253906 81.898438 12.253906 81.855469 12.253906 C 81.828125 11.664062 81.679688 10.335938 80.890625 9.554688 C 80.464844 9.132812 79.90625 8.925781 79.230469 8.945312 C 79.1875 8.945312 79.152344 8.914062 79.152344 8.871094 C 79.148438 8.828125 79.183594 8.792969 79.226562 8.792969 " fill-opacity="1" fill-rule="nonzero"/></g><g clip-path="url(#34d0c2a799)"><g clip-path="url(#6dc7cacaa6)"><g clip-path="url(#5fb7f04b76)"><g clip-path="url(#7f8a9ee630)"><path fill="url(#e506f99c5c)" d="M 83.0625 13.042969 L 81.496094 11.253906 L 83.304688 9.648438 L 84.871094 11.4375 Z M 83.0625 13.042969 " fill-rule="nonzero"/></g></g></g></g><path fill="#ef5241" d="M 80.960938 13.683594 C 81.050781 13.6875 81.121094 13.765625 81.117188 13.859375 C 81.109375 13.949219 81.03125 14.019531 80.941406 14.015625 C 80.847656 14.007812 80.78125 13.929688 80.785156 13.839844 C 80.789062 13.746094 80.871094 13.675781 80.960938 13.683594 Z M 81.523438 12.628906 C 81.707031 12.640625 81.847656 12.800781 81.835938 12.984375 C 81.824219 13.167969 81.664062 13.308594 81.484375 13.296875 C 81.300781 13.285156 81.160156 13.125 81.171875 12.941406 C 81.183594 12.757812 81.34375 12.617188 81.523438 12.628906 Z M 80.984375 14.386719 C 81.671875 14.386719 82.339844 14.402344 82.988281 14.429688 C 83.121094 14.238281 83.203125 14.007812 83.21875 13.757812 C 83.265625 13.023438 82.707031 12.390625 81.976562 12.34375 C 81.246094 12.296875 80.617188 12.855469 80.570312 13.59375 C 80.550781 13.882812 80.628906 14.160156 80.773438 14.386719 C 80.84375 14.386719 80.914062 14.386719 80.984375 14.386719 " fill-opacity="1" fill-rule="nonzero"/><path fill="#ffffff" d="M 75.601562 18.871094 C 75.886719 18.066406 76.523438 16.78125 77.5625 17.261719 C 77.960938 17.449219 78.238281 17.832031 78.320312 18.269531 C 78.351562 18.449219 78.421875 18.679688 78.523438 18.910156 C 78.703125 18.898438 78.882812 18.886719 79.066406 18.875 C 79.03125 18.808594 79.003906 18.742188 78.976562 18.671875 C 78.949219 18.609375 78.929688 18.546875 78.90625 18.480469 C 78.886719 18.414062 78.867188 18.351562 78.847656 18.289062 C 78.769531 18.035156 78.703125 17.792969 78.613281 17.570312 C 78.527344 17.351562 78.410156 17.152344 78.261719 16.996094 C 78.242188 16.976562 78.222656 16.957031 78.203125 16.9375 L 78.148438 16.890625 C 78.101562 16.855469 78.054688 16.824219 78.011719 16.789062 C 77.964844 16.753906 77.921875 16.734375 77.875 16.710938 C 77.832031 16.6875 77.789062 16.660156 77.742188 16.644531 C 77.363281 16.492188 76.960938 16.53125 76.648438 16.652344 C 76.335938 16.785156 76.101562 16.988281 75.941406 17.175781 C 75.859375 17.269531 75.800781 17.363281 75.746094 17.445312 C 75.699219 17.53125 75.664062 17.605469 75.632812 17.667969 C 75.585938 17.792969 75.5625 17.859375 75.5625 17.859375 C 75.5625 17.859375 75.582031 17.789062 75.617188 17.660156 C 75.640625 17.597656 75.671875 17.519531 75.714844 17.425781 C 75.761719 17.339844 75.8125 17.238281 75.894531 17.136719 C 76.046875 16.933594 76.273438 16.707031 76.601562 16.546875 C 76.644531 16.527344 76.6875 16.511719 76.730469 16.492188 L 76.796875 16.46875 L 76.867188 16.449219 C 76.914062 16.4375 76.960938 16.421875 77.007812 16.410156 C 77.058594 16.40625 77.109375 16.398438 77.160156 16.390625 C 77.210938 16.382812 77.265625 16.386719 77.316406 16.386719 C 77.371094 16.390625 77.425781 16.386719 77.476562 16.398438 C 77.53125 16.40625 77.585938 16.414062 77.640625 16.425781 C 77.695312 16.441406 77.75 16.457031 77.804688 16.472656 C 77.859375 16.488281 77.910156 16.519531 77.964844 16.542969 C 78.019531 16.570312 78.078125 16.59375 78.121094 16.625 C 78.167969 16.65625 78.214844 16.6875 78.265625 16.71875 L 78.277344 16.730469 L 78.289062 16.738281 L 78.304688 16.753906 L 78.339844 16.78125 C 78.367188 16.800781 78.386719 16.824219 78.410156 16.84375 C 78.59375 17.015625 78.730469 17.242188 78.832031 17.476562 C 78.9375 17.714844 79.011719 17.964844 79.09375 18.207031 C 79.117188 18.269531 79.136719 18.332031 79.160156 18.390625 C 79.179688 18.449219 79.203125 18.511719 79.226562 18.570312 C 79.269531 18.667969 79.316406 18.765625 79.371094 18.855469 C 79.519531 18.847656 79.664062 18.839844 79.8125 18.832031 C 79.832031 18.757812 79.839844 18.671875 79.851562 18.582031 C 79.859375 18.515625 79.871094 18.429688 79.886719 18.359375 L 79.933594 18.148438 C 79.996094 17.871094 80.066406 17.582031 80.1875 17.300781 C 80.246094 17.160156 80.320312 17.019531 80.410156 16.890625 C 80.433594 16.859375 80.460938 16.828125 80.484375 16.792969 C 80.511719 16.761719 80.535156 16.738281 80.558594 16.710938 C 80.617188 16.648438 80.667969 16.597656 80.726562 16.546875 C 80.960938 16.34375 81.226562 16.1875 81.519531 16.085938 C 81.664062 16.035156 81.816406 15.996094 81.972656 15.984375 C 82.050781 15.972656 82.128906 15.976562 82.207031 15.976562 C 82.285156 15.984375 82.363281 15.984375 82.441406 16.007812 C 82.480469 16.015625 82.519531 16.023438 82.558594 16.035156 L 82.671875 16.074219 C 82.707031 16.085938 82.746094 16.109375 82.78125 16.128906 C 82.816406 16.148438 82.859375 16.167969 82.886719 16.191406 L 82.972656 16.25 L 83.023438 16.285156 L 83.058594 16.316406 C 83.109375 16.355469 83.160156 16.382812 83.210938 16.410156 C 83.316406 16.464844 83.425781 16.480469 83.535156 16.472656 C 83.644531 16.460938 83.757812 16.417969 83.863281 16.355469 C 83.976562 16.296875 84.070312 16.226562 84.1875 16.140625 C 84.300781 16.0625 84.421875 15.988281 84.550781 15.933594 C 84.683594 15.878906 84.824219 15.84375 84.96875 15.835938 C 85.039062 15.832031 85.121094 15.839844 85.179688 15.851562 C 85.25 15.863281 85.308594 15.878906 85.371094 15.894531 C 85.875 16.019531 86.296875 16.253906 86.664062 16.492188 C 87.03125 16.734375 87.332031 17.003906 87.578125 17.257812 C 87.828125 17.511719 88.019531 17.757812 88.160156 17.96875 C 88.300781 18.183594 88.386719 18.363281 88.441406 18.488281 C 88.488281 18.613281 88.515625 18.683594 88.515625 18.683594 C 88.515625 18.683594 88.484375 18.617188 88.425781 18.496094 C 88.398438 18.433594 88.351562 18.363281 88.300781 18.28125 C 88.25 18.195312 88.183594 18.105469 88.109375 18.003906 C 87.808594 17.605469 87.296875 17.089844 86.566406 16.648438 C 86.382812 16.539062 86.191406 16.429688 85.980469 16.34375 C 85.773438 16.25 85.550781 16.175781 85.320312 16.125 C 85.261719 16.113281 85.207031 16.101562 85.148438 16.089844 C 85.082031 16.082031 85.039062 16.082031 84.980469 16.085938 C 84.871094 16.09375 84.761719 16.125 84.65625 16.175781 C 84.550781 16.222656 84.445312 16.289062 84.34375 16.363281 C 84.289062 16.402344 84.238281 16.441406 84.183594 16.484375 C 84.125 16.523438 84.0625 16.566406 84 16.601562 C 83.875 16.671875 83.730469 16.734375 83.566406 16.757812 C 83.40625 16.777344 83.230469 16.75 83.085938 16.679688 C 83.015625 16.644531 82.945312 16.605469 82.882812 16.558594 L 82.835938 16.523438 L 82.824219 16.515625 C 82.816406 16.507812 82.832031 16.519531 82.828125 16.515625 L 82.824219 16.511719 L 82.800781 16.5 L 82.714844 16.4375 C 82.683594 16.417969 82.660156 16.410156 82.636719 16.398438 C 82.609375 16.382812 82.585938 16.367188 82.554688 16.359375 L 82.46875 16.328125 C 82.441406 16.320312 82.410156 16.316406 82.378906 16.308594 C 82.320312 16.289062 82.253906 16.292969 82.195312 16.285156 C 82.128906 16.285156 82.066406 16.28125 82.003906 16.292969 C 81.875 16.300781 81.746094 16.335938 81.621094 16.378906 C 81.371094 16.46875 81.136719 16.609375 80.933594 16.789062 C 80.886719 16.828125 80.835938 16.882812 80.792969 16.921875 C 80.769531 16.949219 80.742188 16.976562 80.722656 17.003906 C 80.703125 17.027344 80.683594 17.050781 80.664062 17.078125 C 80.589844 17.183594 80.523438 17.300781 80.472656 17.425781 C 80.363281 17.671875 80.296875 17.941406 80.230469 18.21875 L 80.183594 18.425781 C 80.167969 18.492188 80.160156 18.550781 80.152344 18.621094 C 80.140625 18.683594 80.132812 18.746094 80.121094 18.8125 C 80.3125 18.804688 80.503906 18.796875 80.695312 18.789062 C 80.707031 18.6875 80.714844 18.585938 80.710938 18.5 C 80.632812 17.136719 82.21875 16.363281 83.21875 17.285156 C 83.242188 17.304688 83.265625 17.328125 83.289062 17.347656 C 83.511719 17.558594 83.777344 17.457031 83.972656 17.253906 C 84.101562 17.125 84.203125 16.964844 84.347656 16.855469 C 84.667969 16.609375 85.125 16.644531 85.496094 16.800781 C 86.285156 17.132812 87.152344 17.703125 87.730469 18.332031 C 87.890625 18.503906 88.03125 18.691406 88.160156 18.886719 C 88.554688 18.917969 88.9375 18.957031 89.3125 18.996094 C 89.386719 18.394531 89.425781 17.714844 89.367188 17.046875 C 89.28125 16.042969 88.496094 15.242188 87.503906 15.121094 C 85.039062 14.820312 79.847656 14.351562 75.703125 15.121094 C 75.082031 15.238281 74.605469 15.738281 74.511719 16.367188 C 74.40625 17.085938 74.425781 18.066406 75.003906 18.941406 C 75.152344 19.175781 75.507812 19.132812 75.601562 18.871094 " fill-opacity="1" fill-rule="nonzero"/><path fill="#ffffff" d="M 72.960938 25.785156 C 73.183594 25.421875 73.4375 25.078125 73.726562 24.765625 C 74.589844 23.824219 75.882812 22.976562 77.058594 22.480469 C 77.613281 22.25 78.296875 22.195312 78.773438 22.558594 C 78.988281 22.726562 79.140625 22.960938 79.332031 23.160156 C 79.625 23.457031 80.015625 23.609375 80.351562 23.296875 C 80.386719 23.265625 80.417969 23.230469 80.453125 23.199219 C 81.945312 21.832031 84.3125 22.984375 84.199219 25.011719 C 84.1875 25.171875 84.199219 25.351562 84.230469 25.539062 C 84.519531 25.550781 84.808594 25.5625 85.09375 25.574219 C 85.0625 25.441406 85.046875 25.3125 85.03125 25.195312 C 85.015625 25.085938 85.003906 25.003906 84.980469 24.90625 L 84.910156 24.59375 C 84.8125 24.183594 84.714844 23.78125 84.554688 23.410156 C 84.472656 23.226562 84.375 23.050781 84.261719 22.890625 C 84.234375 22.851562 84.207031 22.820312 84.175781 22.78125 C 84.148438 22.746094 84.109375 22.703125 84.074219 22.664062 C 84.011719 22.601562 83.9375 22.523438 83.859375 22.460938 C 83.558594 22.195312 83.207031 21.988281 82.835938 21.851562 C 82.652344 21.789062 82.460938 21.738281 82.269531 21.722656 C 82.171875 21.707031 82.078125 21.710938 81.984375 21.710938 C 81.890625 21.722656 81.796875 21.71875 81.707031 21.746094 C 81.664062 21.757812 81.617188 21.761719 81.574219 21.777344 L 81.441406 21.824219 C 81.398438 21.835938 81.363281 21.859375 81.324219 21.878906 C 81.285156 21.902344 81.253906 21.910156 81.207031 21.941406 L 81.046875 22.050781 L 81.039062 22.058594 C 81.035156 22.0625 81.054688 22.042969 81.042969 22.054688 L 81.023438 22.066406 L 80.953125 22.117188 C 80.863281 22.1875 80.757812 22.246094 80.652344 22.300781 C 80.4375 22.402344 80.175781 22.445312 79.933594 22.417969 C 79.691406 22.382812 79.476562 22.292969 79.289062 22.183594 C 79.195312 22.128906 79.105469 22.070312 79.015625 22.007812 C 78.9375 21.949219 78.859375 21.886719 78.78125 21.828125 C 78.625 21.71875 78.472656 21.621094 78.3125 21.546875 C 78.152344 21.472656 77.992188 21.425781 77.828125 21.414062 C 77.742188 21.410156 77.679688 21.410156 77.578125 21.421875 C 77.492188 21.4375 77.40625 21.457031 77.324219 21.472656 C 76.976562 21.546875 76.648438 21.660156 76.339844 21.800781 C 76.023438 21.929688 75.738281 22.089844 75.464844 22.25 C 74.378906 22.910156 73.613281 23.683594 73.160156 24.273438 C 73.054688 24.429688 72.953125 24.5625 72.878906 24.6875 C 72.804688 24.8125 72.734375 24.914062 72.691406 25.007812 C 72.605469 25.1875 72.554688 25.285156 72.554688 25.285156 C 72.554688 25.285156 72.59375 25.183594 72.667969 24.996094 C 72.746094 24.8125 72.878906 24.539062 73.085938 24.222656 C 73.296875 23.90625 73.582031 23.542969 73.953125 23.160156 C 74.320312 22.78125 74.773438 22.382812 75.320312 22.023438 C 75.867188 21.664062 76.496094 21.3125 77.246094 21.125 C 77.339844 21.105469 77.425781 21.085938 77.535156 21.0625 C 77.617188 21.050781 77.742188 21.039062 77.847656 21.042969 C 78.058594 21.050781 78.273438 21.105469 78.46875 21.1875 C 78.664062 21.269531 78.84375 21.378906 79.011719 21.5 C 79.1875 21.621094 79.328125 21.730469 79.492188 21.820312 C 79.652344 21.90625 79.820312 21.972656 79.984375 21.992188 C 80.148438 22.003906 80.308594 21.976562 80.464844 21.898438 C 80.542969 21.859375 80.621094 21.8125 80.695312 21.757812 L 80.75 21.714844 L 80.824219 21.660156 L 80.949219 21.570312 C 80.988281 21.539062 81.054688 21.507812 81.105469 21.480469 C 81.164062 21.449219 81.21875 21.417969 81.273438 21.398438 L 81.441406 21.339844 C 81.496094 21.320312 81.554688 21.3125 81.613281 21.296875 C 81.730469 21.265625 81.847656 21.261719 81.964844 21.25 C 82.082031 21.25 82.199219 21.246094 82.316406 21.261719 C 82.546875 21.28125 82.773438 21.339844 82.988281 21.414062 C 83.421875 21.566406 83.824219 21.800781 84.167969 22.101562 C 84.257812 22.179688 84.335938 22.253906 84.421875 22.347656 C 84.457031 22.386719 84.492188 22.421875 84.53125 22.472656 C 84.566406 22.519531 84.609375 22.566406 84.640625 22.617188 C 84.777344 22.808594 84.886719 23.015625 84.976562 23.222656 C 85.15625 23.644531 85.257812 24.074219 85.351562 24.492188 L 85.421875 24.804688 C 85.449219 24.90625 85.464844 25.035156 85.476562 25.136719 C 85.496094 25.308594 85.515625 25.46875 85.558594 25.597656 C 85.753906 25.605469 85.949219 25.617188 86.144531 25.625 L 86.148438 25.617188 C 86.25 25.464844 86.332031 25.292969 86.40625 25.117188 C 86.445312 25.03125 86.480469 24.941406 86.511719 24.851562 C 86.542969 24.761719 86.574219 24.671875 86.605469 24.578125 C 86.730469 24.214844 86.839844 23.84375 86.996094 23.492188 C 87.152344 23.140625 87.355469 22.804688 87.625 22.546875 C 87.660156 22.511719 87.691406 22.480469 87.730469 22.453125 L 87.78125 22.410156 L 87.808594 22.386719 L 87.820312 22.375 L 87.835938 22.363281 L 87.84375 22.359375 C 87.914062 22.3125 87.984375 22.265625 88.054688 22.21875 C 88.121094 22.171875 88.207031 22.132812 88.289062 22.09375 C 88.367188 22.058594 88.445312 22.011719 88.53125 21.992188 C 88.609375 21.96875 88.691406 21.941406 88.769531 21.917969 C 88.855469 21.90625 88.933594 21.890625 89.015625 21.878906 C 89.09375 21.863281 89.175781 21.867188 89.253906 21.863281 C 89.335938 21.863281 89.414062 21.859375 89.488281 21.871094 C 89.566406 21.882812 89.640625 21.890625 89.714844 21.902344 C 89.789062 21.917969 89.859375 21.9375 89.929688 21.957031 L 90.03125 21.984375 L 90.128906 22.023438 C 90.195312 22.046875 90.257812 22.074219 90.320312 22.101562 C 90.808594 22.339844 91.152344 22.675781 91.378906 22.980469 C 91.496094 23.132812 91.574219 23.285156 91.644531 23.414062 C 91.707031 23.550781 91.753906 23.667969 91.789062 23.761719 C 91.84375 23.957031 91.875 24.0625 91.875 24.0625 C 91.875 24.0625 91.835938 23.960938 91.765625 23.769531 C 91.722656 23.679688 91.667969 23.570312 91.597656 23.441406 C 91.515625 23.320312 91.429688 23.179688 91.308594 23.039062 C 91.070312 22.757812 90.71875 22.457031 90.253906 22.261719 C 89.785156 22.082031 89.1875 22.019531 88.625 22.25 C 88.550781 22.269531 88.488281 22.3125 88.421875 22.34375 C 88.355469 22.382812 88.289062 22.410156 88.222656 22.464844 C 88.152344 22.511719 88.085938 22.5625 88.015625 22.613281 L 87.933594 22.6875 C 87.902344 22.710938 87.875 22.742188 87.847656 22.769531 C 87.625 23.003906 87.453125 23.300781 87.320312 23.628906 C 87.1875 23.960938 87.089844 24.324219 86.976562 24.699219 C 86.945312 24.792969 86.917969 24.886719 86.886719 24.984375 C 86.851562 25.082031 86.820312 25.175781 86.78125 25.273438 C 86.730469 25.398438 86.675781 25.527344 86.609375 25.652344 C 86.882812 25.667969 87.15625 25.683594 87.425781 25.703125 C 87.59375 25.332031 87.707031 24.960938 87.761719 24.667969 C 87.882812 24.015625 88.296875 23.449219 88.894531 23.171875 C 90.441406 22.449219 91.390625 24.367188 91.816406 25.566406 C 91.953125 25.957031 92.480469 26.019531 92.707031 25.671875 C 93.5625 24.363281 93.59375 22.90625 93.4375 21.832031 C 93.300781 20.898438 92.585938 20.148438 91.664062 19.976562 C 85.484375 18.832031 77.742188 19.523438 74.066406 19.976562 C 72.585938 20.15625 71.414062 21.351562 71.289062 22.847656 C 71.195312 23.917969 71.269531 25.011719 71.394531 25.957031 C 71.90625 25.890625 72.429688 25.835938 72.960938 25.785156 " fill-opacity="1" fill-rule="nonzero"/><g clip-path="url(#31e480442f)"><path fill="#ffffff" d="M 68.238281 33.109375 C 68.238281 33.109375 68.28125 32.953125 68.363281 32.664062 C 68.417969 32.523438 68.488281 32.347656 68.578125 32.148438 C 68.683594 31.953125 68.796875 31.726562 68.976562 31.5 C 69.3125 31.046875 69.820312 30.542969 70.546875 30.1875 C 70.640625 30.148438 70.738281 30.113281 70.832031 30.074219 L 70.980469 30.015625 L 71.136719 29.972656 C 71.238281 29.945312 71.34375 29.914062 71.453125 29.890625 C 71.5625 29.878906 71.675781 29.863281 71.789062 29.847656 C 71.902344 29.828125 72.019531 29.835938 72.136719 29.835938 C 72.253906 29.839844 72.375 29.835938 72.496094 29.859375 C 72.613281 29.878906 72.734375 29.898438 72.859375 29.917969 C 72.976562 29.957031 73.097656 29.992188 73.21875 30.03125 C 73.339844 30.058594 73.457031 30.125 73.578125 30.183594 C 73.695312 30.238281 73.828125 30.296875 73.921875 30.367188 C 74.027344 30.4375 74.132812 30.503906 74.238281 30.574219 L 74.273438 30.597656 L 74.292969 30.617188 L 74.332031 30.648438 L 74.410156 30.714844 C 74.464844 30.757812 74.515625 30.804688 74.5625 30.851562 C 74.96875 31.234375 75.273438 31.738281 75.5 32.261719 C 75.734375 32.785156 75.898438 33.339844 76.082031 33.878906 C 76.128906 34.015625 76.175781 34.152344 76.226562 34.289062 C 76.273438 34.417969 76.324219 34.554688 76.378906 34.683594 C 76.488281 34.945312 76.613281 35.199219 76.761719 35.425781 C 76.902344 35.644531 77.109375 35.839844 77.21875 35.839844 C 77.246094 35.839844 77.269531 35.835938 77.300781 35.828125 C 77.328125 35.8125 77.375 35.792969 77.402344 35.765625 C 77.414062 35.761719 77.441406 35.734375 77.472656 35.707031 L 77.492188 35.683594 C 77.488281 35.6875 77.511719 35.667969 77.492188 35.6875 L 77.496094 35.679688 L 77.519531 35.652344 C 77.546875 35.613281 77.574219 35.570312 77.597656 35.519531 C 77.695312 35.3125 77.726562 35.023438 77.761719 34.710938 C 77.78125 34.558594 77.808594 34.371094 77.84375 34.214844 L 77.949219 33.75 C 78.085938 33.132812 78.238281 32.488281 78.507812 31.863281 C 78.640625 31.550781 78.804688 31.242188 79.007812 30.957031 C 79.058594 30.886719 79.117188 30.8125 79.171875 30.742188 C 79.230469 30.667969 79.28125 30.617188 79.335938 30.554688 C 79.464844 30.421875 79.578125 30.304688 79.710938 30.191406 C 80.226562 29.742188 80.820312 29.394531 81.46875 29.164062 C 81.792969 29.054688 82.125 28.96875 82.472656 28.9375 C 82.644531 28.914062 82.820312 28.921875 82.996094 28.921875 C 83.167969 28.941406 83.347656 28.945312 83.515625 28.992188 C 83.601562 29.011719 83.691406 29.027344 83.773438 29.054688 L 84.023438 29.144531 C 84.105469 29.171875 84.1875 29.222656 84.269531 29.261719 C 84.347656 29.308594 84.445312 29.351562 84.507812 29.398438 L 84.695312 29.535156 L 84.804688 29.613281 L 84.886719 29.679688 C 84.996094 29.761719 85.113281 29.832031 85.226562 29.890625 C 85.460938 30.007812 85.699219 30.046875 85.945312 30.027344 C 86.1875 29.996094 86.4375 29.902344 86.675781 29.769531 C 86.921875 29.636719 87.132812 29.476562 87.390625 29.292969 C 87.640625 29.117188 87.910156 28.953125 88.203125 28.832031 C 88.492188 28.707031 88.808594 28.625 89.128906 28.613281 C 89.28125 28.609375 89.46875 28.625 89.59375 28.644531 C 89.753906 28.675781 89.878906 28.707031 90.023438 28.738281 C 91.136719 29.015625 92.074219 29.539062 92.890625 30.074219 C 93.703125 30.609375 94.378906 31.203125 94.925781 31.769531 C 95.476562 32.335938 95.902344 32.878906 96.214844 33.347656 C 96.527344 33.820312 96.722656 34.226562 96.839844 34.5 C 96.949219 34.78125 97.003906 34.933594 97.003906 34.933594 C 97.003906 34.933594 96.933594 34.789062 96.804688 34.515625 C 96.742188 34.378906 96.636719 34.226562 96.527344 34.039062 C 96.414062 33.855469 96.265625 33.65625 96.105469 33.429688 C 95.433594 32.542969 94.292969 31.398438 92.675781 30.414062 C 92.269531 30.175781 91.839844 29.933594 91.375 29.742188 C 90.914062 29.535156 90.421875 29.367188 89.90625 29.253906 C 89.78125 29.226562 89.65625 29.203125 89.527344 29.179688 C 89.375 29.164062 89.285156 29.160156 89.15625 29.167969 C 88.914062 29.183594 88.667969 29.253906 88.433594 29.363281 C 88.195312 29.472656 87.964844 29.621094 87.738281 29.785156 C 87.621094 29.875 87.503906 29.960938 87.382812 30.050781 C 87.253906 30.140625 87.117188 30.230469 86.980469 30.3125 C 86.699219 30.472656 86.378906 30.613281 86.019531 30.660156 C 85.65625 30.707031 85.269531 30.640625 84.949219 30.484375 C 84.789062 30.410156 84.636719 30.320312 84.5 30.21875 L 84.394531 30.140625 L 84.367188 30.121094 C 84.347656 30.105469 84.382812 30.132812 84.375 30.125 L 84.363281 30.117188 L 84.3125 30.085938 L 84.121094 29.949219 C 84.054688 29.902344 84.003906 29.890625 83.945312 29.859375 C 83.890625 29.832031 83.839844 29.796875 83.769531 29.777344 L 83.578125 29.707031 C 83.511719 29.6875 83.445312 29.675781 83.378906 29.660156 C 83.246094 29.621094 83.101562 29.625 82.964844 29.605469 C 82.824219 29.609375 82.683594 29.601562 82.542969 29.625 C 82.257812 29.648438 81.972656 29.726562 81.695312 29.820312 C 81.140625 30.019531 80.617188 30.332031 80.171875 30.726562 C 80.058594 30.820312 79.945312 30.933594 79.855469 31.027344 C 79.804688 31.085938 79.742188 31.148438 79.699219 31.203125 C 79.65625 31.257812 79.613281 31.308594 79.574219 31.367188 C 79.402344 31.605469 79.261719 31.863281 79.140625 32.140625 C 78.898438 32.691406 78.75 33.292969 78.609375 33.902344 L 78.503906 34.367188 C 78.46875 34.515625 78.449219 34.636719 78.429688 34.796875 C 78.386719 35.101562 78.355469 35.449219 78.1875 35.804688 C 78.144531 35.894531 78.089844 35.984375 78.023438 36.066406 L 77.96875 36.125 L 77.957031 36.140625 L 77.933594 36.160156 L 77.914062 36.183594 C 77.886719 36.207031 77.859375 36.230469 77.808594 36.273438 C 77.71875 36.347656 77.625 36.394531 77.511719 36.4375 C 77.398438 36.476562 77.269531 36.492188 77.144531 36.476562 C 76.890625 36.4375 76.707031 36.304688 76.574219 36.179688 C 76.433594 36.046875 76.335938 35.90625 76.246094 35.765625 C 76.066406 35.484375 75.9375 35.199219 75.824219 34.914062 C 75.765625 34.769531 75.714844 34.628906 75.664062 34.480469 C 75.621094 34.339844 75.574219 34.199219 75.53125 34.0625 C 75.363281 33.5 75.21875 32.960938 75.019531 32.46875 C 74.820312 31.976562 74.566406 31.535156 74.230469 31.1875 C 74.191406 31.144531 74.148438 31.101562 74.105469 31.0625 L 73.984375 30.953125 C 73.878906 30.878906 73.777344 30.804688 73.675781 30.730469 C 73.574219 30.648438 73.476562 30.609375 73.378906 30.554688 C 73.277344 30.503906 73.1875 30.441406 73.078125 30.410156 C 72.234375 30.066406 71.351562 30.160156 70.652344 30.429688 C 69.957031 30.71875 69.433594 31.167969 69.082031 31.585938 C 68.898438 31.796875 68.769531 32.007812 68.652344 32.1875 C 68.546875 32.375 68.464844 32.542969 68.398438 32.675781 C 68.292969 32.957031 68.238281 33.109375 68.238281 33.109375 Z M 66.996094 35.511719 C 67.332031 36.027344 68.117188 35.929688 68.324219 35.347656 C 68.957031 33.566406 70.371094 30.710938 72.675781 31.78125 C 73.566406 32.195312 74.183594 33.042969 74.363281 34.015625 C 74.617188 35.386719 75.757812 37.925781 77.476562 37.878906 C 78.976562 37.839844 79.738281 35.789062 79.667969 34.527344 C 79.5 31.503906 83.023438 29.785156 85.246094 31.828125 C 85.296875 31.875 85.347656 31.921875 85.398438 31.972656 C 85.894531 32.4375 86.480469 32.210938 86.914062 31.765625 C 87.199219 31.472656 87.425781 31.121094 87.75 30.871094 C 88.457031 30.328125 89.476562 30.410156 90.300781 30.757812 C 92.050781 31.492188 93.976562 32.757812 95.261719 34.15625 C 95.984375 34.945312 96.570312 35.851562 97.003906 36.828125 C 97.132812 37.113281 97.347656 37.578125 97.542969 38.074219 C 97.703125 38.492188 98.300781 38.441406 98.390625 38.003906 C 98.734375 36.316406 99.105469 33.769531 98.894531 31.304688 C 98.707031 29.070312 96.964844 27.292969 94.753906 27.023438 C 89.285156 26.355469 77.753906 25.320312 68.550781 27.027344 C 67.175781 27.28125 66.113281 28.398438 65.910156 29.789062 C 65.675781 31.386719 65.71875 33.5625 66.996094 35.511719 " fill-opacity="1" fill-rule="nonzero"/></g></svg>