<svg xmlns="http://www.w3.org/2000/svg" xmlns:xlink="http://www.w3.org/1999/xlink" width="220" zoomAndPan="magnify" viewBox="0 0 165 52.499999" height="70" preserveAspectRatio="xMidYMid meet" version="1.0"><defs><g/></defs><g fill="#ffffff" fill-opacity="1"><g transform="translate(28.183643, 29.620636)"><g><path d="M -0.25 1.632812 C -0.25 4.792969 0.578125 10.566406 4.792969 10.566406 C 7.90625 10.566406 11.519531 6.699219 12.949219 4.792969 C 13.449219 4.117188 13.878906 3.464844 14.355469 2.761719 L 18.09375 -4.066406 C 18.09375 -4.242188 17.941406 -4.441406 17.71875 -4.441406 C 17.492188 -4.441406 17.191406 -4.265625 16.890625 -3.6875 C 15.058594 -0.199219 13.199219 3.511719 10.464844 6.296875 C 10.136719 6.625 9.886719 6.777344 9.5625 7.078125 L 8.707031 7.828125 C 7.703125 8.609375 6.25 9.535156 4.816406 9.535156 C 3.210938 9.535156 2.234375 8.304688 1.808594 6.902344 C 0.527344 3.539062 1.179688 -0.980469 1.882812 -4.316406 C 2.710938 -8.355469 4.71875 -14.304688 7.605469 -17.191406 C 8.457031 -18.042969 9.410156 -18.496094 10.238281 -18.496094 C 11.265625 -18.496094 12.070312 -17.742188 12.070312 -16.035156 C 12.070312 -13.324219 11.042969 -10.941406 10.039062 -8.632812 C 9.914062 -8.304688 9.761719 -8.003906 9.636719 -7.652344 C 9.386719 -7.175781 9.335938 -7.027344 9.761719 -6.726562 C 10.265625 -6.824219 10.289062 -7.027344 10.464844 -7.429688 C 11.46875 -9.460938 13.050781 -13.125 13.050781 -15.332031 C 13.050781 -16.613281 13.125 -17.492188 12.347656 -18.59375 C 11.769531 -19.375 11.015625 -19.699219 10.214844 -19.699219 C 9.132812 -19.699219 7.953125 -19.121094 7.027344 -18.394531 C 4.992188 -16.789062 3.414062 -13.675781 2.460938 -11.265625 C 1.105469 -7.828125 -0.25 -3.113281 -0.25 1.632812 Z M -0.25 1.632812 "/></g></g></g><g fill="#ffffff" fill-opacity="1"><g transform="translate(45.269375, 29.620636)"><g><path d="M 0 -2.535156 C 0 -1.632812 0.0742188 -1.203125 1.003906 -1.203125 C 1.730469 -1.203125 2.507812 -3.5625 2.984375 -3.890625 C 2.984375 -2.8125 3.789062 -1.503906 5.042969 -1.503906 C 5.46875 -1.503906 5.949219 -1.65625 6.449219 -2.007812 L 7.203125 -2.609375 C 8.480469 -3.839844 8.332031 -4.46875 7.953125 -4.46875 C 7.804688 -4.46875 7.628906 -4.390625 7.503906 -4.214844 C 7.152344 -3.839844 7.078125 -3.613281 6.601562 -3.1875 C 6.046875 -2.636719 5.519531 -2.332031 5.042969 -2.332031 C 4.515625 -2.332031 4.066406 -2.734375 3.863281 -3.640625 C 3.640625 -4.59375 4.066406 -5.722656 3.1875 -5.722656 C 2.859375 -5.722656 1.832031 -3.589844 1.328125 -2.8125 L 1.128906 -2.507812 C 1.003906 -2.359375 1.078125 -2.460938 1.003906 -2.382812 C 1.003906 -3.210938 1.355469 -4.164062 1.679688 -4.691406 C 2.410156 -5.949219 2.910156 -6.296875 3.289062 -6.296875 C 3.765625 -6.296875 4.066406 -5.722656 4.417969 -5.722656 C 5.070312 -5.722656 4.417969 -7.152344 3.238281 -7.152344 C 1.480469 -7.152344 0 -3.964844 0 -2.535156 Z M 0 -2.535156 "/></g></g></g><g fill="#ffffff" fill-opacity="1"><g transform="translate(52.545232, 29.620636)"><g><path d="M 1.328125 -2.03125 L 1.378906 -2.03125 C 2.484375 -2.109375 3.4375 -5.671875 4.566406 -6.425781 C 4.566406 -5.671875 4.792969 -4.769531 5.570312 -4.769531 C 6.25 -4.769531 7.152344 -6.074219 7.652344 -6.425781 C 7.652344 -4.96875 6.953125 -2.585938 7.679688 -0.753906 C 7.953125 -0.0234375 8.40625 0.25 8.882812 0.25 C 9.710938 0.25 10.664062 -0.550781 11.316406 -1.503906 C 11.492188 -1.757812 11.59375 -1.882812 11.746094 -2.082031 C 11.894531 -2.332031 11.96875 -2.484375 12.121094 -2.710938 C 12.296875 -2.984375 12.847656 -3.789062 12.847656 -4.089844 C 12.847656 -4.265625 12.699219 -4.417969 12.597656 -4.417969 C 12.046875 -4.417969 11.921875 -3.941406 11.695312 -3.589844 C 11.042969 -2.507812 9.863281 -0.675781 9.132812 -0.675781 C 8.707031 -0.675781 8.433594 -1.230469 8.433594 -2.761719 C 8.433594 -4.164062 8.882812 -6.851562 8.433594 -7.378906 C 8.304688 -7.527344 8.15625 -7.578125 8.003906 -7.578125 C 7.855469 -7.578125 7.703125 -7.527344 7.554688 -7.453125 C 7.277344 -7.300781 7.125 -7.101562 6.902344 -6.851562 C 6.449219 -6.449219 5.871094 -5.722656 5.496094 -5.671875 C 5.496094 -6.472656 5.320312 -7.453125 4.566406 -7.453125 C 3.964844 -7.453125 3.238281 -6.171875 2.960938 -5.695312 L 1.78125 -3.714844 C 1.730469 -3.664062 1.707031 -3.640625 1.65625 -3.589844 C 1.65625 -6.125 2.859375 -7.253906 1.582031 -7.253906 C 0.675781 -7.253906 -0.425781 -2.03125 1.328125 -2.03125 Z M 1.328125 -2.03125 "/></g></g></g><g fill="#ffffff" fill-opacity="1"><g transform="translate(64.261884, 29.620636)"><g><path d="M 0 -2.535156 C 0 -1.632812 0.0742188 -1.203125 1.003906 -1.203125 C 1.730469 -1.203125 2.507812 -3.5625 2.984375 -3.890625 C 2.984375 -2.8125 3.789062 -1.503906 5.042969 -1.503906 C 5.46875 -1.503906 5.949219 -1.65625 6.449219 -2.007812 L 7.203125 -2.609375 C 8.480469 -3.839844 8.332031 -4.46875 7.953125 -4.46875 C 7.804688 -4.46875 7.628906 -4.390625 7.503906 -4.214844 C 7.152344 -3.839844 7.078125 -3.613281 6.601562 -3.1875 C 6.046875 -2.636719 5.519531 -2.332031 5.042969 -2.332031 C 4.515625 -2.332031 4.066406 -2.734375 3.863281 -3.640625 C 3.640625 -4.59375 4.066406 -5.722656 3.1875 -5.722656 C 2.859375 -5.722656 1.832031 -3.589844 1.328125 -2.8125 L 1.128906 -2.507812 C 1.003906 -2.359375 1.078125 -2.460938 1.003906 -2.382812 C 1.003906 -3.210938 1.355469 -4.164062 1.679688 -4.691406 C 2.410156 -5.949219 2.910156 -6.296875 3.289062 -6.296875 C 3.765625 -6.296875 4.066406 -5.722656 4.417969 -5.722656 C 5.070312 -5.722656 4.417969 -7.152344 3.238281 -7.152344 C 1.480469 -7.152344 0 -3.964844 0 -2.535156 Z M 0 -2.535156 "/></g></g></g><g fill="#ffffff" fill-opacity="1"><g transform="translate(71.537741, 29.620636)"><g><path d="M 0.351562 -0.101562 C 1.128906 -0.101562 0.828125 -0.953125 0.980469 -1.605469 C 1.078125 -2.207031 1.304688 -2.710938 1.554688 -3.136719 C 1.957031 -3.789062 2.082031 -3.789062 3.035156 -3.789062 C 3.3125 -3.789062 3.6875 -3.765625 4.015625 -3.765625 C 4.515625 -3.765625 4.917969 -3.8125 4.917969 -4.164062 C 4.917969 -4.492188 4.140625 -4.542969 3.414062 -4.542969 C 2.984375 -4.542969 2.558594 -4.515625 2.332031 -4.515625 C 1.554688 -4.515625 1.40625 -4.039062 1.027344 -3.789062 C 1.027344 -4.117188 1.078125 -4.089844 1.078125 -4.441406 C 1.078125 -4.691406 1.078125 -4.992188 1.105469 -5.246094 C 1.179688 -5.949219 1.304688 -6.425781 0.628906 -6.425781 C 0.0742188 -6.425781 0.0234375 -3.8125 0.0234375 -3.363281 C 0.0507812 -2.734375 0.0234375 -2.109375 0.0507812 -1.503906 C 0.0507812 -1.328125 -0.152344 -0.101562 0.351562 -0.101562 Z M 0.351562 -0.101562 "/></g></g></g><g fill="#ffffff" fill-opacity="1"><g transform="translate(75.627273, 29.620636)"><g><path d="M 1.15625 -4.542969 C 1.328125 -5.167969 2.15625 -6.148438 2.835938 -6.273438 C 2.761719 -5.46875 1.78125 -4.867188 1.15625 -4.542969 Z M 0.0234375 -3.941406 C 0.0234375 -3.238281 0 -2.609375 0.601562 -2.007812 C 1.027344 -1.582031 1.53125 -1.40625 2.058594 -1.40625 C 3.589844 -1.40625 5.320312 -2.9375 6.25 -3.863281 C 6.472656 -4.140625 6.472656 -4.164062 6.398438 -4.542969 C 5.644531 -4.542969 6.046875 -4.441406 5.019531 -3.640625 C 4.84375 -3.511719 4.769531 -3.414062 4.566406 -3.261719 C 4.066406 -2.886719 3.011719 -2.15625 2.132812 -2.15625 C 1.832031 -2.15625 1.53125 -2.257812 1.304688 -2.484375 C 0.878906 -2.910156 0.929688 -3.3125 0.929688 -3.839844 C 1.707031 -3.890625 2.609375 -4.617188 3.011719 -5.070312 C 3.789062 -6.046875 3.789062 -7.050781 2.683594 -7.050781 C 1.480469 -7.050781 0.0234375 -5.195312 0.0234375 -3.941406 Z M 0.0234375 -3.941406 "/></g></g></g><g fill="#ffffff" fill-opacity="1"><g transform="translate(81.071624, 29.620636)"><g/></g></g><g fill="#ffffff" fill-opacity="1"><g transform="translate(87.569724, 29.620636)"><g><path d="M -0.25 1.632812 C -0.25 4.792969 0.578125 10.566406 4.792969 10.566406 C 7.90625 10.566406 11.519531 6.699219 12.949219 4.792969 C 13.449219 4.117188 13.878906 3.464844 14.355469 2.761719 L 18.09375 -4.066406 C 18.09375 -4.242188 17.941406 -4.441406 17.71875 -4.441406 C 17.492188 -4.441406 17.191406 -4.265625 16.890625 -3.6875 C 15.058594 -0.199219 13.199219 3.511719 10.464844 6.296875 C 10.136719 6.625 9.886719 6.777344 9.5625 7.078125 L 8.707031 7.828125 C 7.703125 8.609375 6.25 9.535156 4.816406 9.535156 C 3.210938 9.535156 2.234375 8.304688 1.808594 6.902344 C 0.527344 3.539062 1.179688 -0.980469 1.882812 -4.316406 C 2.710938 -8.355469 4.71875 -14.304688 7.605469 -17.191406 C 8.457031 -18.042969 9.410156 -18.496094 10.238281 -18.496094 C 11.265625 -18.496094 12.070312 -17.742188 12.070312 -16.035156 C 12.070312 -13.324219 11.042969 -10.941406 10.039062 -8.632812 C 9.914062 -8.304688 9.761719 -8.003906 9.636719 -7.652344 C 9.386719 -7.175781 9.335938 -7.027344 9.761719 -6.726562 C 10.265625 -6.824219 10.289062 -7.027344 10.464844 -7.429688 C 11.46875 -9.460938 13.050781 -13.125 13.050781 -15.332031 C 13.050781 -16.613281 13.125 -17.492188 12.347656 -18.59375 C 11.769531 -19.375 11.015625 -19.699219 10.214844 -19.699219 C 9.132812 -19.699219 7.953125 -19.121094 7.027344 -18.394531 C 4.992188 -16.789062 3.414062 -13.675781 2.460938 -11.265625 C 1.105469 -7.828125 -0.25 -3.113281 -0.25 1.632812 Z M -0.25 1.632812 "/></g></g></g><g fill="#ffffff" fill-opacity="1"><g transform="translate(104.655456, 29.620636)"><g><path d="M 0 -2.535156 C 0 -1.632812 0.0742188 -1.203125 1.003906 -1.203125 C 1.730469 -1.203125 2.507812 -3.5625 2.984375 -3.890625 C 2.984375 -2.8125 3.789062 -1.503906 5.042969 -1.503906 C 5.46875 -1.503906 5.949219 -1.65625 6.449219 -2.007812 L 7.203125 -2.609375 C 8.480469 -3.839844 8.332031 -4.46875 7.953125 -4.46875 C 7.804688 -4.46875 7.628906 -4.390625 7.503906 -4.214844 C 7.152344 -3.839844 7.078125 -3.613281 6.601562 -3.1875 C 6.046875 -2.636719 5.519531 -2.332031 5.042969 -2.332031 C 4.515625 -2.332031 4.066406 -2.734375 3.863281 -3.640625 C 3.640625 -4.59375 4.066406 -5.722656 3.1875 -5.722656 C 2.859375 -5.722656 1.832031 -3.589844 1.328125 -2.8125 L 1.128906 -2.507812 C 1.003906 -2.359375 1.078125 -2.460938 1.003906 -2.382812 C 1.003906 -3.210938 1.355469 -4.164062 1.679688 -4.691406 C 2.410156 -5.949219 2.910156 -6.296875 3.289062 -6.296875 C 3.765625 -6.296875 4.066406 -5.722656 4.417969 -5.722656 C 5.070312 -5.722656 4.417969 -7.152344 3.238281 -7.152344 C 1.480469 -7.152344 0 -3.964844 0 -2.535156 Z M 0 -2.535156 "/></g></g></g><g fill="#ffffff" fill-opacity="1"><g transform="translate(111.931312, 29.620636)"><g><path d="M 0 -1.90625 L 0 0.226562 C 0 0.703125 0.0507812 0.777344 0.0742188 1.15625 C 0.125 1.78125 -0.101562 2.636719 0.578125 2.636719 C 1.078125 2.636719 1.230469 1.203125 1.605469 0.101562 L 2.710938 -2.308594 C 2.984375 -1.15625 3.160156 0 3.539062 1.105469 C 3.738281 1.707031 4.015625 2.859375 4.640625 3.160156 C 4.71875 3.1875 4.792969 3.210938 4.84375 3.210938 C 5.042969 3.210938 5.167969 3.035156 5.296875 2.886719 C 5.21875 2.558594 4.992188 2.332031 4.742188 1.707031 C 4.367188 0.703125 3.839844 -1.53125 3.738281 -2.585938 C 3.589844 -4.015625 3.5625 -3.988281 4.015625 -4.742188 C 4.140625 -4.945312 4.265625 -5.121094 4.390625 -5.320312 C 5.121094 -6.550781 6.125 -7.378906 5.042969 -7.378906 C 4.214844 -7.378906 1.128906 -0.902344 0.980469 -0.753906 C 0.980469 -4.316406 1.429688 -9.261719 2.109375 -12.972656 C 2.308594 -14.101562 2.785156 -14.980469 1.808594 -14.980469 C 0.929688 -14.980469 0.402344 -9.585938 0.328125 -9.007812 C 0.125 -6.777344 0 -4.316406 0 -1.90625 Z M 0 -1.90625 "/></g></g></g><g fill="#ffffff" fill-opacity="1"><g transform="translate(117.626552, 29.620636)"><g><path d="M 1.15625 -4.542969 C 1.328125 -5.167969 2.15625 -6.148438 2.835938 -6.273438 C 2.761719 -5.46875 1.78125 -4.867188 1.15625 -4.542969 Z M 0.0234375 -3.941406 C 0.0234375 -3.238281 0 -2.609375 0.601562 -2.007812 C 1.027344 -1.582031 1.53125 -1.40625 2.058594 -1.40625 C 3.589844 -1.40625 5.320312 -2.9375 6.25 -3.863281 C 6.472656 -4.140625 6.472656 -4.164062 6.398438 -4.542969 C 5.644531 -4.542969 6.046875 -4.441406 5.019531 -3.640625 C 4.84375 -3.511719 4.769531 -3.414062 4.566406 -3.261719 C 4.066406 -2.886719 3.011719 -2.15625 2.132812 -2.15625 C 1.832031 -2.15625 1.53125 -2.257812 1.304688 -2.484375 C 0.878906 -2.910156 0.929688 -3.3125 0.929688 -3.839844 C 1.707031 -3.890625 2.609375 -4.617188 3.011719 -5.070312 C 3.789062 -6.046875 3.789062 -7.050781 2.683594 -7.050781 C 1.480469 -7.050781 0.0234375 -5.195312 0.0234375 -3.941406 Z M 0.0234375 -3.941406 "/></g></g></g><g fill="#ffffff" fill-opacity="1"><g transform="translate(123.070903, 29.620636)"><g><path d="M 0.300781 4.140625 C 0.300781 3.136719 1.027344 2.007812 1.632812 1.28125 C 1.933594 0.929688 2.535156 0.175781 2.9375 -0.0507812 C 2.9375 0.652344 2.960938 1.203125 2.785156 1.78125 C 2.558594 2.609375 2.007812 3.8125 1.328125 4.316406 C 1.15625 4.46875 0.851562 4.667969 0.628906 4.667969 C 0.453125 4.667969 0.300781 4.515625 0.300781 4.140625 Z M 0.0742188 -4.066406 C 0.0742188 -2.734375 1.832031 -2.308594 2.609375 -0.878906 C 2.234375 -0.277344 -0.5 1.882812 -0.5 4.140625 C -0.5 5.042969 0 5.519531 0.703125 5.519531 C 1.457031 5.519531 2.410156 4.945312 3.136719 3.714844 C 4.816406 0.851562 3.789062 -0.601562 3.890625 -0.953125 C 3.941406 -1.15625 5.722656 -2.484375 5.996094 -2.636719 L 7.703125 -3.8125 C 8.28125 -4.140625 8.332031 -4.566406 7.929688 -4.566406 C 7.703125 -4.566406 7.378906 -4.46875 6.953125 -4.164062 L 4.617188 -2.535156 C 4.242188 -2.207031 3.890625 -1.933594 3.488281 -1.65625 C 2.183594 -3.613281 0.300781 -3.539062 1.632812 -5.042969 C 2.007812 -5.46875 1.933594 -5.34375 2.535156 -5.496094 C 2.683594 -6.125 2.460938 -6.375 2.109375 -6.375 C 1.378906 -6.375 0.0742188 -5.34375 0.0742188 -4.066406 Z M 0.0742188 -4.066406 "/></g></g></g><g fill="#ffffff" fill-opacity="1"><g transform="translate(130.312099, 29.620636)"><g/></g></g></svg>