<svg xmlns="http://www.w3.org/2000/svg" xmlns:xlink="http://www.w3.org/1999/xlink" width="100" zoomAndPan="magnify" viewBox="0 0 75 37.5" height="50" preserveAspectRatio="xMidYMid meet" version="1.0"><defs><g/></defs><g fill="#ffffff" fill-opacity="1"><g transform="translate(5.400211, 15.841059)"><g><path d="M 3.1875 -4.640625 C 3.8125 -4.441406 3.945312 -3.910156 3.59375 -3.046875 C 3.53125 -3.046875 3.46875 -3.054688 3.40625 -3.078125 C 3.351562 -3.109375 3.320312 -3.132812 3.3125 -3.15625 L 3.265625 -3.1875 C 3.273438 -3.195312 3.285156 -3.21875 3.296875 -3.25 C 3.304688 -3.289062 3.3125 -3.351562 3.3125 -3.4375 C 3.320312 -3.519531 3.320312 -3.59375 3.3125 -3.65625 C 3.300781 -3.726562 3.265625 -3.789062 3.203125 -3.84375 C 3.148438 -3.894531 3.066406 -3.925781 2.953125 -3.9375 C 2.898438 -3.945312 2.851562 -3.945312 2.8125 -3.9375 C 2.78125 -3.9375 2.71875 -3.910156 2.625 -3.859375 C 2.53125 -3.816406 2.445312 -3.75 2.375 -3.65625 C 2.300781 -3.5625 2.226562 -3.410156 2.15625 -3.203125 C 2.082031 -3.003906 2.019531 -2.765625 1.96875 -2.484375 C 1.820312 -1.578125 2.003906 -1.148438 2.515625 -1.203125 C 3.023438 -1.273438 3.738281 -1.765625 4.65625 -2.671875 C 5.226562 -3.234375 5.59375 -3.671875 5.75 -3.984375 L 6 -3.78125 C 5.289062 -2.457031 4.390625 -1.472656 3.296875 -0.828125 C 2.378906 -0.285156 1.59375 -0.117188 0.9375 -0.328125 C 0.289062 -0.546875 -0.0195312 -1.082031 0 -1.9375 C 0.0078125 -2.09375 0.0234375 -2.253906 0.046875 -2.421875 C 0.109375 -2.785156 0.21875 -3.109375 0.375 -3.390625 C 0.53125 -3.679688 0.703125 -3.90625 0.890625 -4.0625 C 1.085938 -4.226562 1.296875 -4.363281 1.515625 -4.46875 C 1.734375 -4.570312 1.953125 -4.640625 2.171875 -4.671875 C 2.390625 -4.703125 2.582031 -4.710938 2.75 -4.703125 C 2.925781 -4.691406 3.070312 -4.671875 3.1875 -4.640625 Z M 3.1875 -4.640625 "/></g></g></g><g fill="#ffffff" fill-opacity="1"><g transform="translate(15.597723, 15.841059)"><g><path d="M 7.296875 -4.171875 L 7.71875 -4.171875 C 7.6875 -4.046875 7.632812 -3.882812 7.5625 -3.6875 C 7.5 -3.5 7.347656 -3.160156 7.109375 -2.671875 C 6.867188 -2.179688 6.609375 -1.742188 6.328125 -1.359375 C 6.054688 -0.984375 5.691406 -0.640625 5.234375 -0.328125 C 4.785156 -0.0234375 4.316406 0.125 3.828125 0.125 C 3.515625 0.125 3.269531 0.015625 3.09375 -0.203125 C 2.914062 -0.429688 2.8125 -0.703125 2.78125 -1.015625 C 2.75 -1.335938 2.742188 -1.726562 2.765625 -2.1875 C 2.171875 -1.613281 1.539062 -1.378906 0.875 -1.484375 C 0.457031 -1.566406 0.1875 -1.773438 0.0625 -2.109375 C -0.0507812 -2.453125 -0.0234375 -2.820312 0.140625 -3.21875 C 0.316406 -3.613281 0.59375 -3.925781 0.96875 -4.15625 C 1.570312 -4.53125 2.257812 -4.65625 3.03125 -4.53125 C 3.050781 -4.925781 3.039062 -5.210938 3 -5.390625 C 3.03125 -5.398438 3.070312 -5.40625 3.125 -5.40625 C 3.175781 -5.414062 3.273438 -5.421875 3.421875 -5.421875 C 3.578125 -5.429688 3.71875 -5.425781 3.84375 -5.40625 C 3.976562 -5.394531 4.125 -5.351562 4.28125 -5.28125 C 4.445312 -5.21875 4.582031 -5.128906 4.6875 -5.015625 C 4.800781 -4.898438 4.890625 -4.734375 4.953125 -4.515625 C 5.015625 -4.296875 5.035156 -4.046875 5.015625 -3.765625 C 4.890625 -1.984375 4.988281 -1.085938 5.3125 -1.078125 C 5.4375 -1.066406 5.59375 -1.171875 5.78125 -1.390625 C 6.125 -1.773438 6.421875 -2.195312 6.671875 -2.65625 C 6.929688 -3.125 7.101562 -3.492188 7.1875 -3.765625 Z M 1.375 -2.90625 C 1.351562 -2.46875 1.535156 -2.316406 1.921875 -2.453125 C 2.234375 -2.554688 2.550781 -2.785156 2.875 -3.140625 C 2.90625 -3.460938 2.9375 -3.707031 2.96875 -3.875 C 2.832031 -3.875 2.691406 -3.863281 2.546875 -3.84375 C 2.398438 -3.820312 2.226562 -3.78125 2.03125 -3.71875 C 1.84375 -3.664062 1.6875 -3.566406 1.5625 -3.421875 C 1.445312 -3.285156 1.382812 -3.113281 1.375 -2.90625 Z M 1.375 -2.90625 "/></g></g></g><g fill="#ffffff" fill-opacity="1"><g transform="translate(27.590746, 15.841059)"><g><path d="M 9.75 -3.5625 L 10 -3.515625 C 9.945312 -3.410156 9.875 -3.269531 9.78125 -3.09375 C 9.6875 -2.914062 9.492188 -2.601562 9.203125 -2.15625 C 8.910156 -1.707031 8.613281 -1.3125 8.3125 -0.96875 C 8.007812 -0.632812 7.632812 -0.320312 7.1875 -0.03125 C 6.75 0.25 6.320312 0.390625 5.90625 0.390625 C 5.644531 0.390625 5.453125 0.285156 5.328125 0.078125 C 5.210938 -0.128906 5.15625 -0.394531 5.15625 -0.71875 C 5.164062 -1.050781 5.195312 -1.410156 5.25 -1.796875 C 5.3125 -2.191406 5.375 -2.582031 5.4375 -2.96875 C 5.507812 -3.351562 5.554688 -3.703125 5.578125 -4.015625 C 5.609375 -4.328125 5.585938 -4.566406 5.515625 -4.734375 C 5.441406 -4.898438 5.300781 -4.960938 5.09375 -4.921875 L 5.078125 -4.90625 C 4.953125 -4.863281 4.832031 -4.789062 4.71875 -4.6875 C 4.582031 -4.53125 4.476562 -4.367188 4.40625 -4.203125 C 4.3125 -4.023438 4.234375 -3.804688 4.171875 -3.546875 C 4.109375 -3.265625 4.054688 -3.003906 4.015625 -2.765625 C 4.003906 -2.734375 3.992188 -2.691406 3.984375 -2.640625 C 3.984375 -2.597656 3.984375 -2.566406 3.984375 -2.546875 C 3.984375 -2.523438 3.976562 -2.5 3.96875 -2.46875 C 3.957031 -2.445312 3.953125 -2.429688 3.953125 -2.421875 C 3.929688 -2.390625 3.921875 -2.363281 3.921875 -2.34375 C 3.910156 -2.3125 3.894531 -2.28125 3.875 -2.25 L 3.8125 -2.1875 C 3.800781 -2.1875 3.789062 -2.1875 3.78125 -2.1875 C 3.769531 -2.1875 3.757812 -2.179688 3.75 -2.171875 L 3.71875 -2.15625 C 3.707031 -2.15625 3.695312 -2.15625 3.6875 -2.15625 L 3.671875 -2.15625 C 3.617188 -2.15625 3.570312 -2.164062 3.53125 -2.1875 C 3.507812 -2.195312 3.488281 -2.21875 3.46875 -2.25 C 3.4375 -2.28125 3.410156 -2.3125 3.390625 -2.34375 C 3.378906 -2.382812 3.375 -2.410156 3.375 -2.421875 C 3.351562 -2.484375 3.335938 -2.566406 3.328125 -2.671875 C 3.316406 -2.722656 3.300781 -2.796875 3.28125 -2.890625 C 3.269531 -2.992188 3.265625 -3.070312 3.265625 -3.125 L 3.21875 -3.578125 C 3.207031 -3.617188 3.195312 -3.6875 3.1875 -3.78125 C 3.175781 -3.875 3.164062 -3.945312 3.15625 -4 C 3.082031 -4.21875 3.039062 -4.335938 3.03125 -4.359375 C 3.03125 -4.378906 3.019531 -4.394531 3 -4.40625 L 2.96875 -4.375 C 2.957031 -4.351562 2.941406 -4.328125 2.921875 -4.296875 C 2.898438 -4.265625 2.882812 -4.238281 2.875 -4.21875 L 2.71875 -3.875 L 2.609375 -3.515625 C 2.523438 -3.273438 2.457031 -3.046875 2.40625 -2.828125 C 2.375 -2.679688 2.328125 -2.488281 2.265625 -2.25 C 2.210938 -2.019531 2.179688 -1.859375 2.171875 -1.765625 C 2.148438 -1.660156 2.128906 -1.539062 2.109375 -1.40625 C 1.941406 -0.75 1.5625 -0.410156 0.96875 -0.390625 C 0.613281 -0.378906 0.359375 -0.519531 0.203125 -0.8125 C 0.046875 -1.101562 -0.0195312 -1.472656 0 -1.921875 C 0.0195312 -2.378906 0.0546875 -2.867188 0.109375 -3.390625 C 0.160156 -3.910156 0.21875 -4.390625 0.28125 -4.828125 C 0.351562 -5.265625 0.351562 -5.617188 0.28125 -5.890625 C 0.3125 -5.898438 0.347656 -5.90625 0.390625 -5.90625 C 0.441406 -5.914062 0.535156 -5.925781 0.671875 -5.9375 C 0.816406 -5.945312 0.945312 -5.941406 1.0625 -5.921875 C 1.1875 -5.898438 1.320312 -5.851562 1.46875 -5.78125 C 1.613281 -5.707031 1.738281 -5.609375 1.84375 -5.484375 C 1.945312 -5.359375 2.023438 -5.175781 2.078125 -4.9375 C 2.140625 -4.707031 2.160156 -4.4375 2.140625 -4.125 C 2.140625 -4.03125 2.128906 -3.914062 2.109375 -3.78125 C 2.128906 -3.8125 2.148438 -3.859375 2.171875 -3.921875 C 2.191406 -3.992188 2.207031 -4.039062 2.21875 -4.0625 C 2.28125 -4.207031 2.34375 -4.347656 2.40625 -4.484375 C 2.476562 -4.597656 2.523438 -4.664062 2.546875 -4.6875 L 2.65625 -4.796875 C 2.695312 -4.835938 2.753906 -4.875 2.828125 -4.90625 C 2.859375 -4.925781 2.894531 -4.9375 2.9375 -4.9375 C 2.957031 -4.9375 2.96875 -4.941406 2.96875 -4.953125 L 3 -4.953125 L 3.03125 -4.9375 L 3.0625 -4.9375 C 3.144531 -4.914062 3.210938 -4.890625 3.265625 -4.859375 C 3.328125 -4.816406 3.375 -4.769531 3.40625 -4.71875 C 3.414062 -4.695312 3.425781 -4.671875 3.4375 -4.640625 C 3.457031 -4.617188 3.472656 -4.597656 3.484375 -4.578125 C 3.515625 -4.515625 3.546875 -4.429688 3.578125 -4.328125 C 3.597656 -4.273438 3.613281 -4.195312 3.625 -4.09375 C 3.644531 -3.976562 3.660156 -3.816406 3.671875 -3.609375 C 3.691406 -3.410156 3.703125 -3.265625 3.703125 -3.171875 L 3.703125 -3.125 C 3.710938 -3.15625 3.734375 -3.234375 3.765625 -3.359375 C 3.804688 -3.484375 3.832031 -3.570312 3.84375 -3.625 C 3.925781 -3.882812 4.023438 -4.117188 4.140625 -4.328125 C 4.242188 -4.523438 4.378906 -4.703125 4.546875 -4.859375 C 4.679688 -4.972656 4.832031 -5.0625 5 -5.125 L 5.03125 -5.125 C 5.039062 -5.125 5.050781 -5.125 5.0625 -5.125 C 5.15625 -5.144531 5.25 -5.160156 5.34375 -5.171875 C 5.445312 -5.191406 5.617188 -5.1875 5.859375 -5.15625 C 6.109375 -5.125 6.316406 -5.0625 6.484375 -4.96875 C 6.660156 -4.875 6.8125 -4.703125 6.9375 -4.453125 C 7.0625 -4.203125 7.109375 -3.882812 7.078125 -3.5 C 7.066406 -3.25 7.035156 -2.894531 6.984375 -2.4375 C 6.890625 -1.582031 6.878906 -1.082031 6.953125 -0.9375 C 7.046875 -0.757812 7.296875 -0.835938 7.703125 -1.171875 C 8.054688 -1.453125 8.398438 -1.789062 8.734375 -2.1875 C 9.078125 -2.59375 9.332031 -2.925781 9.5 -3.1875 Z M 2.984375 -4.4375 L 2.984375 -4.421875 Z M 2.984375 -4.421875 Z M 3 -4.421875 Z M 3.546875 -2.515625 Z M 3.546875 -2.515625 "/></g></g></g><g fill="#ffffff" fill-opacity="1"><g transform="translate(41.764015, 15.841059)"><g><path d="M 7.296875 -4.171875 L 7.71875 -4.171875 C 7.6875 -4.046875 7.632812 -3.882812 7.5625 -3.6875 C 7.5 -3.5 7.347656 -3.160156 7.109375 -2.671875 C 6.867188 -2.179688 6.609375 -1.742188 6.328125 -1.359375 C 6.054688 -0.984375 5.691406 -0.640625 5.234375 -0.328125 C 4.785156 -0.0234375 4.316406 0.125 3.828125 0.125 C 3.515625 0.125 3.269531 0.015625 3.09375 -0.203125 C 2.914062 -0.429688 2.8125 -0.703125 2.78125 -1.015625 C 2.75 -1.335938 2.742188 -1.726562 2.765625 -2.1875 C 2.171875 -1.613281 1.539062 -1.378906 0.875 -1.484375 C 0.457031 -1.566406 0.1875 -1.773438 0.0625 -2.109375 C -0.0507812 -2.453125 -0.0234375 -2.820312 0.140625 -3.21875 C 0.316406 -3.613281 0.59375 -3.925781 0.96875 -4.15625 C 1.570312 -4.53125 2.257812 -4.65625 3.03125 -4.53125 C 3.050781 -4.925781 3.039062 -5.210938 3 -5.390625 C 3.03125 -5.398438 3.070312 -5.40625 3.125 -5.40625 C 3.175781 -5.414062 3.273438 -5.421875 3.421875 -5.421875 C 3.578125 -5.429688 3.71875 -5.425781 3.84375 -5.40625 C 3.976562 -5.394531 4.125 -5.351562 4.28125 -5.28125 C 4.445312 -5.21875 4.582031 -5.128906 4.6875 -5.015625 C 4.800781 -4.898438 4.890625 -4.734375 4.953125 -4.515625 C 5.015625 -4.296875 5.035156 -4.046875 5.015625 -3.765625 C 4.890625 -1.984375 4.988281 -1.085938 5.3125 -1.078125 C 5.4375 -1.066406 5.59375 -1.171875 5.78125 -1.390625 C 6.125 -1.773438 6.421875 -2.195312 6.671875 -2.65625 C 6.929688 -3.125 7.101562 -3.492188 7.1875 -3.765625 Z M 1.375 -2.90625 C 1.351562 -2.46875 1.535156 -2.316406 1.921875 -2.453125 C 2.234375 -2.554688 2.550781 -2.785156 2.875 -3.140625 C 2.90625 -3.460938 2.9375 -3.707031 2.96875 -3.875 C 2.832031 -3.875 2.691406 -3.863281 2.546875 -3.84375 C 2.398438 -3.820312 2.226562 -3.78125 2.03125 -3.71875 C 1.84375 -3.664062 1.6875 -3.566406 1.5625 -3.421875 C 1.445312 -3.285156 1.382812 -3.113281 1.375 -2.90625 Z M 1.375 -2.90625 "/></g></g></g><g fill="#ffffff" fill-opacity="1"><g transform="translate(53.757038, 15.841059)"><g><path d="M 6.375 -3.734375 C 6.375 -3.734375 6.46875 -3.738281 6.65625 -3.75 C 6.78125 -3.71875 6.820312 -3.648438 6.78125 -3.546875 C 6.78125 -3.535156 6.75 -3.425781 6.6875 -3.21875 C 6.632812 -3.007812 6.570312 -2.785156 6.5 -2.546875 C 6.4375 -2.304688 6.335938 -2.015625 6.203125 -1.671875 C 6.078125 -1.328125 5.941406 -0.992188 5.796875 -0.671875 C 5.660156 -0.359375 5.488281 -0.0390625 5.28125 0.28125 C 5.082031 0.601562 4.875 0.878906 4.65625 1.109375 C 4.4375 1.347656 4.179688 1.535156 3.890625 1.671875 C 3.609375 1.816406 3.320312 1.878906 3.03125 1.859375 C 2.800781 1.847656 2.609375 1.769531 2.453125 1.625 C 2.296875 1.488281 2.1875 1.296875 2.125 1.046875 C 2.070312 0.804688 2.035156 0.539062 2.015625 0.25 C 1.992188 -0.03125 2.003906 -0.359375 2.046875 -0.734375 C 2.085938 -1.109375 2.128906 -1.445312 2.171875 -1.75 C 2.210938 -2.050781 2.257812 -2.390625 2.3125 -2.765625 C 2.375 -3.140625 2.414062 -3.429688 2.4375 -3.640625 C 1.894531 -3.648438 1.46875 -3.695312 1.15625 -3.78125 C 0.84375 -3.875 0.644531 -3.988281 0.5625 -4.125 C 0.476562 -4.257812 0.425781 -4.410156 0.40625 -4.578125 C 0.382812 -4.753906 0.390625 -4.9375 0.421875 -5.125 C 0.460938 -5.3125 0.453125 -5.492188 0.390625 -5.671875 C 0.441406 -5.691406 0.503906 -5.710938 0.578125 -5.734375 C 0.660156 -5.765625 0.804688 -5.796875 1.015625 -5.828125 C 1.222656 -5.867188 1.40625 -5.867188 1.5625 -5.828125 C 1.726562 -5.796875 1.867188 -5.695312 1.984375 -5.53125 C 2.097656 -5.375 2.140625 -5.144531 2.109375 -4.84375 C 2.097656 -4.613281 2.285156 -4.5 2.671875 -4.5 C 2.804688 -4.507812 2.941406 -4.507812 3.078125 -4.5 C 3.210938 -4.488281 3.375 -4.453125 3.5625 -4.390625 C 3.75 -4.328125 3.90625 -4.234375 4.03125 -4.109375 C 4.15625 -3.992188 4.253906 -3.816406 4.328125 -3.578125 C 4.410156 -3.347656 4.429688 -3.078125 4.390625 -2.765625 C 4.179688 -1.179688 4.085938 -0.222656 4.109375 0.109375 C 4.117188 0.765625 4.335938 0.859375 4.765625 0.390625 C 5.066406 0.078125 5.351562 -0.421875 5.625 -1.109375 C 5.894531 -1.796875 6.085938 -2.40625 6.203125 -2.9375 Z M 6.375 -3.734375 "/></g></g></g><g fill="#ffffff" fill-opacity="1"><g transform="translate(64.621452, 15.841059)"><g><path d="M 5.625 -3.90625 L 5.890625 -3.703125 C 5.179688 -2.378906 4.285156 -1.367188 3.203125 -0.671875 C 2.285156 -0.0664062 1.515625 0.132812 0.890625 -0.0625 C 0.222656 -0.28125 -0.0664062 -0.898438 0.015625 -1.921875 C 0.0234375 -2.054688 0.0390625 -2.195312 0.0625 -2.34375 C 0.132812 -2.78125 0.269531 -3.15625 0.46875 -3.46875 C 0.675781 -3.789062 0.898438 -4.03125 1.140625 -4.1875 C 1.390625 -4.34375 1.648438 -4.457031 1.921875 -4.53125 C 2.203125 -4.601562 2.445312 -4.632812 2.65625 -4.625 C 2.875 -4.625 3.054688 -4.601562 3.203125 -4.5625 C 3.390625 -4.507812 3.539062 -4.40625 3.65625 -4.25 C 3.78125 -4.101562 3.851562 -3.910156 3.875 -3.671875 C 3.894531 -3.429688 3.8125 -3.160156 3.625 -2.859375 C 3.320312 -2.367188 2.765625 -2.140625 1.953125 -2.171875 C 1.859375 -1.316406 2.039062 -0.925781 2.5 -1 C 3.007812 -1.070312 3.71875 -1.601562 4.625 -2.59375 C 5.144531 -3.164062 5.476562 -3.601562 5.625 -3.90625 Z M 2.96875 -3.859375 C 2.925781 -3.859375 2.878906 -3.859375 2.828125 -3.859375 C 2.785156 -3.859375 2.71875 -3.832031 2.625 -3.78125 C 2.539062 -3.738281 2.460938 -3.675781 2.390625 -3.59375 C 2.328125 -3.507812 2.253906 -3.367188 2.171875 -3.171875 C 2.097656 -2.984375 2.039062 -2.753906 2 -2.484375 C 2.632812 -2.441406 3.0625 -2.648438 3.28125 -3.109375 C 3.3125 -3.179688 3.335938 -3.269531 3.359375 -3.375 C 3.378906 -3.488281 3.359375 -3.597656 3.296875 -3.703125 C 3.234375 -3.804688 3.125 -3.859375 2.96875 -3.859375 Z M 2.96875 -3.859375 "/></g></g></g><g fill="#ffffff" fill-opacity="1"><g transform="translate(19.20829, 29.903558)"><g><path d="M 1.171875 0.109375 C 0.867188 0.109375 0.644531 -0.0234375 0.5 -0.296875 C 0.351562 -0.566406 0.28125 -0.882812 0.28125 -1.25 C 0.28125 -1.78125 0.40625 -2.332031 0.65625 -2.90625 C 0.914062 -3.488281 1.242188 -3.972656 1.640625 -4.359375 C 2.046875 -4.753906 2.460938 -4.953125 2.890625 -4.953125 C 3.078125 -4.953125 3.222656 -4.914062 3.328125 -4.84375 C 3.441406 -4.769531 3.5 -4.675781 3.5 -4.5625 C 3.5 -4.445312 3.457031 -4.316406 3.375 -4.171875 C 3.320312 -4.085938 3.273438 -4.046875 3.234375 -4.046875 C 3.203125 -4.046875 3.175781 -4.0625 3.15625 -4.09375 C 3.007812 -4.300781 2.820312 -4.40625 2.59375 -4.40625 C 2.3125 -4.40625 2.050781 -4.285156 1.8125 -4.046875 C 1.570312 -3.816406 1.382812 -3.507812 1.25 -3.125 C 1.113281 -2.738281 1.046875 -2.316406 1.046875 -1.859375 C 1.046875 -1.085938 1.257812 -0.703125 1.6875 -0.703125 C 1.90625 -0.703125 2.09375 -0.785156 2.25 -0.953125 C 2.414062 -1.117188 2.566406 -1.320312 2.703125 -1.5625 C 2.710938 -1.582031 2.726562 -1.609375 2.75 -1.640625 C 2.769531 -1.679688 2.789062 -1.707031 2.8125 -1.71875 C 2.832031 -1.726562 2.851562 -1.734375 2.875 -1.734375 C 2.894531 -1.734375 2.910156 -1.722656 2.921875 -1.703125 C 2.941406 -1.679688 2.953125 -1.648438 2.953125 -1.609375 C 2.953125 -1.410156 2.859375 -1.171875 2.671875 -0.890625 C 2.484375 -0.617188 2.25 -0.382812 1.96875 -0.1875 C 1.6875 0.0078125 1.421875 0.109375 1.171875 0.109375 Z M 1.171875 0.109375 "/></g></g></g><g fill="#ffffff" fill-opacity="1"><g transform="translate(27.217865, 29.903558)"><g><path d="M 0.8125 0.109375 C 0.457031 0.109375 0.28125 -0.226562 0.28125 -0.90625 C 0.28125 -1.550781 0.421875 -2.1875 0.703125 -2.8125 C 0.984375 -3.4375 1.363281 -3.945312 1.84375 -4.34375 C 2.320312 -4.75 2.835938 -4.953125 3.390625 -4.953125 C 3.671875 -4.953125 3.914062 -4.90625 4.125 -4.8125 C 4.039062 -4.457031 3.976562 -4.195312 3.9375 -4.03125 L 3.71875 -2.90625 C 3.53125 -2.019531 3.414062 -1.410156 3.375 -1.078125 C 3.363281 -1.023438 3.359375 -0.960938 3.359375 -0.890625 C 3.359375 -0.742188 3.40625 -0.671875 3.5 -0.671875 C 3.601562 -0.671875 3.703125 -0.738281 3.796875 -0.875 C 3.898438 -1.019531 4.015625 -1.222656 4.140625 -1.484375 C 4.148438 -1.492188 4.160156 -1.515625 4.171875 -1.546875 C 4.191406 -1.585938 4.21875 -1.609375 4.25 -1.609375 C 4.289062 -1.609375 4.3125 -1.566406 4.3125 -1.484375 L 4.28125 -1.3125 C 4.238281 -1.082031 4.140625 -0.851562 3.984375 -0.625 C 3.835938 -0.40625 3.671875 -0.226562 3.484375 -0.09375 C 3.304688 0.0390625 3.144531 0.109375 3 0.109375 C 2.75 0.109375 2.625 -0.0859375 2.625 -0.484375 C 2.625 -0.640625 2.644531 -0.796875 2.6875 -0.953125 L 2.859375 -1.859375 L 2.84375 -1.859375 C 2.519531 -1.273438 2.164062 -0.800781 1.78125 -0.4375 C 1.40625 -0.0703125 1.082031 0.109375 0.8125 0.109375 Z M 1.296875 -0.75 C 1.492188 -0.75 1.71875 -0.898438 1.96875 -1.203125 C 2.226562 -1.503906 2.460938 -1.875 2.671875 -2.3125 C 2.890625 -2.75 3.039062 -3.140625 3.125 -3.484375 L 3.296875 -4.15625 C 3.085938 -4.289062 2.867188 -4.359375 2.640625 -4.359375 C 2.347656 -4.359375 2.078125 -4.1875 1.828125 -3.84375 C 1.578125 -3.5 1.382812 -3.082031 1.25 -2.59375 C 1.113281 -2.101562 1.046875 -1.660156 1.046875 -1.265625 C 1.046875 -1.097656 1.0625 -0.96875 1.09375 -0.875 C 1.132812 -0.789062 1.203125 -0.75 1.296875 -0.75 Z M 1.296875 -0.75 "/></g></g></g><g fill="#ffffff" fill-opacity="1"><g transform="translate(36.277489, 29.903558)"><g><path d="M 0.328125 0.109375 C 0.285156 0.109375 0.265625 0.0859375 0.265625 0.046875 C 0.265625 0.015625 0.285156 -0.0625 0.328125 -0.1875 C 0.378906 -0.320312 0.410156 -0.441406 0.421875 -0.546875 L 1.09375 -4.671875 C 1.351562 -6.410156 1.84375 -7.628906 2.5625 -8.328125 C 2.78125 -8.535156 2.992188 -8.679688 3.203125 -8.765625 C 3.421875 -8.859375 3.644531 -8.921875 3.875 -8.953125 C 3.976562 -8.972656 4.070312 -9 4.15625 -9.03125 C 4.238281 -9.0625 4.289062 -9.078125 4.3125 -9.078125 C 4.363281 -9.078125 4.390625 -9.046875 4.390625 -8.984375 C 4.390625 -8.898438 4.320312 -8.800781 4.1875 -8.6875 C 4.113281 -8.625 4.046875 -8.582031 3.984375 -8.5625 C 3.929688 -8.539062 3.875 -8.523438 3.8125 -8.515625 C 3.757812 -8.515625 3.722656 -8.507812 3.703125 -8.5 C 3.503906 -8.46875 3.335938 -8.410156 3.203125 -8.328125 C 3.066406 -8.242188 2.925781 -8.117188 2.78125 -7.953125 C 2.5 -7.597656 2.289062 -7.175781 2.15625 -6.6875 C 2.019531 -6.207031 1.90625 -5.617188 1.8125 -4.921875 L 1.765625 -4.5625 L 1.453125 -2.625 L 1.46875 -2.625 L 1.71875 -3.046875 C 2.132812 -3.773438 2.5 -4.273438 2.8125 -4.546875 C 3.125 -4.816406 3.425781 -4.953125 3.71875 -4.953125 C 3.894531 -4.953125 4.035156 -4.910156 4.140625 -4.828125 C 4.253906 -4.753906 4.3125 -4.648438 4.3125 -4.515625 C 4.3125 -4.410156 4.285156 -4.304688 4.234375 -4.203125 C 4.179688 -4.097656 4.128906 -4.046875 4.078125 -4.046875 C 4.066406 -4.046875 4.050781 -4.050781 4.03125 -4.0625 C 4.019531 -4.082031 4.007812 -4.09375 4 -4.09375 C 3.914062 -4.175781 3.835938 -4.238281 3.765625 -4.28125 C 3.703125 -4.320312 3.628906 -4.34375 3.546875 -4.34375 C 3.328125 -4.34375 3.113281 -4.242188 2.90625 -4.046875 C 2.707031 -3.847656 2.484375 -3.554688 2.234375 -3.171875 L 1.890625 -2.65625 C 2.171875 -2.082031 2.4375 -1.609375 2.6875 -1.234375 C 2.9375 -0.867188 3.132812 -0.6875 3.28125 -0.6875 C 3.394531 -0.6875 3.578125 -0.863281 3.828125 -1.21875 C 3.878906 -1.28125 3.914062 -1.3125 3.9375 -1.3125 C 3.988281 -1.3125 4.015625 -1.273438 4.015625 -1.203125 L 4 -1.078125 C 3.976562 -0.953125 3.910156 -0.796875 3.796875 -0.609375 C 3.679688 -0.421875 3.550781 -0.253906 3.40625 -0.109375 C 3.257812 0.0351562 3.125 0.109375 3 0.109375 C 2.851562 0.109375 2.695312 -0.0078125 2.53125 -0.25 C 2.375 -0.488281 2.140625 -0.890625 1.828125 -1.453125 L 1.515625 -2.046875 C 1.484375 -1.984375 1.4375 -1.898438 1.375 -1.796875 C 1.320312 -1.691406 1.296875 -1.625 1.296875 -1.59375 L 1.140625 -0.65625 C 1.117188 -0.476562 1.015625 -0.304688 0.828125 -0.140625 C 0.648438 0.0234375 0.484375 0.109375 0.328125 0.109375 Z M 0.328125 0.109375 "/></g></g></g><g fill="#ffffff" fill-opacity="1"><g transform="translate(45.253947, 29.903558)"><g><path d="M 1.296875 0.109375 C 0.984375 0.109375 0.734375 -0.0078125 0.546875 -0.25 C 0.367188 -0.488281 0.28125 -0.820312 0.28125 -1.25 C 0.28125 -1.757812 0.398438 -2.304688 0.640625 -2.890625 C 0.890625 -3.484375 1.207031 -3.972656 1.59375 -4.359375 C 1.988281 -4.753906 2.382812 -4.953125 2.78125 -4.953125 C 3.132812 -4.953125 3.3125 -4.734375 3.3125 -4.296875 C 3.3125 -3.941406 3.207031 -3.59375 3 -3.25 C 2.789062 -2.914062 2.507812 -2.617188 2.15625 -2.359375 C 1.8125 -2.097656 1.429688 -1.898438 1.015625 -1.765625 C 1.015625 -1.390625 1.078125 -1.117188 1.203125 -0.953125 C 1.328125 -0.785156 1.503906 -0.703125 1.734375 -0.703125 C 1.984375 -0.703125 2.210938 -0.78125 2.421875 -0.9375 C 2.628906 -1.09375 2.804688 -1.3125 2.953125 -1.59375 C 2.972656 -1.632812 2.992188 -1.664062 3.015625 -1.6875 C 3.035156 -1.71875 3.0625 -1.734375 3.09375 -1.734375 C 3.15625 -1.734375 3.1875 -1.691406 3.1875 -1.609375 C 3.1875 -1.421875 3.09375 -1.1875 2.90625 -0.90625 C 2.71875 -0.632812 2.476562 -0.394531 2.1875 -0.1875 C 1.894531 0.0078125 1.597656 0.109375 1.296875 0.109375 Z M 1.359375 -2.3125 C 1.535156 -2.3125 1.722656 -2.375 1.921875 -2.5 C 2.128906 -2.625 2.300781 -2.796875 2.4375 -3.015625 C 2.582031 -3.242188 2.65625 -3.5 2.65625 -3.78125 C 2.65625 -4.101562 2.539062 -4.265625 2.3125 -4.265625 C 2.125 -4.265625 1.941406 -4.160156 1.765625 -3.953125 C 1.597656 -3.753906 1.457031 -3.503906 1.34375 -3.203125 C 1.226562 -2.910156 1.148438 -2.628906 1.109375 -2.359375 C 1.148438 -2.328125 1.234375 -2.3125 1.359375 -2.3125 Z M 1.359375 -2.3125 "/></g></g></g><g fill="#ffffff" fill-opacity="1"><g transform="translate(53.190747, 29.903558)"><g><path d="M 0.921875 0.109375 C 0.710938 0.109375 0.53125 0.0507812 0.375 -0.0625 C 0.21875 -0.1875 0.117188 -0.347656 0.078125 -0.546875 C 0.0546875 -0.597656 0.078125 -0.679688 0.140625 -0.796875 C 0.203125 -0.921875 0.28125 -1.046875 0.375 -1.171875 C 0.425781 -1.234375 0.472656 -1.265625 0.515625 -1.265625 C 0.546875 -1.265625 0.570312 -1.234375 0.59375 -1.171875 C 0.800781 -0.691406 1.085938 -0.453125 1.453125 -0.453125 C 1.640625 -0.453125 1.785156 -0.507812 1.890625 -0.625 C 2.003906 -0.738281 2.0625 -0.890625 2.0625 -1.078125 C 2.0625 -1.347656 1.910156 -1.691406 1.609375 -2.109375 L 1.390625 -2.421875 C 1.222656 -2.648438 1.109375 -2.835938 1.046875 -2.984375 C 0.984375 -3.140625 0.953125 -3.304688 0.953125 -3.484375 C 0.953125 -3.765625 1.023438 -4.015625 1.171875 -4.234375 C 1.316406 -4.453125 1.507812 -4.625 1.75 -4.75 C 2 -4.882812 2.253906 -4.953125 2.515625 -4.953125 C 3.015625 -4.953125 3.265625 -4.78125 3.265625 -4.4375 C 3.265625 -4.3125 3.21875 -4.1875 3.125 -4.0625 C 3.082031 -3.976562 3.039062 -3.9375 3 -3.9375 C 2.957031 -3.9375 2.921875 -3.976562 2.890625 -4.0625 C 2.816406 -4.195312 2.722656 -4.289062 2.609375 -4.34375 C 2.503906 -4.40625 2.367188 -4.4375 2.203125 -4.4375 C 2.015625 -4.4375 1.859375 -4.382812 1.734375 -4.28125 C 1.617188 -4.175781 1.5625 -4.046875 1.5625 -3.890625 C 1.5625 -3.796875 1.585938 -3.691406 1.640625 -3.578125 C 1.703125 -3.460938 1.816406 -3.289062 1.984375 -3.0625 L 2.203125 -2.75 C 2.398438 -2.5 2.535156 -2.28125 2.609375 -2.09375 C 2.679688 -1.914062 2.71875 -1.722656 2.71875 -1.515625 C 2.71875 -1.265625 2.632812 -1.007812 2.46875 -0.75 C 2.3125 -0.5 2.09375 -0.289062 1.8125 -0.125 C 1.53125 0.03125 1.234375 0.109375 0.921875 0.109375 Z M 0.921875 0.109375 "/></g></g></g></svg>