<svg xmlns="http://www.w3.org/2000/svg" xmlns:xlink="http://www.w3.org/1999/xlink" width="220" zoomAndPan="magnify" viewBox="0 0 165 52.499999" height="70" preserveAspectRatio="xMidYMid meet" version="1.0"><defs><g/><clipPath id="21e2b06361"><path d="M 0.777344 0 L 164.222656 0 L 164.222656 52.003906 L 0.777344 52.003906 Z M 0.777344 0 " clip-rule="nonzero"/></clipPath></defs><g clip-path="url(#21e2b06361)"><path fill="#ffffff" d="M 0.777344 0 L 164.222656 0 L 164.222656 59.433594 L 0.777344 59.433594 Z M 0.777344 0 " fill-opacity="1" fill-rule="nonzero"/><path fill="#ffffff" d="M 0.777344 0 L 164.222656 0 L 164.222656 52.003906 L 0.777344 52.003906 Z M 0.777344 0 " fill-opacity="1" fill-rule="nonzero"/><path fill="#9c27b0" d="M 0.777344 0 L 164.222656 0 L 164.222656 52.003906 L 0.777344 52.003906 Z M 0.777344 0 " fill-opacity="1" fill-rule="nonzero"/></g><g fill="#ffffff" fill-opacity="1"><g transform="translate(29.795954, 20.363426)"><g><path d="M 8.875 -5.1875 L 9.46875 -4.890625 C 8.695312 -3.523438 7.894531 -2.375 7.0625 -1.4375 C 6.238281 -0.507812 5.457031 0.160156 4.71875 0.578125 C 3.988281 1.003906 3.304688 1.164062 2.671875 1.0625 C 2.035156 0.96875 1.5 0.617188 1.0625 0.015625 C 0.632812 -0.578125 0.332031 -1.488281 0.15625 -2.71875 C -0.0195312 -3.945312 -0.0351562 -5.425781 0.109375 -7.15625 C 0.253906 -8.851562 0.523438 -10.320312 0.921875 -11.5625 C 1.316406 -12.8125 1.757812 -13.738281 2.25 -14.34375 C 2.738281 -14.945312 3.253906 -15.394531 3.796875 -15.6875 C 4.335938 -15.976562 4.820312 -16.117188 5.25 -16.109375 C 5.675781 -16.097656 6.03125 -16 6.3125 -15.8125 C 7.5625 -15.039062 7.828125 -12.984375 7.109375 -9.640625 L 6.484375 -10.109375 C 6.503906 -10.179688 6.519531 -10.285156 6.53125 -10.421875 C 6.550781 -10.554688 6.570312 -10.789062 6.59375 -11.125 C 6.613281 -11.457031 6.609375 -11.753906 6.578125 -12.015625 C 6.546875 -12.273438 6.46875 -12.515625 6.34375 -12.734375 C 6.226562 -12.953125 6.0625 -13.070312 5.84375 -13.09375 C 5.726562 -13.101562 5.628906 -13.097656 5.546875 -13.078125 C 5.460938 -13.066406 5.316406 -12.96875 5.109375 -12.78125 C 4.898438 -12.601562 4.71875 -12.332031 4.5625 -11.96875 C 4.40625 -11.613281 4.238281 -11.039062 4.0625 -10.25 C 3.894531 -9.46875 3.769531 -8.53125 3.6875 -7.4375 C 3.53125 -5.6875 3.523438 -4.359375 3.671875 -3.453125 C 3.828125 -2.546875 4.0625 -1.9375 4.375 -1.625 C 4.695312 -1.3125 5.101562 -1.289062 5.59375 -1.5625 C 6.09375 -1.832031 6.613281 -2.269531 7.15625 -2.875 C 7.695312 -3.488281 8.269531 -4.257812 8.875 -5.1875 Z M 8.875 -5.1875 "/></g></g></g><g fill="#ffffff" fill-opacity="1"><g transform="translate(47.081275, 20.363426)"><g><path d="M 8.46875 -12.890625 C 8.175781 -5.097656 8.351562 -1.015625 9 -0.640625 C 8.882812 -0.265625 8.566406 0.0664062 8.046875 0.359375 C 7.523438 0.660156 7.054688 0.832031 6.640625 0.875 C 5.796875 0.9375 5.238281 0.347656 4.96875 -0.890625 C 4.695312 -2.140625 4.617188 -3.835938 4.734375 -5.984375 C 4.453125 -6.003906 4.242188 -6.015625 4.109375 -6.015625 L 3.390625 -6.078125 C 3.066406 -6.109375 2.828125 -6.125 2.671875 -6.125 C 2.628906 -6.125 2.566406 -6.128906 2.484375 -6.140625 C 2.410156 -6.160156 2.359375 -6.171875 2.328125 -6.171875 C 2.304688 -6.171875 2.257812 -6.171875 2.1875 -6.171875 C 2.113281 -6.179688 2.054688 -6.1875 2.015625 -6.1875 C 1.867188 -6.207031 1.664062 -6.226562 1.40625 -6.25 C 1.394531 -6.25 1.375 -6.253906 1.34375 -6.265625 C 1.320312 -6.273438 1.300781 -6.28125 1.28125 -6.28125 C 1.1875 -5.550781 1.066406 -4.554688 0.921875 -3.296875 C 0.773438 -2.035156 0.648438 -1.082031 0.546875 -0.4375 C 0.453125 0.195312 0.351562 0.617188 0.25 0.828125 C 0.132812 1.210938 -0.1875 1.554688 -0.71875 1.859375 C -1.25 2.171875 -1.722656 2.335938 -2.140625 2.359375 C -1.816406 0.273438 -1.46875 -1.628906 -1.09375 -3.359375 C -0.71875 -5.085938 -0.351562 -6.5625 0 -7.78125 C 0.34375 -9.007812 0.710938 -10.097656 1.109375 -11.046875 C 1.515625 -11.992188 1.875 -12.757812 2.1875 -13.34375 C 2.5 -13.925781 2.847656 -14.414062 3.234375 -14.8125 C 3.628906 -15.21875 3.953125 -15.507812 4.203125 -15.6875 C 4.453125 -15.863281 4.75 -15.984375 5.09375 -16.046875 C 5.4375 -16.117188 5.679688 -16.148438 5.828125 -16.140625 C 5.972656 -16.128906 6.164062 -16.113281 6.40625 -16.09375 C 6.476562 -16.09375 6.570312 -16.078125 6.6875 -16.046875 L 6.71875 -16.046875 C 7.851562 -15.773438 8.4375 -14.851562 8.46875 -13.28125 Z M 4.203125 -6.984375 C 4.453125 -6.953125 4.644531 -6.9375 4.78125 -6.9375 C 4.789062 -7.15625 4.8125 -7.488281 4.84375 -7.9375 C 4.882812 -8.382812 4.910156 -8.722656 4.921875 -8.953125 C 4.941406 -9.054688 4.96875 -9.316406 5 -9.734375 C 5.039062 -10.160156 5.066406 -10.5 5.078125 -10.75 C 5.085938 -11 5.101562 -11.332031 5.125 -11.75 C 5.144531 -12.164062 5.148438 -12.503906 5.140625 -12.765625 C 5.128906 -13.035156 5.097656 -13.304688 5.046875 -13.578125 C 5.003906 -13.847656 4.929688 -14.046875 4.828125 -14.171875 C 4.734375 -14.304688 4.617188 -14.375 4.484375 -14.375 C 3.148438 -14.3125 2.132812 -11.957031 1.4375 -7.3125 C 1.476562 -7.3125 1.515625 -7.300781 1.546875 -7.28125 L 2.125 -7.21875 C 2.144531 -7.207031 2.191406 -7.203125 2.265625 -7.203125 C 2.335938 -7.203125 2.394531 -7.191406 2.4375 -7.171875 C 2.476562 -7.160156 2.535156 -7.148438 2.609375 -7.140625 C 2.679688 -7.140625 2.738281 -7.140625 2.78125 -7.140625 C 2.925781 -7.117188 3.15625 -7.09375 3.46875 -7.0625 C 3.644531 -7.039062 3.890625 -7.015625 4.203125 -6.984375 Z M 4.203125 -6.984375 "/></g></g></g><g fill="#ffffff" fill-opacity="1"><g transform="translate(65.437451, 20.363426)"><g><path d="M 14.765625 -11.703125 C 14.472656 -4.953125 14.648438 -1.414062 15.296875 -1.09375 C 15.179688 -0.78125 14.863281 -0.492188 14.34375 -0.234375 C 13.820312 0.0234375 13.351562 0.164062 12.9375 0.1875 C 12.5 0.21875 12.128906 0.0859375 11.828125 -0.203125 C 11.535156 -0.492188 11.332031 -0.925781 11.21875 -1.5 C 11.101562 -2.070312 11.023438 -2.6875 10.984375 -3.34375 C 10.941406 -4.007812 10.953125 -4.78125 11.015625 -5.65625 C 11.085938 -6.539062 11.15625 -7.34375 11.21875 -8.0625 C 11.28125 -8.78125 11.359375 -9.578125 11.453125 -10.453125 C 11.554688 -11.335938 11.625 -12.015625 11.65625 -12.484375 C 11.6875 -12.773438 11.617188 -12.960938 11.453125 -13.046875 C 11.296875 -13.128906 11.113281 -13.117188 10.90625 -13.015625 C 10.707031 -12.910156 10.539062 -12.765625 10.40625 -12.578125 C 10.351562 -12.492188 10.316406 -12.425781 10.296875 -12.375 C 10.117188 -12.082031 9.972656 -11.789062 9.859375 -11.5 C 9.597656 -10.914062 9.375 -10.1875 9.1875 -9.3125 C 9.070312 -8.769531 8.992188 -8.359375 8.953125 -8.078125 C 8.867188 -7.648438 8.804688 -7.210938 8.765625 -6.765625 L 8.5625 -5.390625 C 8.5625 -5.328125 8.550781 -5.207031 8.53125 -5.03125 C 8.53125 -5.019531 8.519531 -4.992188 8.5 -4.953125 C 8.488281 -4.910156 8.484375 -4.875 8.484375 -4.84375 C 8.484375 -4.820312 8.46875 -4.785156 8.4375 -4.734375 C 8.4375 -4.691406 8.425781 -4.660156 8.40625 -4.640625 C 8.394531 -4.628906 8.390625 -4.617188 8.390625 -4.609375 L 8.375 -4.578125 L 8.359375 -4.5625 L 8.359375 -4.546875 L 8.3125 -4.5 C 8.28125 -4.46875 8.25 -4.445312 8.21875 -4.4375 C 8.195312 -4.40625 8.15625 -4.390625 8.09375 -4.390625 L 7.96875 -4.390625 C 7.9375 -4.398438 7.898438 -4.414062 7.859375 -4.4375 C 7.847656 -4.445312 7.84375 -4.453125 7.84375 -4.453125 C 7.8125 -4.453125 7.796875 -4.460938 7.796875 -4.484375 L 7.734375 -4.546875 C 7.722656 -4.546875 7.707031 -4.554688 7.6875 -4.578125 L 7.671875 -4.625 L 7.671875 -4.65625 C 7.648438 -4.664062 7.640625 -4.675781 7.640625 -4.6875 C 7.617188 -4.75 7.597656 -4.785156 7.578125 -4.796875 C 7.578125 -4.804688 7.570312 -4.820312 7.5625 -4.84375 C 7.5625 -4.875 7.5625 -4.894531 7.5625 -4.90625 C 7.5 -5.070312 7.460938 -5.191406 7.453125 -5.265625 C 7.441406 -5.367188 7.414062 -5.5 7.375 -5.65625 C 7.34375 -5.8125 7.316406 -5.925781 7.296875 -6 C 7.285156 -6.070312 7.269531 -6.1875 7.25 -6.34375 C 7.226562 -6.5 7.210938 -6.617188 7.203125 -6.703125 C 7.171875 -6.847656 7.128906 -7.082031 7.078125 -7.40625 C 7.023438 -7.726562 6.988281 -7.972656 6.96875 -8.140625 C 6.9375 -8.285156 6.894531 -8.515625 6.84375 -8.828125 C 6.789062 -9.148438 6.75 -9.390625 6.71875 -9.546875 C 6.707031 -9.640625 6.679688 -9.765625 6.640625 -9.921875 C 6.609375 -10.078125 6.585938 -10.191406 6.578125 -10.265625 C 6.535156 -10.453125 6.476562 -10.671875 6.40625 -10.921875 C 6.375 -10.835938 6.359375 -10.789062 6.359375 -10.78125 C 6.347656 -10.738281 6.332031 -10.679688 6.3125 -10.609375 C 6.289062 -10.535156 6.269531 -10.484375 6.25 -10.453125 L 6.1875 -10.125 C 6.15625 -10.0625 6.128906 -9.957031 6.109375 -9.8125 C 5.960938 -9.050781 5.828125 -8.203125 5.703125 -7.265625 C 5.671875 -7.066406 5.632812 -6.804688 5.59375 -6.484375 C 5.550781 -6.160156 5.515625 -5.875 5.484375 -5.625 C 5.453125 -5.375 5.421875 -5.140625 5.390625 -4.921875 C 5.234375 -3.671875 5.15625 -3.023438 5.15625 -2.984375 L 4.921875 -1.453125 C 4.921875 -1.421875 4.914062 -1.375 4.90625 -1.3125 C 4.90625 -1.25 4.898438 -1.203125 4.890625 -1.171875 C 4.859375 -1.035156 4.84375 -0.945312 4.84375 -0.90625 C 4.820312 -0.875 4.789062 -0.738281 4.75 -0.5 C 4.75 -0.425781 4.742188 -0.375 4.734375 -0.34375 L 4.734375 -0.328125 C 4.628906 0.148438 4.398438 0.53125 4.046875 0.8125 C 3.691406 1.101562 3.359375 1.285156 3.046875 1.359375 C 2.734375 1.441406 2.414062 1.484375 2.09375 1.484375 C 1.582031 1.492188 1.171875 1.21875 0.859375 0.65625 C 0.546875 0.09375 0.34375 -0.644531 0.25 -1.5625 C 0.164062 -2.476562 0.125 -3.515625 0.125 -4.671875 C 0.125 -5.828125 0.175781 -6.992188 0.28125 -8.171875 C 0.394531 -9.347656 0.488281 -10.472656 0.5625 -11.546875 C 0.644531 -12.628906 0.710938 -13.550781 0.765625 -14.3125 C 0.828125 -15.082031 0.804688 -15.640625 0.703125 -15.984375 C 0.765625 -15.992188 0.84375 -16.003906 0.9375 -16.015625 C 1.039062 -16.035156 1.226562 -16.050781 1.5 -16.0625 C 1.78125 -16.082031 2.046875 -16.070312 2.296875 -16.03125 C 2.546875 -16 2.820312 -15.914062 3.125 -15.78125 C 3.425781 -15.65625 3.679688 -15.484375 3.890625 -15.265625 C 4.097656 -15.054688 4.257812 -14.75 4.375 -14.34375 C 4.5 -13.945312 4.539062 -13.476562 4.5 -12.9375 C 4.320312 -10.976562 4.210938 -8.769531 4.171875 -6.3125 C 4.210938 -6.457031 4.265625 -6.660156 4.328125 -6.921875 C 4.398438 -7.191406 4.453125 -7.382812 4.484375 -7.5 C 4.617188 -8.039062 4.726562 -8.453125 4.8125 -8.734375 C 4.84375 -8.878906 4.898438 -9.09375 4.984375 -9.375 L 5.1875 -10.046875 C 5.1875 -10.078125 5.195312 -10.128906 5.21875 -10.203125 C 5.238281 -10.285156 5.253906 -10.347656 5.265625 -10.390625 C 5.328125 -10.535156 5.363281 -10.644531 5.375 -10.71875 C 5.40625 -10.800781 5.445312 -10.910156 5.5 -11.046875 C 5.539062 -11.179688 5.59375 -11.304688 5.65625 -11.421875 C 5.6875 -11.503906 5.710938 -11.566406 5.734375 -11.609375 C 5.753906 -11.648438 5.789062 -11.710938 5.84375 -11.796875 L 5.953125 -11.90625 C 6.015625 -11.96875 6.066406 -12.015625 6.109375 -12.046875 C 6.148438 -12.085938 6.195312 -12.109375 6.25 -12.109375 C 6.269531 -12.117188 6.304688 -12.125 6.359375 -12.125 L 6.453125 -12.125 C 6.523438 -12.125 6.585938 -12.109375 6.640625 -12.078125 C 6.691406 -12.054688 6.734375 -12.03125 6.765625 -12 C 6.828125 -11.957031 6.867188 -11.914062 6.890625 -11.875 C 6.921875 -11.84375 6.953125 -11.796875 6.984375 -11.734375 C 7.015625 -11.679688 7.039062 -11.613281 7.0625 -11.53125 C 7.132812 -11.382812 7.179688 -11.257812 7.203125 -11.15625 C 7.296875 -10.769531 7.351562 -10.53125 7.375 -10.4375 C 7.394531 -10.257812 7.4375 -10.015625 7.5 -9.703125 C 7.550781 -9.378906 7.625 -8.898438 7.71875 -8.265625 C 7.726562 -8.191406 7.742188 -8.070312 7.765625 -7.90625 C 7.785156 -7.75 7.800781 -7.625 7.8125 -7.53125 C 7.832031 -7.445312 7.851562 -7.328125 7.875 -7.171875 C 7.894531 -7.015625 7.910156 -6.898438 7.921875 -6.828125 L 7.984375 -6.3125 C 8.003906 -6.382812 8.023438 -6.476562 8.046875 -6.59375 C 8.066406 -6.707031 8.078125 -6.796875 8.078125 -6.859375 L 8.265625 -8.1875 C 8.296875 -8.425781 8.375 -8.851562 8.5 -9.46875 C 8.53125 -9.582031 8.578125 -9.773438 8.640625 -10.046875 C 8.703125 -10.316406 8.753906 -10.523438 8.796875 -10.671875 C 9.003906 -11.253906 9.132812 -11.617188 9.1875 -11.765625 C 9.289062 -12.046875 9.445312 -12.375 9.65625 -12.75 C 9.8125 -13.03125 10.015625 -13.304688 10.265625 -13.578125 C 10.503906 -13.828125 10.734375 -14.003906 10.953125 -14.109375 C 10.960938 -14.128906 10.96875 -14.140625 10.96875 -14.140625 C 11 -14.140625 11.015625 -14.144531 11.015625 -14.15625 C 11.242188 -14.269531 11.503906 -14.359375 11.796875 -14.421875 C 11.828125 -14.421875 11.851562 -14.425781 11.875 -14.4375 C 11.9375 -14.445312 12.03125 -14.457031 12.15625 -14.46875 C 12.289062 -14.488281 12.519531 -14.476562 12.84375 -14.4375 C 13.175781 -14.40625 13.46875 -14.320312 13.71875 -14.1875 C 13.96875 -14.050781 14.195312 -13.796875 14.40625 -13.421875 C 14.625 -13.054688 14.742188 -12.597656 14.765625 -12.046875 Z M 6.21875 -11.359375 L 6.234375 -11.359375 Z M 7.78125 -4.953125 Z M 7.78125 -4.953125 "/></g></g></g><g fill="#ffffff" fill-opacity="1"><g transform="translate(89.66192, 20.363426)"><g><path d="M 8.46875 -12.890625 C 8.175781 -5.097656 8.351562 -1.015625 9 -0.640625 C 8.882812 -0.265625 8.566406 0.0664062 8.046875 0.359375 C 7.523438 0.660156 7.054688 0.832031 6.640625 0.875 C 5.796875 0.9375 5.238281 0.347656 4.96875 -0.890625 C 4.695312 -2.140625 4.617188 -3.835938 4.734375 -5.984375 C 4.453125 -6.003906 4.242188 -6.015625 4.109375 -6.015625 L 3.390625 -6.078125 C 3.066406 -6.109375 2.828125 -6.125 2.671875 -6.125 C 2.628906 -6.125 2.566406 -6.128906 2.484375 -6.140625 C 2.410156 -6.160156 2.359375 -6.171875 2.328125 -6.171875 C 2.304688 -6.171875 2.257812 -6.171875 2.1875 -6.171875 C 2.113281 -6.179688 2.054688 -6.1875 2.015625 -6.1875 C 1.867188 -6.207031 1.664062 -6.226562 1.40625 -6.25 C 1.394531 -6.25 1.375 -6.253906 1.34375 -6.265625 C 1.320312 -6.273438 1.300781 -6.28125 1.28125 -6.28125 C 1.1875 -5.550781 1.066406 -4.554688 0.921875 -3.296875 C 0.773438 -2.035156 0.648438 -1.082031 0.546875 -0.4375 C 0.453125 0.195312 0.351562 0.617188 0.25 0.828125 C 0.132812 1.210938 -0.1875 1.554688 -0.71875 1.859375 C -1.25 2.171875 -1.722656 2.335938 -2.140625 2.359375 C -1.816406 0.273438 -1.46875 -1.628906 -1.09375 -3.359375 C -0.71875 -5.085938 -0.351562 -6.5625 0 -7.78125 C 0.34375 -9.007812 0.710938 -10.097656 1.109375 -11.046875 C 1.515625 -11.992188 1.875 -12.757812 2.1875 -13.34375 C 2.5 -13.925781 2.847656 -14.414062 3.234375 -14.8125 C 3.628906 -15.21875 3.953125 -15.507812 4.203125 -15.6875 C 4.453125 -15.863281 4.75 -15.984375 5.09375 -16.046875 C 5.4375 -16.117188 5.679688 -16.148438 5.828125 -16.140625 C 5.972656 -16.128906 6.164062 -16.113281 6.40625 -16.09375 C 6.476562 -16.09375 6.570312 -16.078125 6.6875 -16.046875 L 6.71875 -16.046875 C 7.851562 -15.773438 8.4375 -14.851562 8.46875 -13.28125 Z M 4.203125 -6.984375 C 4.453125 -6.953125 4.644531 -6.9375 4.78125 -6.9375 C 4.789062 -7.15625 4.8125 -7.488281 4.84375 -7.9375 C 4.882812 -8.382812 4.910156 -8.722656 4.921875 -8.953125 C 4.941406 -9.054688 4.96875 -9.316406 5 -9.734375 C 5.039062 -10.160156 5.066406 -10.5 5.078125 -10.75 C 5.085938 -11 5.101562 -11.332031 5.125 -11.75 C 5.144531 -12.164062 5.148438 -12.503906 5.140625 -12.765625 C 5.128906 -13.035156 5.097656 -13.304688 5.046875 -13.578125 C 5.003906 -13.847656 4.929688 -14.046875 4.828125 -14.171875 C 4.734375 -14.304688 4.617188 -14.375 4.484375 -14.375 C 3.148438 -14.3125 2.132812 -11.957031 1.4375 -7.3125 C 1.476562 -7.3125 1.515625 -7.300781 1.546875 -7.28125 L 2.125 -7.21875 C 2.144531 -7.207031 2.191406 -7.203125 2.265625 -7.203125 C 2.335938 -7.203125 2.394531 -7.191406 2.4375 -7.171875 C 2.476562 -7.160156 2.535156 -7.148438 2.609375 -7.140625 C 2.679688 -7.140625 2.738281 -7.140625 2.78125 -7.140625 C 2.925781 -7.117188 3.15625 -7.09375 3.46875 -7.0625 C 3.644531 -7.039062 3.890625 -7.015625 4.203125 -6.984375 Z M 4.203125 -6.984375 "/></g></g></g><g fill="#ffffff" fill-opacity="1"><g transform="translate(108.018098, 20.363426)"><g><path d="M 10.671875 -5.390625 L 11.140625 -5.15625 C 11.128906 -5.132812 11.113281 -5.09375 11.09375 -5.03125 L 10.921875 -4.6875 C 10.765625 -4.382812 10.535156 -3.992188 10.234375 -3.515625 C 10.140625 -3.328125 9.976562 -3.066406 9.75 -2.734375 C 9.570312 -2.484375 9.363281 -2.210938 9.125 -1.921875 C 8.851562 -1.609375 8.585938 -1.347656 8.328125 -1.140625 C 8.203125 -1.023438 8.03125 -0.910156 7.8125 -0.796875 C 7.675781 -0.734375 7.570312 -0.695312 7.5 -0.6875 C 7.382812 -0.644531 7.265625 -0.625 7.140625 -0.625 C 7.046875 -0.625 6.914062 -0.640625 6.75 -0.671875 C 6.71875 -0.679688 6.660156 -0.703125 6.578125 -0.734375 L 6.5625 -0.75 L 6.53125 -0.75 L 6.515625 -0.765625 L 6.484375 -0.765625 L 6.46875 -0.796875 L 6.453125 -0.796875 L 6.421875 -0.8125 C 6.398438 -0.820312 6.375 -0.835938 6.34375 -0.859375 C 6.3125 -0.890625 6.285156 -0.90625 6.265625 -0.90625 C 6.253906 -0.90625 6.234375 -0.914062 6.203125 -0.9375 C 6.179688 -0.96875 6.160156 -0.984375 6.140625 -0.984375 C 6.035156 -1.066406 5.957031 -1.128906 5.90625 -1.171875 C 5.707031 -1.347656 5.566406 -1.484375 5.484375 -1.578125 C 5.253906 -1.859375 5.132812 -2.003906 5.125 -2.015625 C 4.875 -2.328125 4.671875 -2.613281 4.515625 -2.875 C 4.460938 -2.957031 4.382812 -3.085938 4.28125 -3.265625 C 4.1875 -3.441406 4.109375 -3.570312 4.046875 -3.65625 L 3.90625 -3.96875 C 3.875 -1.375 4.03125 0.0234375 4.375 0.234375 C 4.257812 0.578125 3.929688 0.878906 3.390625 1.140625 C 2.859375 1.410156 2.382812 1.550781 1.96875 1.5625 C 1.457031 1.570312 1.039062 1.296875 0.71875 0.734375 C 0.40625 0.171875 0.207031 -0.5625 0.125 -1.46875 C 0.0390625 -2.382812 0 -3.421875 0 -4.578125 C 0 -5.734375 0.0507812 -6.898438 0.15625 -8.078125 C 0.269531 -9.265625 0.359375 -10.398438 0.421875 -11.484375 C 0.492188 -12.566406 0.554688 -13.488281 0.609375 -14.25 C 0.671875 -15.019531 0.65625 -15.578125 0.5625 -15.921875 C 0.613281 -15.929688 0.6875 -15.941406 0.78125 -15.953125 C 0.882812 -15.972656 1.078125 -15.988281 1.359375 -16 C 1.640625 -16.019531 1.90625 -16.007812 2.15625 -15.96875 C 2.40625 -15.9375 2.675781 -15.851562 2.96875 -15.71875 C 3.269531 -15.59375 3.523438 -15.421875 3.734375 -15.203125 C 3.941406 -14.992188 4.101562 -14.6875 4.21875 -14.28125 C 4.34375 -13.882812 4.382812 -13.414062 4.34375 -12.875 C 4.300781 -12.320312 4.257812 -11.664062 4.21875 -10.90625 C 5.132812 -12.882812 6.207031 -13.789062 7.4375 -13.625 C 8.289062 -13.519531 8.691406 -12.90625 8.640625 -11.78125 C 8.578125 -10.519531 8.03125 -9.164062 7 -7.71875 C 6.289062 -6.695312 5.472656 -5.875 4.546875 -5.25 C 4.671875 -4.90625 4.816406 -4.523438 4.984375 -4.109375 C 5.171875 -3.710938 5.296875 -3.457031 5.359375 -3.34375 C 5.492188 -3.050781 5.648438 -2.78125 5.828125 -2.53125 C 5.972656 -2.300781 6.171875 -2.039062 6.421875 -1.75 C 6.441406 -1.738281 6.472656 -1.710938 6.515625 -1.671875 C 6.554688 -1.640625 6.585938 -1.609375 6.609375 -1.578125 C 6.640625 -1.554688 6.671875 -1.535156 6.703125 -1.515625 C 6.710938 -1.503906 6.742188 -1.484375 6.796875 -1.453125 L 6.8125 -1.4375 L 6.828125 -1.4375 L 6.828125 -1.40625 L 6.875 -1.40625 L 6.875 -1.390625 C 6.882812 -1.390625 6.894531 -1.382812 6.90625 -1.375 C 6.925781 -1.375 6.945312 -1.375 6.96875 -1.375 C 6.988281 -1.351562 7.046875 -1.34375 7.140625 -1.34375 C 7.265625 -1.34375 7.390625 -1.375 7.515625 -1.4375 C 7.554688 -1.445312 7.597656 -1.46875 7.640625 -1.5 C 7.691406 -1.53125 7.738281 -1.5625 7.78125 -1.59375 C 7.832031 -1.632812 7.878906 -1.660156 7.921875 -1.671875 C 8.148438 -1.859375 8.390625 -2.085938 8.640625 -2.359375 C 8.679688 -2.410156 8.882812 -2.660156 9.25 -3.109375 C 9.289062 -3.160156 9.367188 -3.269531 9.484375 -3.4375 C 9.597656 -3.613281 9.6875 -3.742188 9.75 -3.828125 C 9.863281 -4.015625 10 -4.25 10.15625 -4.53125 C 10.320312 -4.8125 10.414062 -4.957031 10.4375 -4.96875 C 10.457031 -5.007812 10.484375 -5.066406 10.515625 -5.140625 C 10.554688 -5.210938 10.585938 -5.265625 10.609375 -5.296875 Z M 6.6875 -12.75 C 6.375 -12.757812 6.050781 -12.492188 5.71875 -11.953125 C 5.394531 -11.410156 5.109375 -10.722656 4.859375 -9.890625 C 4.617188 -9.066406 4.425781 -8.363281 4.28125 -7.78125 C 4.132812 -7.207031 4.03125 -6.707031 3.96875 -6.28125 L 3.96875 -6.125 C 5.019531 -6.851562 5.890625 -8.019531 6.578125 -9.625 C 7.128906 -10.9375 7.300781 -11.867188 7.09375 -12.421875 C 7.007812 -12.617188 6.875 -12.726562 6.6875 -12.75 Z M 6.6875 -12.75 "/></g></g></g><g fill="#ffffff" fill-opacity="1"><g transform="translate(126.58845, 20.363426)"><g><path d="M 9.171875 -4.625 L 9.765625 -4.328125 C 8.984375 -2.953125 8.144531 -1.796875 7.25 -0.859375 C 6.351562 0.0664062 5.507812 0.710938 4.71875 1.078125 C 3.925781 1.441406 3.179688 1.550781 2.484375 1.40625 C 1.796875 1.269531 1.242188 0.863281 0.828125 0.1875 C 0.460938 -0.351562 0.222656 -1.300781 0.109375 -2.65625 C 0.00390625 -4.007812 -0.0195312 -5.253906 0.03125 -6.390625 C 0.0820312 -7.523438 0.1875 -9.054688 0.34375 -10.984375 C 0.5 -12.910156 0.59375 -14.113281 0.625 -14.59375 C 0.65625 -15.257812 0.929688 -15.765625 1.453125 -16.109375 C 1.972656 -16.453125 2.617188 -16.632812 3.390625 -16.65625 C 4.160156 -16.675781 4.925781 -16.644531 5.6875 -16.5625 C 6.445312 -16.488281 7.15625 -16.40625 7.8125 -16.3125 C 8.46875 -16.21875 8.867188 -16.191406 9.015625 -16.234375 C 9.035156 -16.179688 9.046875 -16.109375 9.046875 -16.015625 C 9.054688 -15.929688 9.0625 -15.765625 9.0625 -15.515625 C 9.070312 -15.265625 9.070312 -15.03125 9.0625 -14.8125 C 9.050781 -14.59375 9 -14.347656 8.90625 -14.078125 C 8.820312 -13.816406 8.707031 -13.597656 8.5625 -13.421875 C 8.425781 -13.242188 8.222656 -13.101562 7.953125 -13 C 7.691406 -12.90625 7.382812 -12.882812 7.03125 -12.9375 C 5.738281 -13.125 4.835938 -13.234375 4.328125 -13.265625 C 4.210938 -12.003906 4.113281 -10.550781 4.03125 -8.90625 C 4.144531 -8.863281 4.316406 -8.816406 4.546875 -8.765625 C 4.585938 -8.742188 4.632812 -8.726562 4.6875 -8.71875 C 4.75 -8.707031 4.800781 -8.703125 4.84375 -8.703125 C 4.875 -8.679688 4.914062 -8.671875 4.96875 -8.671875 C 4.976562 -8.660156 5 -8.65625 5.03125 -8.65625 C 5.0625 -8.65625 5.082031 -8.648438 5.09375 -8.640625 C 5.125 -8.640625 5.164062 -8.632812 5.21875 -8.625 C 5.28125 -8.613281 5.328125 -8.609375 5.359375 -8.609375 C 5.378906 -8.597656 5.414062 -8.59375 5.46875 -8.59375 C 5.519531 -8.59375 5.550781 -8.582031 5.5625 -8.5625 L 6.015625 -8.5625 L 6.109375 -7.71875 L 6.015625 -7.71875 C 5.992188 -7.695312 5.96875 -7.6875 5.9375 -7.6875 L 5.265625 -7.6875 C 5.242188 -7.707031 5.195312 -7.71875 5.125 -7.71875 C 5.050781 -7.71875 5 -7.722656 4.96875 -7.734375 L 4.8125 -7.734375 C 4.789062 -7.742188 4.742188 -7.75 4.671875 -7.75 L 4.34375 -7.8125 C 4.300781 -7.832031 4.238281 -7.847656 4.15625 -7.859375 C 4.082031 -7.878906 4.023438 -7.890625 3.984375 -7.890625 C 3.828125 -4.597656 3.851562 -2.375 4.0625 -1.21875 C 4.269531 -0.164062 4.929688 -0.0664062 6.046875 -0.921875 C 7.015625 -1.660156 8.054688 -2.894531 9.171875 -4.625 Z M 9.171875 -4.625 "/></g></g></g><g fill="#ffffff" fill-opacity="1"><g transform="translate(46.488538, 47.108707)"><g><path d="M 2.25 0.203125 C 1.675781 0.203125 1.25 -0.0507812 0.96875 -0.5625 C 0.6875 -1.082031 0.546875 -1.695312 0.546875 -2.40625 C 0.546875 -3.425781 0.789062 -4.5 1.28125 -5.625 C 1.769531 -6.75 2.398438 -7.6875 3.171875 -8.4375 C 3.953125 -9.1875 4.753906 -9.5625 5.578125 -9.5625 C 5.941406 -9.5625 6.226562 -9.488281 6.4375 -9.34375 C 6.644531 -9.207031 6.75 -9.023438 6.75 -8.796875 C 6.75 -8.578125 6.664062 -8.328125 6.5 -8.046875 C 6.40625 -7.890625 6.320312 -7.8125 6.25 -7.8125 C 6.1875 -7.8125 6.140625 -7.84375 6.109375 -7.90625 C 5.804688 -8.300781 5.4375 -8.5 5 -8.5 C 4.46875 -8.5 3.96875 -8.269531 3.5 -7.8125 C 3.039062 -7.363281 2.675781 -6.765625 2.40625 -6.015625 C 2.144531 -5.273438 2.015625 -4.46875 2.015625 -3.59375 C 2.015625 -2.09375 2.425781 -1.34375 3.25 -1.34375 C 3.675781 -1.34375 4.039062 -1.503906 4.34375 -1.828125 C 4.65625 -2.148438 4.945312 -2.546875 5.21875 -3.015625 C 5.25 -3.054688 5.28125 -3.109375 5.3125 -3.171875 C 5.351562 -3.234375 5.390625 -3.28125 5.421875 -3.3125 C 5.460938 -3.34375 5.507812 -3.359375 5.5625 -3.359375 C 5.601562 -3.359375 5.632812 -3.332031 5.65625 -3.28125 C 5.6875 -3.238281 5.703125 -3.179688 5.703125 -3.109375 C 5.703125 -2.722656 5.519531 -2.265625 5.15625 -1.734375 C 4.800781 -1.203125 4.347656 -0.742188 3.796875 -0.359375 C 3.253906 0.015625 2.738281 0.203125 2.25 0.203125 Z M 2.25 0.203125 "/></g></g></g><g fill="#ffffff" fill-opacity="1"><g transform="translate(61.947352, 47.108707)"><g><path d="M 1.5625 0.203125 C 0.882812 0.203125 0.546875 -0.445312 0.546875 -1.75 C 0.546875 -2.988281 0.816406 -4.210938 1.359375 -5.421875 C 1.898438 -6.640625 2.628906 -7.632812 3.546875 -8.40625 C 4.472656 -9.175781 5.472656 -9.5625 6.546875 -9.5625 C 7.097656 -9.5625 7.570312 -9.472656 7.96875 -9.296875 C 7.789062 -8.609375 7.671875 -8.109375 7.609375 -7.796875 L 7.1875 -5.625 C 6.8125 -3.90625 6.582031 -2.71875 6.5 -2.0625 C 6.488281 -1.96875 6.484375 -1.859375 6.484375 -1.734375 C 6.484375 -1.429688 6.570312 -1.28125 6.75 -1.28125 C 6.957031 -1.28125 7.15625 -1.414062 7.34375 -1.6875 C 7.53125 -1.96875 7.742188 -2.363281 7.984375 -2.875 C 8.003906 -2.882812 8.03125 -2.921875 8.0625 -2.984375 C 8.09375 -3.054688 8.132812 -3.09375 8.1875 -3.09375 C 8.269531 -3.09375 8.3125 -3.007812 8.3125 -2.84375 L 8.265625 -2.53125 C 8.171875 -2.09375 7.976562 -1.65625 7.6875 -1.21875 C 7.40625 -0.789062 7.085938 -0.445312 6.734375 -0.1875 C 6.378906 0.0703125 6.0625 0.203125 5.78125 0.203125 C 5.3125 0.203125 5.078125 -0.175781 5.078125 -0.9375 C 5.078125 -1.238281 5.113281 -1.539062 5.1875 -1.84375 L 5.515625 -3.59375 L 5.5 -3.59375 C 4.851562 -2.46875 4.164062 -1.550781 3.4375 -0.84375 C 2.707031 -0.144531 2.082031 0.203125 1.5625 0.203125 Z M 2.515625 -1.453125 C 2.890625 -1.453125 3.316406 -1.738281 3.796875 -2.3125 C 4.285156 -2.894531 4.738281 -3.609375 5.15625 -4.453125 C 5.582031 -5.296875 5.878906 -6.050781 6.046875 -6.71875 L 6.359375 -8.015625 C 5.960938 -8.273438 5.539062 -8.40625 5.09375 -8.40625 C 4.519531 -8.40625 3.992188 -8.070312 3.515625 -7.40625 C 3.046875 -6.75 2.675781 -5.945312 2.40625 -5 C 2.144531 -4.0625 2.015625 -3.210938 2.015625 -2.453125 C 2.015625 -2.117188 2.050781 -1.867188 2.125 -1.703125 C 2.195312 -1.535156 2.328125 -1.453125 2.515625 -1.453125 Z M 2.515625 -1.453125 "/></g></g></g><g fill="#ffffff" fill-opacity="1"><g transform="translate(79.433293, 47.108707)"><g><path d="M 0.640625 0.203125 C 0.546875 0.203125 0.5 0.160156 0.5 0.078125 C 0.5 0.0234375 0.546875 -0.125 0.640625 -0.375 C 0.734375 -0.632812 0.796875 -0.863281 0.828125 -1.0625 L 2.109375 -9.015625 C 2.617188 -12.359375 3.5625 -14.707031 4.9375 -16.0625 C 5.363281 -16.476562 5.78125 -16.769531 6.1875 -16.9375 C 6.601562 -17.101562 7.035156 -17.21875 7.484375 -17.28125 C 7.671875 -17.320312 7.84375 -17.367188 8 -17.421875 C 8.164062 -17.484375 8.269531 -17.515625 8.3125 -17.515625 C 8.414062 -17.515625 8.46875 -17.457031 8.46875 -17.34375 C 8.46875 -17.1875 8.34375 -16.992188 8.09375 -16.765625 C 7.945312 -16.640625 7.816406 -16.554688 7.703125 -16.515625 C 7.585938 -16.484375 7.472656 -16.457031 7.359375 -16.4375 C 7.253906 -16.425781 7.179688 -16.414062 7.140625 -16.40625 C 6.765625 -16.351562 6.441406 -16.242188 6.171875 -16.078125 C 5.910156 -15.921875 5.644531 -15.679688 5.375 -15.359375 C 4.8125 -14.660156 4.40625 -13.847656 4.15625 -12.921875 C 3.90625 -11.992188 3.6875 -10.851562 3.5 -9.5 L 3.390625 -8.796875 L 2.8125 -5.0625 L 2.828125 -5.0625 L 3.3125 -5.890625 C 4.113281 -7.285156 4.816406 -8.242188 5.421875 -8.765625 C 6.023438 -9.296875 6.609375 -9.5625 7.171875 -9.5625 C 7.515625 -9.5625 7.789062 -9.484375 8 -9.328125 C 8.207031 -9.171875 8.3125 -8.96875 8.3125 -8.71875 C 8.3125 -8.507812 8.257812 -8.304688 8.15625 -8.109375 C 8.0625 -7.910156 7.96875 -7.8125 7.875 -7.8125 C 7.84375 -7.8125 7.8125 -7.820312 7.78125 -7.84375 C 7.757812 -7.875 7.734375 -7.894531 7.703125 -7.90625 C 7.554688 -8.070312 7.414062 -8.191406 7.28125 -8.265625 C 7.15625 -8.335938 7.007812 -8.375 6.84375 -8.375 C 6.425781 -8.375 6.019531 -8.179688 5.625 -7.796875 C 5.238281 -7.421875 4.800781 -6.863281 4.3125 -6.125 L 3.65625 -5.125 C 4.1875 -4.019531 4.695312 -3.109375 5.1875 -2.390625 C 5.675781 -1.679688 6.054688 -1.328125 6.328125 -1.328125 C 6.554688 -1.328125 6.910156 -1.664062 7.390625 -2.34375 C 7.492188 -2.46875 7.566406 -2.53125 7.609375 -2.53125 C 7.703125 -2.53125 7.75 -2.457031 7.75 -2.3125 L 7.703125 -2.0625 C 7.671875 -1.84375 7.539062 -1.546875 7.3125 -1.171875 C 7.09375 -0.804688 6.84375 -0.484375 6.5625 -0.203125 C 6.289062 0.0664062 6.035156 0.203125 5.796875 0.203125 C 5.515625 0.203125 5.210938 -0.0234375 4.890625 -0.484375 C 4.578125 -0.941406 4.117188 -1.710938 3.515625 -2.796875 L 2.90625 -3.9375 C 2.851562 -3.832031 2.773438 -3.675781 2.671875 -3.46875 C 2.566406 -3.269531 2.515625 -3.140625 2.515625 -3.078125 L 2.203125 -1.265625 C 2.148438 -0.921875 1.945312 -0.585938 1.59375 -0.265625 C 1.25 0.046875 0.929688 0.203125 0.640625 0.203125 Z M 0.640625 0.203125 "/></g></g></g><g fill="#ffffff" fill-opacity="1"><g transform="translate(96.758666, 47.108707)"><g><path d="M 2.515625 0.203125 C 1.910156 0.203125 1.429688 -0.0234375 1.078125 -0.484375 C 0.722656 -0.953125 0.546875 -1.59375 0.546875 -2.40625 C 0.546875 -3.394531 0.78125 -4.453125 1.25 -5.578125 C 1.726562 -6.710938 2.34375 -7.660156 3.09375 -8.421875 C 3.84375 -9.179688 4.597656 -9.5625 5.359375 -9.5625 C 6.054688 -9.5625 6.40625 -9.140625 6.40625 -8.296875 C 6.40625 -7.609375 6.203125 -6.9375 5.796875 -6.28125 C 5.398438 -5.625 4.863281 -5.046875 4.1875 -4.546875 C 3.507812 -4.046875 2.769531 -3.660156 1.96875 -3.390625 C 1.96875 -2.671875 2.082031 -2.148438 2.3125 -1.828125 C 2.550781 -1.503906 2.898438 -1.34375 3.359375 -1.34375 C 3.835938 -1.34375 4.273438 -1.492188 4.671875 -1.796875 C 5.078125 -2.109375 5.421875 -2.535156 5.703125 -3.078125 C 5.742188 -3.148438 5.785156 -3.210938 5.828125 -3.265625 C 5.867188 -3.328125 5.921875 -3.359375 5.984375 -3.359375 C 6.085938 -3.359375 6.140625 -3.273438 6.140625 -3.109375 C 6.140625 -2.742188 5.957031 -2.296875 5.59375 -1.765625 C 5.238281 -1.234375 4.78125 -0.769531 4.21875 -0.375 C 3.65625 0.0078125 3.085938 0.203125 2.515625 0.203125 Z M 2.609375 -4.453125 C 2.953125 -4.453125 3.320312 -4.578125 3.71875 -4.828125 C 4.113281 -5.078125 4.445312 -5.414062 4.71875 -5.84375 C 4.988281 -6.269531 5.125 -6.75 5.125 -7.28125 C 5.125 -7.914062 4.898438 -8.234375 4.453125 -8.234375 C 4.097656 -8.234375 3.753906 -8.035156 3.421875 -7.640625 C 3.097656 -7.253906 2.820312 -6.773438 2.59375 -6.203125 C 2.375 -5.628906 2.222656 -5.070312 2.140625 -4.53125 C 2.222656 -4.476562 2.378906 -4.453125 2.609375 -4.453125 Z M 2.609375 -4.453125 "/></g></g></g><g fill="#ffffff" fill-opacity="1"><g transform="translate(112.076982, 47.108707)"><g><path d="M 1.78125 0.203125 C 1.375 0.203125 1.019531 0.0859375 0.71875 -0.140625 C 0.425781 -0.367188 0.234375 -0.671875 0.140625 -1.046875 C 0.109375 -1.148438 0.148438 -1.316406 0.265625 -1.546875 C 0.378906 -1.785156 0.53125 -2.019531 0.71875 -2.25 C 0.832031 -2.363281 0.921875 -2.421875 0.984375 -2.421875 C 1.046875 -2.421875 1.097656 -2.367188 1.140625 -2.265625 C 1.546875 -1.328125 2.101562 -0.859375 2.8125 -0.859375 C 3.175781 -0.859375 3.457031 -0.96875 3.65625 -1.1875 C 3.863281 -1.414062 3.96875 -1.71875 3.96875 -2.09375 C 3.96875 -2.59375 3.679688 -3.25 3.109375 -4.0625 L 2.6875 -4.65625 C 2.363281 -5.113281 2.140625 -5.488281 2.015625 -5.78125 C 1.890625 -6.070312 1.828125 -6.382812 1.828125 -6.71875 C 1.828125 -7.257812 1.96875 -7.742188 2.25 -8.171875 C 2.539062 -8.597656 2.921875 -8.9375 3.390625 -9.1875 C 3.859375 -9.4375 4.347656 -9.5625 4.859375 -9.5625 C 5.816406 -9.5625 6.296875 -9.234375 6.296875 -8.578125 C 6.296875 -8.335938 6.210938 -8.09375 6.046875 -7.84375 C 5.953125 -7.6875 5.867188 -7.609375 5.796875 -7.609375 C 5.722656 -7.609375 5.648438 -7.6875 5.578125 -7.84375 C 5.429688 -8.101562 5.253906 -8.289062 5.046875 -8.40625 C 4.835938 -8.519531 4.570312 -8.578125 4.25 -8.578125 C 3.875 -8.578125 3.570312 -8.472656 3.34375 -8.265625 C 3.125 -8.066406 3.015625 -7.816406 3.015625 -7.515625 C 3.015625 -7.335938 3.070312 -7.132812 3.1875 -6.90625 C 3.300781 -6.6875 3.515625 -6.351562 3.828125 -5.90625 L 4.25 -5.328125 C 4.625 -4.828125 4.882812 -4.398438 5.03125 -4.046875 C 5.1875 -3.691406 5.265625 -3.320312 5.265625 -2.9375 C 5.265625 -2.4375 5.101562 -1.941406 4.78125 -1.453125 C 4.457031 -0.960938 4.023438 -0.5625 3.484375 -0.25 C 2.953125 0.0507812 2.382812 0.203125 1.78125 0.203125 Z M 1.78125 0.203125 "/></g></g></g></svg>