<svg xmlns="http://www.w3.org/2000/svg" xmlns:xlink="http://www.w3.org/1999/xlink" width="220" zoomAndPan="magnify" viewBox="0 0 165 52.499999" height="70" preserveAspectRatio="xMidYMid meet" version="1.0"><defs><g/></defs><g fill="#ffffff" fill-opacity="1"><g transform="translate(26.708174, 19.620502)"><g><path d="M 7.953125 -7.234375 C 7.734375 -7.234375 7.550781 -7.265625 7.40625 -7.328125 C 7.257812 -7.398438 7.140625 -7.488281 7.046875 -7.59375 C 6.953125 -7.707031 6.882812 -7.832031 6.84375 -7.96875 C 6.800781 -8.101562 6.78125 -8.25 6.78125 -8.40625 C 6.78125 -8.59375 6.789062 -8.769531 6.8125 -8.9375 C 6.84375 -9.113281 6.847656 -9.269531 6.828125 -9.40625 C 6.816406 -9.550781 6.765625 -9.664062 6.671875 -9.75 C 6.578125 -9.832031 6.414062 -9.875 6.1875 -9.875 C 5.945312 -9.875 5.691406 -9.800781 5.421875 -9.65625 C 5.148438 -9.519531 4.898438 -9.300781 4.671875 -9 C 4.453125 -8.707031 4.269531 -8.320312 4.125 -7.84375 C 3.976562 -7.375 3.90625 -6.8125 3.90625 -6.15625 C 3.90625 -5.414062 3.972656 -4.742188 4.109375 -4.140625 C 4.242188 -3.546875 4.445312 -3.035156 4.71875 -2.609375 C 4.988281 -2.179688 5.328125 -1.847656 5.734375 -1.609375 C 6.140625 -1.378906 6.613281 -1.265625 7.15625 -1.265625 C 7.394531 -1.265625 7.625 -1.289062 7.84375 -1.34375 C 8.0625 -1.40625 8.269531 -1.484375 8.46875 -1.578125 C 8.664062 -1.671875 8.851562 -1.78125 9.03125 -1.90625 C 9.207031 -2.039062 9.378906 -2.179688 9.546875 -2.328125 L 9.8125 -2.078125 C 9.65625 -1.859375 9.445312 -1.617188 9.1875 -1.359375 C 8.9375 -1.109375 8.632812 -0.867188 8.28125 -0.640625 C 7.925781 -0.410156 7.507812 -0.222656 7.03125 -0.078125 C 6.5625 0.0664062 6.023438 0.140625 5.421875 0.140625 C 4.816406 0.140625 4.222656 0.0234375 3.640625 -0.203125 C 3.066406 -0.429688 2.554688 -0.769531 2.109375 -1.21875 C 1.660156 -1.664062 1.300781 -2.207031 1.03125 -2.84375 C 0.769531 -3.488281 0.640625 -4.21875 0.640625 -5.03125 C 0.640625 -5.664062 0.71875 -6.25 0.875 -6.78125 C 1.039062 -7.3125 1.257812 -7.789062 1.53125 -8.21875 C 1.8125 -8.65625 2.132812 -9.035156 2.5 -9.359375 C 2.863281 -9.691406 3.242188 -9.96875 3.640625 -10.1875 C 4.046875 -10.40625 4.457031 -10.570312 4.875 -10.6875 C 5.300781 -10.800781 5.710938 -10.859375 6.109375 -10.859375 C 6.617188 -10.859375 7.066406 -10.796875 7.453125 -10.671875 C 7.835938 -10.554688 8.15625 -10.398438 8.40625 -10.203125 C 8.664062 -10.015625 8.859375 -9.789062 8.984375 -9.53125 C 9.109375 -9.28125 9.171875 -9.019531 9.171875 -8.75 C 9.171875 -8.539062 9.144531 -8.34375 9.09375 -8.15625 C 9.039062 -7.976562 8.960938 -7.820312 8.859375 -7.6875 C 8.765625 -7.550781 8.640625 -7.441406 8.484375 -7.359375 C 8.328125 -7.273438 8.148438 -7.234375 7.953125 -7.234375 Z M 7.953125 -7.234375 "/></g></g></g><g fill="#ffffff" fill-opacity="1"><g transform="translate(45.554593, 19.620502)"><g><path d="M 6.015625 -5.421875 C 6.015625 -5.597656 5.957031 -5.726562 5.84375 -5.8125 C 5.738281 -5.90625 5.597656 -5.953125 5.421875 -5.953125 C 5.171875 -5.953125 4.9375 -5.894531 4.71875 -5.78125 C 4.5 -5.664062 4.304688 -5.5 4.140625 -5.28125 C 3.972656 -5.070312 3.835938 -4.804688 3.734375 -4.484375 C 3.640625 -4.171875 3.59375 -3.804688 3.59375 -3.390625 C 3.59375 -2.984375 3.625 -2.644531 3.6875 -2.375 C 3.75 -2.113281 3.828125 -1.90625 3.921875 -1.75 C 4.023438 -1.59375 4.144531 -1.484375 4.28125 -1.421875 C 4.414062 -1.359375 4.554688 -1.328125 4.703125 -1.328125 C 4.878906 -1.328125 5.046875 -1.375 5.203125 -1.46875 C 5.367188 -1.5625 5.507812 -1.679688 5.625 -1.828125 C 5.75 -1.972656 5.84375 -2.132812 5.90625 -2.3125 C 5.976562 -2.5 6.015625 -2.679688 6.015625 -2.859375 Z M 4.34375 -10 C 4.113281 -10 3.894531 -9.96875 3.6875 -9.90625 C 3.488281 -9.851562 3.316406 -9.785156 3.171875 -9.703125 C 3.023438 -9.617188 2.910156 -9.523438 2.828125 -9.421875 C 2.742188 -9.328125 2.703125 -9.234375 2.703125 -9.140625 C 2.703125 -9.035156 2.753906 -8.957031 2.859375 -8.90625 C 2.960938 -8.863281 3.082031 -8.8125 3.21875 -8.75 C 3.351562 -8.695312 3.472656 -8.613281 3.578125 -8.5 C 3.691406 -8.394531 3.75 -8.234375 3.75 -8.015625 C 3.75 -7.867188 3.71875 -7.734375 3.65625 -7.609375 C 3.59375 -7.484375 3.507812 -7.375 3.40625 -7.28125 C 3.3125 -7.1875 3.195312 -7.113281 3.0625 -7.0625 C 2.925781 -7.007812 2.785156 -6.984375 2.640625 -6.984375 C 2.242188 -6.984375 1.925781 -7.113281 1.6875 -7.375 C 1.445312 -7.644531 1.328125 -8 1.328125 -8.4375 C 1.328125 -8.863281 1.4375 -9.226562 1.65625 -9.53125 C 1.882812 -9.832031 2.175781 -10.082031 2.53125 -10.28125 C 2.894531 -10.476562 3.300781 -10.625 3.75 -10.71875 C 4.207031 -10.8125 4.660156 -10.859375 5.109375 -10.859375 C 5.660156 -10.859375 6.179688 -10.796875 6.671875 -10.671875 C 7.171875 -10.554688 7.609375 -10.367188 7.984375 -10.109375 C 8.367188 -9.859375 8.671875 -9.53125 8.890625 -9.125 C 9.117188 -8.726562 9.234375 -8.25 9.234375 -7.6875 L 9.234375 -1.78125 C 9.234375 -1.71875 9.234375 -1.644531 9.234375 -1.5625 C 9.242188 -1.488281 9.265625 -1.421875 9.296875 -1.359375 C 9.328125 -1.296875 9.367188 -1.242188 9.421875 -1.203125 C 9.484375 -1.160156 9.566406 -1.140625 9.671875 -1.140625 C 9.796875 -1.140625 9.910156 -1.1875 10.015625 -1.28125 C 10.117188 -1.375 10.210938 -1.46875 10.296875 -1.5625 L 10.5625 -1.34375 C 10.457031 -1.195312 10.332031 -1.035156 10.1875 -0.859375 C 10.039062 -0.691406 9.863281 -0.53125 9.65625 -0.375 C 9.445312 -0.21875 9.203125 -0.0859375 8.921875 0.015625 C 8.640625 0.117188 8.320312 0.171875 7.96875 0.171875 C 7.53125 0.171875 7.140625 0.0390625 6.796875 -0.21875 C 6.453125 -0.476562 6.226562 -0.882812 6.125 -1.4375 C 5.90625 -1.132812 5.675781 -0.878906 5.4375 -0.671875 C 5.195312 -0.472656 4.945312 -0.3125 4.6875 -0.1875 C 4.4375 -0.0625 4.1875 0.0234375 3.9375 0.078125 C 3.6875 0.140625 3.429688 0.171875 3.171875 0.171875 C 2.835938 0.171875 2.507812 0.117188 2.1875 0.015625 C 1.875 -0.0859375 1.59375 -0.253906 1.34375 -0.484375 C 1.101562 -0.710938 0.90625 -1.007812 0.75 -1.375 C 0.601562 -1.738281 0.53125 -2.179688 0.53125 -2.703125 C 0.53125 -3.335938 0.65625 -3.851562 0.90625 -4.25 C 1.15625 -4.65625 1.484375 -4.992188 1.890625 -5.265625 C 2.304688 -5.546875 2.769531 -5.785156 3.28125 -5.984375 C 3.800781 -6.179688 4.335938 -6.382812 4.890625 -6.59375 C 5.285156 -6.757812 5.578125 -7 5.765625 -7.3125 C 5.953125 -7.632812 6.046875 -7.960938 6.046875 -8.296875 C 6.046875 -8.804688 5.894531 -9.21875 5.59375 -9.53125 C 5.289062 -9.84375 4.875 -10 4.34375 -10 Z M 4.34375 -10 "/></g></g></g><g fill="#ffffff" fill-opacity="1"><g transform="translate(65.153958, 19.620502)"><g><path d="M 10.234375 -0.921875 C 10.234375 -0.828125 10.21875 -0.71875 10.1875 -0.59375 C 10.164062 -0.46875 10.097656 -0.347656 9.984375 -0.234375 C 9.878906 -0.128906 9.71875 -0.0351562 9.5 0.046875 C 9.289062 0.128906 9 0.171875 8.625 0.171875 C 8.257812 0.171875 7.96875 0.125 7.75 0.03125 C 7.539062 -0.0507812 7.378906 -0.148438 7.265625 -0.265625 C 7.160156 -0.390625 7.09375 -0.515625 7.0625 -0.640625 C 7.039062 -0.765625 7.03125 -0.863281 7.03125 -0.9375 L 7.03125 -8.34375 C 7.03125 -8.4375 7.015625 -8.53125 6.984375 -8.625 C 6.960938 -8.726562 6.921875 -8.820312 6.859375 -8.90625 C 6.804688 -8.988281 6.738281 -9.054688 6.65625 -9.109375 C 6.570312 -9.160156 6.472656 -9.1875 6.359375 -9.1875 C 6.171875 -9.1875 5.984375 -9.132812 5.796875 -9.03125 C 5.617188 -8.925781 5.453125 -8.800781 5.296875 -8.65625 C 5.140625 -8.519531 5.003906 -8.378906 4.890625 -8.234375 C 4.773438 -8.097656 4.691406 -7.992188 4.640625 -7.921875 L 4.640625 -0.921875 C 4.640625 -0.828125 4.625 -0.71875 4.59375 -0.59375 C 4.570312 -0.46875 4.503906 -0.347656 4.390625 -0.234375 C 4.285156 -0.128906 4.125 -0.0351562 3.90625 0.046875 C 3.695312 0.128906 3.410156 0.171875 3.046875 0.171875 C 2.671875 0.171875 2.375 0.125 2.15625 0.03125 C 1.945312 -0.0507812 1.785156 -0.148438 1.671875 -0.265625 C 1.566406 -0.390625 1.5 -0.515625 1.46875 -0.640625 C 1.445312 -0.765625 1.4375 -0.863281 1.4375 -0.9375 L 1.4375 -9.015625 C 1.4375 -9.210938 1.390625 -9.382812 1.296875 -9.53125 C 1.203125 -9.6875 1.039062 -9.765625 0.8125 -9.765625 C 0.695312 -9.765625 0.597656 -9.742188 0.515625 -9.703125 C 0.429688 -9.660156 0.335938 -9.601562 0.234375 -9.53125 L 0.015625 -9.796875 C 0.179688 -9.921875 0.363281 -10.046875 0.5625 -10.171875 C 0.757812 -10.304688 0.972656 -10.421875 1.203125 -10.515625 C 1.429688 -10.617188 1.675781 -10.703125 1.9375 -10.765625 C 2.207031 -10.828125 2.488281 -10.859375 2.78125 -10.859375 C 3.238281 -10.859375 3.59375 -10.78125 3.84375 -10.625 C 4.09375 -10.476562 4.273438 -10.300781 4.390625 -10.09375 C 4.515625 -9.882812 4.585938 -9.664062 4.609375 -9.4375 C 4.628906 -9.207031 4.640625 -9.019531 4.640625 -8.875 C 4.972656 -9.238281 5.328125 -9.566406 5.703125 -9.859375 C 5.859375 -9.984375 6.023438 -10.101562 6.203125 -10.21875 C 6.390625 -10.34375 6.582031 -10.453125 6.78125 -10.546875 C 6.976562 -10.640625 7.179688 -10.710938 7.390625 -10.765625 C 7.597656 -10.828125 7.804688 -10.859375 8.015625 -10.859375 C 8.421875 -10.859375 8.765625 -10.785156 9.046875 -10.640625 C 9.335938 -10.492188 9.566406 -10.316406 9.734375 -10.109375 C 9.910156 -9.898438 10.035156 -9.679688 10.109375 -9.453125 C 10.191406 -9.234375 10.234375 -9.039062 10.234375 -8.875 C 10.578125 -9.238281 10.929688 -9.566406 11.296875 -9.859375 C 11.453125 -9.984375 11.617188 -10.101562 11.796875 -10.21875 C 11.984375 -10.34375 12.175781 -10.453125 12.375 -10.546875 C 12.570312 -10.640625 12.769531 -10.710938 12.96875 -10.765625 C 13.175781 -10.828125 13.382812 -10.859375 13.59375 -10.859375 C 14 -10.859375 14.34375 -10.78125 14.625 -10.625 C 14.914062 -10.476562 15.144531 -10.28125 15.3125 -10.03125 C 15.488281 -9.789062 15.617188 -9.515625 15.703125 -9.203125 C 15.785156 -8.898438 15.828125 -8.597656 15.828125 -8.296875 L 15.828125 -1.8125 C 15.828125 -1.75 15.828125 -1.679688 15.828125 -1.609375 C 15.835938 -1.535156 15.859375 -1.46875 15.890625 -1.40625 C 15.921875 -1.34375 15.960938 -1.289062 16.015625 -1.25 C 16.078125 -1.207031 16.15625 -1.1875 16.25 -1.1875 C 16.382812 -1.1875 16.503906 -1.234375 16.609375 -1.328125 C 16.710938 -1.421875 16.8125 -1.515625 16.90625 -1.609375 L 17.15625 -1.390625 C 17.050781 -1.242188 16.921875 -1.082031 16.765625 -0.90625 C 16.609375 -0.726562 16.421875 -0.554688 16.203125 -0.390625 C 15.984375 -0.234375 15.726562 -0.101562 15.4375 0 C 15.144531 0.113281 14.816406 0.171875 14.453125 0.171875 C 14.148438 0.171875 13.882812 0.128906 13.65625 0.046875 C 13.425781 -0.0351562 13.234375 -0.144531 13.078125 -0.28125 C 12.921875 -0.414062 12.800781 -0.570312 12.71875 -0.75 C 12.644531 -0.9375 12.609375 -1.132812 12.609375 -1.34375 L 12.609375 -8.34375 C 12.609375 -8.4375 12.59375 -8.53125 12.5625 -8.625 C 12.539062 -8.726562 12.503906 -8.820312 12.453125 -8.90625 C 12.398438 -8.988281 12.332031 -9.054688 12.25 -9.109375 C 12.164062 -9.160156 12.066406 -9.1875 11.953125 -9.1875 C 11.765625 -9.1875 11.578125 -9.132812 11.390625 -9.03125 C 11.210938 -8.925781 11.039062 -8.800781 10.875 -8.65625 C 10.71875 -8.519531 10.582031 -8.378906 10.46875 -8.234375 C 10.363281 -8.097656 10.285156 -7.992188 10.234375 -7.921875 Z M 10.234375 -0.921875 "/></g></g></g><g fill="#ffffff" fill-opacity="1"><g transform="translate(91.352058, 19.620502)"><g><path d="M 6.015625 -5.421875 C 6.015625 -5.597656 5.957031 -5.726562 5.84375 -5.8125 C 5.738281 -5.90625 5.597656 -5.953125 5.421875 -5.953125 C 5.171875 -5.953125 4.9375 -5.894531 4.71875 -5.78125 C 4.5 -5.664062 4.304688 -5.5 4.140625 -5.28125 C 3.972656 -5.070312 3.835938 -4.804688 3.734375 -4.484375 C 3.640625 -4.171875 3.59375 -3.804688 3.59375 -3.390625 C 3.59375 -2.984375 3.625 -2.644531 3.6875 -2.375 C 3.75 -2.113281 3.828125 -1.90625 3.921875 -1.75 C 4.023438 -1.59375 4.144531 -1.484375 4.28125 -1.421875 C 4.414062 -1.359375 4.554688 -1.328125 4.703125 -1.328125 C 4.878906 -1.328125 5.046875 -1.375 5.203125 -1.46875 C 5.367188 -1.5625 5.507812 -1.679688 5.625 -1.828125 C 5.75 -1.972656 5.84375 -2.132812 5.90625 -2.3125 C 5.976562 -2.5 6.015625 -2.679688 6.015625 -2.859375 Z M 4.34375 -10 C 4.113281 -10 3.894531 -9.96875 3.6875 -9.90625 C 3.488281 -9.851562 3.316406 -9.785156 3.171875 -9.703125 C 3.023438 -9.617188 2.910156 -9.523438 2.828125 -9.421875 C 2.742188 -9.328125 2.703125 -9.234375 2.703125 -9.140625 C 2.703125 -9.035156 2.753906 -8.957031 2.859375 -8.90625 C 2.960938 -8.863281 3.082031 -8.8125 3.21875 -8.75 C 3.351562 -8.695312 3.472656 -8.613281 3.578125 -8.5 C 3.691406 -8.394531 3.75 -8.234375 3.75 -8.015625 C 3.75 -7.867188 3.71875 -7.734375 3.65625 -7.609375 C 3.59375 -7.484375 3.507812 -7.375 3.40625 -7.28125 C 3.3125 -7.1875 3.195312 -7.113281 3.0625 -7.0625 C 2.925781 -7.007812 2.785156 -6.984375 2.640625 -6.984375 C 2.242188 -6.984375 1.925781 -7.113281 1.6875 -7.375 C 1.445312 -7.644531 1.328125 -8 1.328125 -8.4375 C 1.328125 -8.863281 1.4375 -9.226562 1.65625 -9.53125 C 1.882812 -9.832031 2.175781 -10.082031 2.53125 -10.28125 C 2.894531 -10.476562 3.300781 -10.625 3.75 -10.71875 C 4.207031 -10.8125 4.660156 -10.859375 5.109375 -10.859375 C 5.660156 -10.859375 6.179688 -10.796875 6.671875 -10.671875 C 7.171875 -10.554688 7.609375 -10.367188 7.984375 -10.109375 C 8.367188 -9.859375 8.671875 -9.53125 8.890625 -9.125 C 9.117188 -8.726562 9.234375 -8.25 9.234375 -7.6875 L 9.234375 -1.78125 C 9.234375 -1.71875 9.234375 -1.644531 9.234375 -1.5625 C 9.242188 -1.488281 9.265625 -1.421875 9.296875 -1.359375 C 9.328125 -1.296875 9.367188 -1.242188 9.421875 -1.203125 C 9.484375 -1.160156 9.566406 -1.140625 9.671875 -1.140625 C 9.796875 -1.140625 9.910156 -1.1875 10.015625 -1.28125 C 10.117188 -1.375 10.210938 -1.46875 10.296875 -1.5625 L 10.5625 -1.34375 C 10.457031 -1.195312 10.332031 -1.035156 10.1875 -0.859375 C 10.039062 -0.691406 9.863281 -0.53125 9.65625 -0.375 C 9.445312 -0.21875 9.203125 -0.0859375 8.921875 0.015625 C 8.640625 0.117188 8.320312 0.171875 7.96875 0.171875 C 7.53125 0.171875 7.140625 0.0390625 6.796875 -0.21875 C 6.453125 -0.476562 6.226562 -0.882812 6.125 -1.4375 C 5.90625 -1.132812 5.675781 -0.878906 5.4375 -0.671875 C 5.195312 -0.472656 4.945312 -0.3125 4.6875 -0.1875 C 4.4375 -0.0625 4.1875 0.0234375 3.9375 0.078125 C 3.6875 0.140625 3.429688 0.171875 3.171875 0.171875 C 2.835938 0.171875 2.507812 0.117188 2.1875 0.015625 C 1.875 -0.0859375 1.59375 -0.253906 1.34375 -0.484375 C 1.101562 -0.710938 0.90625 -1.007812 0.75 -1.375 C 0.601562 -1.738281 0.53125 -2.179688 0.53125 -2.703125 C 0.53125 -3.335938 0.65625 -3.851562 0.90625 -4.25 C 1.15625 -4.65625 1.484375 -4.992188 1.890625 -5.265625 C 2.304688 -5.546875 2.769531 -5.785156 3.28125 -5.984375 C 3.800781 -6.179688 4.335938 -6.382812 4.890625 -6.59375 C 5.285156 -6.757812 5.578125 -7 5.765625 -7.3125 C 5.953125 -7.632812 6.046875 -7.960938 6.046875 -8.296875 C 6.046875 -8.804688 5.894531 -9.21875 5.59375 -9.53125 C 5.289062 -9.84375 4.875 -10 4.34375 -10 Z M 4.34375 -10 "/></g></g></g><g fill="#ffffff" fill-opacity="1"><g transform="translate(110.951424, 19.620502)"><g><path d="M 4.640625 -8.65625 C 4.910156 -9.050781 5.191406 -9.414062 5.484375 -9.75 C 5.617188 -9.882812 5.757812 -10.019531 5.90625 -10.15625 C 6.050781 -10.289062 6.203125 -10.410156 6.359375 -10.515625 C 6.515625 -10.617188 6.675781 -10.703125 6.84375 -10.765625 C 7.007812 -10.828125 7.175781 -10.859375 7.34375 -10.859375 C 7.695312 -10.859375 7.972656 -10.75 8.171875 -10.53125 C 8.378906 -10.320312 8.484375 -10.023438 8.484375 -9.640625 C 8.484375 -9.398438 8.460938 -9.171875 8.421875 -8.953125 C 8.390625 -8.734375 8.316406 -8.46875 8.203125 -8.15625 L 7.90625 -8.15625 C 7.863281 -8.375 7.765625 -8.550781 7.609375 -8.6875 C 7.460938 -8.832031 7.242188 -8.90625 6.953125 -8.90625 C 6.734375 -8.90625 6.519531 -8.863281 6.3125 -8.78125 C 6.101562 -8.707031 5.894531 -8.609375 5.6875 -8.484375 C 5.488281 -8.367188 5.300781 -8.238281 5.125 -8.09375 C 4.945312 -7.957031 4.785156 -7.828125 4.640625 -7.703125 L 4.640625 -0.921875 C 4.640625 -0.828125 4.625 -0.71875 4.59375 -0.59375 C 4.570312 -0.46875 4.503906 -0.347656 4.390625 -0.234375 C 4.285156 -0.128906 4.125 -0.0351562 3.90625 0.046875 C 3.695312 0.128906 3.410156 0.171875 3.046875 0.171875 C 2.671875 0.171875 2.375 0.125 2.15625 0.03125 C 1.945312 -0.0507812 1.785156 -0.148438 1.671875 -0.265625 C 1.566406 -0.390625 1.5 -0.515625 1.46875 -0.640625 C 1.445312 -0.765625 1.4375 -0.863281 1.4375 -0.9375 L 1.4375 -9.015625 C 1.4375 -9.210938 1.390625 -9.382812 1.296875 -9.53125 C 1.203125 -9.6875 1.039062 -9.765625 0.8125 -9.765625 C 0.695312 -9.765625 0.597656 -9.742188 0.515625 -9.703125 C 0.429688 -9.660156 0.335938 -9.601562 0.234375 -9.53125 L 0.015625 -9.796875 C 0.179688 -9.921875 0.363281 -10.046875 0.5625 -10.171875 C 0.757812 -10.304688 0.972656 -10.421875 1.203125 -10.515625 C 1.429688 -10.617188 1.675781 -10.703125 1.9375 -10.765625 C 2.207031 -10.828125 2.488281 -10.859375 2.78125 -10.859375 C 3.082031 -10.859375 3.335938 -10.816406 3.546875 -10.734375 C 3.765625 -10.648438 3.941406 -10.546875 4.078125 -10.421875 C 4.210938 -10.296875 4.316406 -10.148438 4.390625 -9.984375 C 4.472656 -9.828125 4.53125 -9.664062 4.5625 -9.5 C 4.601562 -9.332031 4.625 -9.175781 4.625 -9.03125 C 4.632812 -8.882812 4.640625 -8.757812 4.640625 -8.65625 Z M 4.640625 -8.65625 "/></g></g></g><g fill="#ffffff" fill-opacity="1"><g transform="translate(128.386077, 19.620502)"><g><path d="M 4 -4.796875 C 4 -4.578125 4.03125 -4.335938 4.09375 -4.078125 C 4.164062 -3.816406 4.265625 -3.550781 4.390625 -3.28125 C 4.515625 -3.019531 4.671875 -2.769531 4.859375 -2.53125 C 5.046875 -2.289062 5.257812 -2.070312 5.5 -1.875 C 5.738281 -1.6875 6.003906 -1.535156 6.296875 -1.421875 C 6.585938 -1.316406 6.910156 -1.265625 7.265625 -1.265625 C 7.503906 -1.265625 7.726562 -1.289062 7.9375 -1.34375 C 8.144531 -1.40625 8.335938 -1.484375 8.515625 -1.578125 C 8.703125 -1.671875 8.878906 -1.78125 9.046875 -1.90625 C 9.210938 -2.039062 9.378906 -2.179688 9.546875 -2.328125 L 9.8125 -2.078125 C 9.65625 -1.859375 9.445312 -1.617188 9.1875 -1.359375 C 8.9375 -1.109375 8.632812 -0.867188 8.28125 -0.640625 C 7.925781 -0.410156 7.507812 -0.222656 7.03125 -0.078125 C 6.5625 0.0664062 6.023438 0.140625 5.421875 0.140625 C 4.816406 0.140625 4.222656 0.03125 3.640625 -0.1875 C 3.066406 -0.40625 2.554688 -0.734375 2.109375 -1.171875 C 1.660156 -1.609375 1.300781 -2.15625 1.03125 -2.8125 C 0.769531 -3.46875 0.640625 -4.234375 0.640625 -5.109375 C 0.640625 -5.742188 0.71875 -6.328125 0.875 -6.859375 C 1.039062 -7.390625 1.257812 -7.867188 1.53125 -8.296875 C 1.8125 -8.722656 2.132812 -9.09375 2.5 -9.40625 C 2.863281 -9.726562 3.242188 -9.992188 3.640625 -10.203125 C 4.046875 -10.421875 4.457031 -10.582031 4.875 -10.6875 C 5.300781 -10.800781 5.710938 -10.859375 6.109375 -10.859375 C 6.617188 -10.859375 7.066406 -10.800781 7.453125 -10.6875 C 7.835938 -10.570312 8.15625 -10.421875 8.40625 -10.234375 C 8.664062 -10.046875 8.859375 -9.828125 8.984375 -9.578125 C 9.109375 -9.335938 9.171875 -9.082031 9.171875 -8.8125 C 9.171875 -8.476562 9.078125 -8.179688 8.890625 -7.921875 C 8.703125 -7.660156 8.453125 -7.429688 8.140625 -7.234375 Z M 6.109375 -6.921875 C 6.203125 -6.984375 6.273438 -7.039062 6.328125 -7.09375 C 6.390625 -7.144531 6.4375 -7.207031 6.46875 -7.28125 C 6.507812 -7.351562 6.535156 -7.441406 6.546875 -7.546875 C 6.566406 -7.648438 6.578125 -7.785156 6.578125 -7.953125 C 6.578125 -8.128906 6.554688 -8.320312 6.515625 -8.53125 C 6.484375 -8.738281 6.421875 -8.9375 6.328125 -9.125 C 6.234375 -9.3125 6.117188 -9.46875 5.984375 -9.59375 C 5.847656 -9.726562 5.679688 -9.796875 5.484375 -9.796875 C 5.234375 -9.796875 5.019531 -9.71875 4.84375 -9.5625 C 4.664062 -9.414062 4.515625 -9.222656 4.390625 -8.984375 C 4.273438 -8.742188 4.1875 -8.472656 4.125 -8.171875 C 4.0625 -7.867188 4.007812 -7.5625 3.96875 -7.25 C 3.9375 -6.945312 3.914062 -6.65625 3.90625 -6.375 C 3.90625 -6.09375 3.90625 -5.851562 3.90625 -5.65625 Z M 6.109375 -6.921875 "/></g></g></g><g fill="#ffffff" fill-opacity="1"><g transform="translate(42.611401, 47.851632)"><g><path d="M 7.453125 -6.78125 C 7.242188 -6.78125 7.070312 -6.8125 6.9375 -6.875 C 6.800781 -6.9375 6.691406 -7.019531 6.609375 -7.125 C 6.523438 -7.226562 6.460938 -7.34375 6.421875 -7.46875 C 6.378906 -7.601562 6.359375 -7.738281 6.359375 -7.875 C 6.359375 -8.050781 6.367188 -8.21875 6.390625 -8.375 C 6.421875 -8.539062 6.425781 -8.6875 6.40625 -8.8125 C 6.382812 -8.945312 6.332031 -9.050781 6.25 -9.125 C 6.164062 -9.207031 6.015625 -9.25 5.796875 -9.25 C 5.566406 -9.25 5.328125 -9.179688 5.078125 -9.046875 C 4.828125 -8.921875 4.59375 -8.71875 4.375 -8.4375 C 4.164062 -8.15625 3.992188 -7.796875 3.859375 -7.359375 C 3.722656 -6.921875 3.65625 -6.390625 3.65625 -5.765625 C 3.65625 -5.078125 3.71875 -4.453125 3.84375 -3.890625 C 3.976562 -3.328125 4.171875 -2.84375 4.421875 -2.4375 C 4.671875 -2.039062 4.984375 -1.734375 5.359375 -1.515625 C 5.742188 -1.296875 6.191406 -1.1875 6.703125 -1.1875 C 6.929688 -1.1875 7.148438 -1.210938 7.359375 -1.265625 C 7.566406 -1.316406 7.757812 -1.390625 7.9375 -1.484375 C 8.125 -1.578125 8.300781 -1.679688 8.46875 -1.796875 C 8.632812 -1.921875 8.796875 -2.050781 8.953125 -2.1875 L 9.203125 -1.953125 C 9.046875 -1.742188 8.847656 -1.519531 8.609375 -1.28125 C 8.378906 -1.039062 8.097656 -0.8125 7.765625 -0.59375 C 7.429688 -0.382812 7.039062 -0.207031 6.59375 -0.0625 C 6.15625 0.0703125 5.648438 0.140625 5.078125 0.140625 C 4.503906 0.140625 3.945312 0.03125 3.40625 -0.1875 C 2.875 -0.40625 2.398438 -0.722656 1.984375 -1.140625 C 1.566406 -1.566406 1.226562 -2.078125 0.96875 -2.671875 C 0.71875 -3.265625 0.59375 -3.945312 0.59375 -4.71875 C 0.59375 -5.3125 0.664062 -5.859375 0.8125 -6.359375 C 0.96875 -6.859375 1.175781 -7.3125 1.4375 -7.71875 C 1.695312 -8.125 2 -8.476562 2.34375 -8.78125 C 2.6875 -9.09375 3.046875 -9.347656 3.421875 -9.546875 C 3.796875 -9.753906 4.179688 -9.910156 4.578125 -10.015625 C 4.972656 -10.117188 5.351562 -10.171875 5.71875 -10.171875 C 6.207031 -10.171875 6.628906 -10.113281 6.984375 -10 C 7.347656 -9.894531 7.648438 -9.75 7.890625 -9.5625 C 8.128906 -9.382812 8.304688 -9.175781 8.421875 -8.9375 C 8.535156 -8.695312 8.59375 -8.453125 8.59375 -8.203125 C 8.59375 -8.003906 8.566406 -7.816406 8.515625 -7.640625 C 8.472656 -7.472656 8.40625 -7.328125 8.3125 -7.203125 C 8.21875 -7.078125 8.097656 -6.972656 7.953125 -6.890625 C 7.804688 -6.816406 7.640625 -6.78125 7.453125 -6.78125 Z M 7.453125 -6.78125 "/></g></g></g><g fill="#ffffff" fill-opacity="1"><g transform="translate(60.275761, 47.851632)"><g><path d="M 5.640625 -5.078125 C 5.640625 -5.242188 5.585938 -5.367188 5.484375 -5.453125 C 5.378906 -5.535156 5.242188 -5.578125 5.078125 -5.578125 C 4.847656 -5.578125 4.628906 -5.523438 4.421875 -5.421875 C 4.222656 -5.316406 4.039062 -5.160156 3.875 -4.953125 C 3.71875 -4.753906 3.59375 -4.503906 3.5 -4.203125 C 3.414062 -3.910156 3.375 -3.566406 3.375 -3.171875 C 3.375 -2.796875 3.398438 -2.484375 3.453125 -2.234375 C 3.515625 -1.984375 3.59375 -1.785156 3.6875 -1.640625 C 3.78125 -1.492188 3.890625 -1.390625 4.015625 -1.328125 C 4.140625 -1.273438 4.269531 -1.25 4.40625 -1.25 C 4.570312 -1.25 4.726562 -1.289062 4.875 -1.375 C 5.03125 -1.46875 5.160156 -1.582031 5.265625 -1.71875 C 5.378906 -1.851562 5.46875 -2.003906 5.53125 -2.171875 C 5.601562 -2.347656 5.640625 -2.519531 5.640625 -2.6875 Z M 4.078125 -9.375 C 3.859375 -9.375 3.648438 -9.347656 3.453125 -9.296875 C 3.265625 -9.242188 3.101562 -9.175781 2.96875 -9.09375 C 2.832031 -9.019531 2.722656 -8.9375 2.640625 -8.84375 C 2.566406 -8.75 2.53125 -8.65625 2.53125 -8.5625 C 2.53125 -8.46875 2.578125 -8.398438 2.671875 -8.359375 C 2.773438 -8.316406 2.890625 -8.265625 3.015625 -8.203125 C 3.140625 -8.148438 3.253906 -8.070312 3.359375 -7.96875 C 3.460938 -7.875 3.515625 -7.722656 3.515625 -7.515625 C 3.515625 -7.367188 3.484375 -7.238281 3.421875 -7.125 C 3.367188 -7.007812 3.296875 -6.910156 3.203125 -6.828125 C 3.109375 -6.742188 2.992188 -6.675781 2.859375 -6.625 C 2.734375 -6.570312 2.601562 -6.546875 2.46875 -6.546875 C 2.101562 -6.546875 1.804688 -6.671875 1.578125 -6.921875 C 1.359375 -7.171875 1.25 -7.5 1.25 -7.90625 C 1.25 -8.3125 1.351562 -8.65625 1.5625 -8.9375 C 1.769531 -9.21875 2.039062 -9.445312 2.375 -9.625 C 2.707031 -9.8125 3.085938 -9.945312 3.515625 -10.03125 C 3.941406 -10.125 4.367188 -10.171875 4.796875 -10.171875 C 5.304688 -10.171875 5.789062 -10.113281 6.25 -10 C 6.71875 -9.894531 7.128906 -9.722656 7.484375 -9.484375 C 7.835938 -9.242188 8.117188 -8.9375 8.328125 -8.5625 C 8.546875 -8.1875 8.65625 -7.734375 8.65625 -7.203125 L 8.65625 -1.671875 C 8.65625 -1.609375 8.65625 -1.539062 8.65625 -1.46875 C 8.664062 -1.394531 8.679688 -1.328125 8.703125 -1.265625 C 8.734375 -1.210938 8.773438 -1.164062 8.828125 -1.125 C 8.878906 -1.082031 8.957031 -1.0625 9.0625 -1.0625 C 9.175781 -1.0625 9.285156 -1.101562 9.390625 -1.1875 C 9.492188 -1.28125 9.582031 -1.375 9.65625 -1.46875 L 9.90625 -1.265625 C 9.800781 -1.128906 9.679688 -0.976562 9.546875 -0.8125 C 9.410156 -0.644531 9.242188 -0.488281 9.046875 -0.34375 C 8.847656 -0.207031 8.617188 -0.09375 8.359375 0 C 8.097656 0.101562 7.800781 0.15625 7.46875 0.15625 C 7.0625 0.15625 6.695312 0.0351562 6.375 -0.203125 C 6.050781 -0.453125 5.84375 -0.832031 5.75 -1.34375 C 5.539062 -1.0625 5.320312 -0.828125 5.09375 -0.640625 C 4.863281 -0.453125 4.628906 -0.296875 4.390625 -0.171875 C 4.160156 -0.0546875 3.925781 0.0234375 3.6875 0.078125 C 3.445312 0.128906 3.207031 0.15625 2.96875 0.15625 C 2.65625 0.15625 2.351562 0.101562 2.0625 0 C 1.769531 -0.09375 1.503906 -0.242188 1.265625 -0.453125 C 1.035156 -0.671875 0.847656 -0.945312 0.703125 -1.28125 C 0.566406 -1.625 0.5 -2.039062 0.5 -2.53125 C 0.5 -3.125 0.613281 -3.609375 0.84375 -3.984375 C 1.082031 -4.367188 1.394531 -4.6875 1.78125 -4.9375 C 2.164062 -5.195312 2.597656 -5.414062 3.078125 -5.59375 C 3.566406 -5.78125 4.066406 -5.976562 4.578125 -6.1875 C 4.953125 -6.332031 5.226562 -6.550781 5.40625 -6.84375 C 5.582031 -7.144531 5.671875 -7.457031 5.671875 -7.78125 C 5.671875 -8.257812 5.523438 -8.644531 5.234375 -8.9375 C 4.953125 -9.226562 4.566406 -9.375 4.078125 -9.375 Z M 4.078125 -9.375 "/></g></g></g><g fill="#ffffff" fill-opacity="1"><g transform="translate(78.645727, 47.851632)"><g><path d="M 4.25 -7.515625 C 4.476562 -7.816406 4.722656 -8.125 4.984375 -8.4375 C 5.242188 -8.757812 5.523438 -9.046875 5.828125 -9.296875 C 6.128906 -9.554688 6.457031 -9.765625 6.8125 -9.921875 C 7.164062 -10.085938 7.550781 -10.171875 7.96875 -10.171875 C 8.34375 -10.171875 8.65625 -10.097656 8.90625 -9.953125 C 9.15625 -9.804688 9.351562 -9.628906 9.5 -9.421875 C 9.65625 -9.222656 9.765625 -9.007812 9.828125 -8.78125 C 9.890625 -8.5625 9.921875 -8.375 9.921875 -8.21875 C 9.921875 -7.925781 9.882812 -7.625 9.8125 -7.3125 C 9.738281 -7.007812 9.609375 -6.703125 9.421875 -6.390625 C 9.242188 -6.085938 9.003906 -5.796875 8.703125 -5.515625 C 8.398438 -5.234375 8.019531 -4.972656 7.5625 -4.734375 C 8.175781 -3.429688 8.773438 -2.3125 9.359375 -1.375 C 9.941406 -0.4375 10.503906 0.332031 11.046875 0.9375 C 11.585938 1.539062 12.101562 1.984375 12.59375 2.265625 C 13.09375 2.554688 13.566406 2.703125 14.015625 2.703125 C 14.097656 2.703125 14.175781 2.691406 14.25 2.671875 C 14.332031 2.648438 14.40625 2.628906 14.46875 2.609375 C 14.539062 2.578125 14.617188 2.546875 14.703125 2.515625 L 14.875 2.859375 C 14.707031 2.953125 14.53125 3.039062 14.34375 3.125 C 14.15625 3.21875 13.941406 3.296875 13.703125 3.359375 C 13.472656 3.421875 13.203125 3.472656 12.890625 3.515625 C 12.585938 3.554688 12.222656 3.578125 11.796875 3.578125 C 11.410156 3.578125 11.03125 3.53125 10.65625 3.4375 C 10.28125 3.34375 9.898438 3.175781 9.515625 2.9375 C 9.140625 2.707031 8.757812 2.394531 8.375 2 C 7.988281 1.613281 7.585938 1.117188 7.171875 0.515625 C 6.765625 -0.078125 6.347656 -0.789062 5.921875 -1.625 C 5.492188 -2.457031 5.046875 -3.429688 4.578125 -4.546875 C 5.203125 -5.003906 5.691406 -5.429688 6.046875 -5.828125 C 6.410156 -6.222656 6.679688 -6.578125 6.859375 -6.890625 C 7.046875 -7.210938 7.160156 -7.5 7.203125 -7.75 C 7.253906 -8 7.28125 -8.210938 7.28125 -8.390625 C 7.28125 -8.421875 7.273438 -8.46875 7.265625 -8.53125 C 7.265625 -8.59375 7.242188 -8.648438 7.203125 -8.703125 C 7.171875 -8.765625 7.117188 -8.816406 7.046875 -8.859375 C 6.984375 -8.910156 6.890625 -8.9375 6.765625 -8.9375 C 6.523438 -8.9375 6.28125 -8.832031 6.03125 -8.625 C 5.78125 -8.414062 5.539062 -8.160156 5.3125 -7.859375 C 5.09375 -7.554688 4.890625 -7.226562 4.703125 -6.875 C 4.523438 -6.53125 4.375 -6.210938 4.25 -5.921875 L 4.25 -0.859375 C 4.25 -0.773438 4.234375 -0.671875 4.203125 -0.546875 C 4.179688 -0.429688 4.113281 -0.320312 4 -0.21875 C 3.894531 -0.113281 3.738281 -0.0234375 3.53125 0.046875 C 3.320312 0.117188 3.046875 0.15625 2.703125 0.15625 C 2.359375 0.15625 2.085938 0.113281 1.890625 0.03125 C 1.691406 -0.0507812 1.546875 -0.144531 1.453125 -0.25 C 1.359375 -0.363281 1.300781 -0.476562 1.28125 -0.59375 C 1.257812 -0.71875 1.25 -0.8125 1.25 -0.875 L 1.25 -13.53125 C 1.25 -13.71875 1.203125 -13.878906 1.109375 -14.015625 C 1.023438 -14.160156 0.878906 -14.234375 0.671875 -14.234375 C 0.554688 -14.234375 0.457031 -14.210938 0.375 -14.171875 C 0.289062 -14.140625 0.207031 -14.085938 0.125 -14.015625 L -0.078125 -14.25 C 0.0664062 -14.375 0.234375 -14.492188 0.421875 -14.609375 C 0.609375 -14.734375 0.8125 -14.84375 1.03125 -14.9375 C 1.25 -15.03125 1.476562 -15.101562 1.71875 -15.15625 C 1.96875 -15.21875 2.234375 -15.25 2.515625 -15.25 C 2.929688 -15.25 3.257812 -15.191406 3.5 -15.078125 C 3.738281 -14.960938 3.910156 -14.820312 4.015625 -14.65625 C 4.128906 -14.488281 4.195312 -14.3125 4.21875 -14.125 C 4.238281 -13.945312 4.25 -13.785156 4.25 -13.640625 Z M 4.25 -7.515625 "/></g></g></g><g fill="#ffffff" fill-opacity="1"><g transform="translate(97.672301, 47.851632)"><g><path d="M 3.75 -4.5 C 3.75 -4.289062 3.78125 -4.0625 3.84375 -3.8125 C 3.90625 -3.570312 3.992188 -3.328125 4.109375 -3.078125 C 4.234375 -2.828125 4.378906 -2.585938 4.546875 -2.359375 C 4.722656 -2.140625 4.921875 -1.941406 5.140625 -1.765625 C 5.367188 -1.585938 5.617188 -1.445312 5.890625 -1.34375 C 6.171875 -1.238281 6.472656 -1.1875 6.796875 -1.1875 C 7.023438 -1.1875 7.238281 -1.210938 7.4375 -1.265625 C 7.632812 -1.316406 7.816406 -1.390625 7.984375 -1.484375 C 8.160156 -1.578125 8.328125 -1.679688 8.484375 -1.796875 C 8.640625 -1.921875 8.796875 -2.050781 8.953125 -2.1875 L 9.203125 -1.953125 C 9.046875 -1.742188 8.847656 -1.519531 8.609375 -1.28125 C 8.378906 -1.039062 8.097656 -0.8125 7.765625 -0.59375 C 7.429688 -0.382812 7.039062 -0.207031 6.59375 -0.0625 C 6.15625 0.0703125 5.648438 0.140625 5.078125 0.140625 C 4.503906 0.140625 3.945312 0.0351562 3.40625 -0.171875 C 2.875 -0.378906 2.398438 -0.6875 1.984375 -1.09375 C 1.566406 -1.507812 1.226562 -2.023438 0.96875 -2.640625 C 0.71875 -3.253906 0.59375 -3.972656 0.59375 -4.796875 C 0.59375 -5.390625 0.664062 -5.929688 0.8125 -6.421875 C 0.96875 -6.921875 1.175781 -7.367188 1.4375 -7.765625 C 1.695312 -8.171875 2 -8.523438 2.34375 -8.828125 C 2.6875 -9.128906 3.046875 -9.378906 3.421875 -9.578125 C 3.796875 -9.773438 4.179688 -9.921875 4.578125 -10.015625 C 4.972656 -10.117188 5.351562 -10.171875 5.71875 -10.171875 C 6.207031 -10.171875 6.628906 -10.117188 6.984375 -10.015625 C 7.347656 -9.910156 7.648438 -9.769531 7.890625 -9.59375 C 8.128906 -9.414062 8.304688 -9.210938 8.421875 -8.984375 C 8.535156 -8.753906 8.59375 -8.507812 8.59375 -8.25 C 8.59375 -7.945312 8.503906 -7.671875 8.328125 -7.421875 C 8.148438 -7.179688 7.914062 -6.96875 7.625 -6.78125 Z M 5.71875 -6.484375 C 5.8125 -6.535156 5.882812 -6.585938 5.9375 -6.640625 C 5.988281 -6.691406 6.03125 -6.75 6.0625 -6.8125 C 6.101562 -6.882812 6.128906 -6.96875 6.140625 -7.0625 C 6.160156 -7.164062 6.171875 -7.296875 6.171875 -7.453125 C 6.171875 -7.617188 6.148438 -7.800781 6.109375 -8 C 6.078125 -8.195312 6.015625 -8.382812 5.921875 -8.5625 C 5.835938 -8.738281 5.726562 -8.882812 5.59375 -9 C 5.46875 -9.113281 5.316406 -9.171875 5.140625 -9.171875 C 4.898438 -9.171875 4.695312 -9.097656 4.53125 -8.953125 C 4.363281 -8.816406 4.222656 -8.640625 4.109375 -8.421875 C 4.003906 -8.203125 3.921875 -7.945312 3.859375 -7.65625 C 3.804688 -7.375 3.757812 -7.085938 3.71875 -6.796875 C 3.6875 -6.515625 3.664062 -6.238281 3.65625 -5.96875 C 3.65625 -5.707031 3.65625 -5.484375 3.65625 -5.296875 Z M 5.71875 -6.484375 "/></g></g></g><g fill="#ffffff" fill-opacity="1"><g transform="translate(115.336663, 47.851632)"><g><path d="M 4.375 -9.390625 C 4.21875 -9.390625 4.070312 -9.367188 3.9375 -9.328125 C 3.8125 -9.296875 3.695312 -9.234375 3.59375 -9.140625 C 3.488281 -9.054688 3.40625 -8.945312 3.34375 -8.8125 C 3.28125 -8.675781 3.25 -8.515625 3.25 -8.328125 C 3.25 -8.078125 3.34375 -7.828125 3.53125 -7.578125 C 3.71875 -7.328125 3.945312 -7.0625 4.21875 -6.78125 C 4.5 -6.507812 4.800781 -6.226562 5.125 -5.9375 C 5.457031 -5.65625 5.757812 -5.351562 6.03125 -5.03125 C 6.3125 -4.707031 6.546875 -4.359375 6.734375 -3.984375 C 6.921875 -3.617188 7.015625 -3.226562 7.015625 -2.8125 C 7.015625 -2.34375 6.929688 -1.925781 6.765625 -1.5625 C 6.609375 -1.195312 6.378906 -0.882812 6.078125 -0.625 C 5.785156 -0.375 5.425781 -0.179688 5 -0.046875 C 4.582031 0.0859375 4.113281 0.15625 3.59375 0.15625 C 3.144531 0.15625 2.738281 0.09375 2.375 -0.03125 C 2.007812 -0.15625 1.679688 -0.3125 1.390625 -0.5 C 1.109375 -0.6875 0.863281 -0.882812 0.65625 -1.09375 C 0.457031 -1.300781 0.304688 -1.492188 0.203125 -1.671875 L 0.546875 -1.90625 C 0.628906 -1.8125 0.734375 -1.707031 0.859375 -1.59375 C 0.992188 -1.476562 1.140625 -1.367188 1.296875 -1.265625 C 1.460938 -1.171875 1.632812 -1.09375 1.8125 -1.03125 C 2 -0.96875 2.1875 -0.9375 2.375 -0.9375 C 2.84375 -0.9375 3.226562 -1.050781 3.53125 -1.28125 C 3.832031 -1.507812 3.984375 -1.84375 3.984375 -2.28125 C 3.984375 -2.53125 3.898438 -2.785156 3.734375 -3.046875 C 3.566406 -3.316406 3.359375 -3.59375 3.109375 -3.875 C 2.867188 -4.15625 2.601562 -4.445312 2.3125 -4.75 C 2.019531 -5.050781 1.75 -5.359375 1.5 -5.671875 C 1.257812 -5.992188 1.054688 -6.320312 0.890625 -6.65625 C 0.722656 -7 0.640625 -7.351562 0.640625 -7.71875 C 0.640625 -8.132812 0.722656 -8.492188 0.890625 -8.796875 C 1.054688 -9.109375 1.28125 -9.363281 1.5625 -9.5625 C 1.84375 -9.769531 2.160156 -9.921875 2.515625 -10.015625 C 2.867188 -10.117188 3.238281 -10.171875 3.625 -10.171875 C 4.0625 -10.171875 4.457031 -10.128906 4.8125 -10.046875 C 5.175781 -9.972656 5.484375 -9.851562 5.734375 -9.6875 C 5.992188 -9.53125 6.191406 -9.332031 6.328125 -9.09375 C 6.472656 -8.851562 6.546875 -8.570312 6.546875 -8.25 C 6.546875 -8 6.460938 -7.78125 6.296875 -7.59375 C 6.140625 -7.414062 5.914062 -7.328125 5.625 -7.328125 C 5.34375 -7.328125 5.125 -7.390625 4.96875 -7.515625 C 4.820312 -7.640625 4.75 -7.804688 4.75 -8.015625 C 4.75 -8.148438 4.78125 -8.253906 4.84375 -8.328125 C 4.914062 -8.410156 4.992188 -8.472656 5.078125 -8.515625 C 5.171875 -8.566406 5.25 -8.609375 5.3125 -8.640625 C 5.382812 -8.679688 5.421875 -8.734375 5.421875 -8.796875 C 5.421875 -8.972656 5.320312 -9.113281 5.125 -9.21875 C 4.925781 -9.332031 4.675781 -9.390625 4.375 -9.390625 Z M 4.375 -9.390625 "/></g></g></g></svg>